<?xml version="1.0" standalone="no"?>
<!DOCTYPE svg PUBLIC "-//W3C//DTD SVG 1.1//EN" "http://www.w3.org/Graphics/SVG/1.1/DTD/svg11.dtd" >
<svg xmlns="http://www.w3.org/2000/svg" xmlns:xlink="http://www.w3.org/1999/xlink" version="1.1">
<metadata>
Created by FontForge 20161013 at Thu Nov 17 12:33:07 2016
 By ,,,
Copyright 2011 - 2016 The Montserrat Project Authors (julieta.ulanovsky@gmail.com)
</metadata>
<defs>
<font id="MontserratAlternates-SemiBold" horiz-adv-x="766" >
  <font-face 
    font-family="Montserrat Alternates SemiBold"
    font-weight="600"
    font-stretch="normal"
    units-per-em="1000"
    panose-1="0 0 7 0 0 0 0 0 0 0"
    ascent="800"
    descent="-200"
    x-height="538"
    cap-height="700"
    bbox="-304 -300 1513 1168"
    underline-thickness="50"
    underline-position="-200"
    unicode-range="U+000D-FB02"
  />
<missing-glyph horiz-adv-x="587" 
d="M40 0v700h507v-700h-507zM120 70h347v560h-347v-560z" />
    <glyph glyph-name="fi" unicode="fi" horiz-adv-x="644" 
d="M493 614q-33 0 -54 22t-21 55q0 34 21 55.5t54 21.5t54 -21.5t21 -55.5q0 -33 -21 -55t-54 -22zM66 565q0 87 57 135.5t141 48.5q59 0 104 -21l-6 -128q-42 21 -79 21q-29 1 -46.5 -14.5t-17.5 -47.5v-45h127v-107h-127v-407h-153v565zM416 538h154v-538h-154v538z" />
    <glyph glyph-name="fl" unicode="fl" horiz-adv-x="712" 
d="M103 567q0 87 65.5 134.5t186.5 46.5q117 0 180 -52t63 -148v-460q0 -58 48 -58q20 0 52 15l15 -128q-51 -24 -102 -24q-72 0 -119 47.5t-47 137.5v464q0 78 -98 80q-44 1 -67.5 -16.5t-23.5 -49.5v-58h104v-107h-104v-391h-153v391h-72v107h72v69z" />
    <glyph glyph-name="f_f_i" unicode="ffi" horiz-adv-x="979" 
d="M828 614q-33 0 -54 22t-21 55q0 34 21 55.5t54 21.5t54 -21.5t21 -55.5q0 -33 -21 -55t-54 -22zM283 622q-28 0 -46 -16t-18 -47v-45h127v-107h-127v-407h-153v565q0 87 56.5 135.5t141.5 48.5q83 0 141 -38l-55 -112q-31 23 -67 23zM401 565q0 87 57 135.5t141 48.5
q59 0 104 -21l-6 -128q-42 21 -79 21q-29 1 -46.5 -14.5t-17.5 -47.5v-45h127v-107h-127v-407h-153v565zM751 538h154v-538h-154v538z" />
    <glyph glyph-name="f_f_l" unicode="ffl" horiz-adv-x="1047" 
d="M283 622q-28 0 -46 -16t-18 -47v-45h127v-107h-127v-407h-153v565q0 87 56.5 135.5t141.5 48.5q83 0 141 -38l-55 -112q-31 23 -67 23zM1033 45l15 -128q-51 -24 -102 -24q-72 0 -119 47.5t-47 137.5v464q0 78 -98 80q-44 1 -67.5 -16.5t-23.5 -49.5v-58h104v-107h-104
v-391h-153v391h-72v107h72v69q0 87 65.5 134.5t186.5 46.5q117 0 180 -52t63 -148v-460q0 -58 48 -58q20 0 52 15z" />
    <glyph glyph-name=".notdef" horiz-adv-x="587" 
d="M40 0v700h507v-700h-507zM120 70h347v560h-347v-560z" />
    <glyph glyph-name=".null" horiz-adv-x="0" 
 />
    <glyph glyph-name="nonmarkingreturn" horiz-adv-x="333" 
 />
    <glyph glyph-name="NULL" horiz-adv-x="0" 
 />
    <glyph glyph-name="NULL" horiz-adv-x="0" 
 />
    <glyph glyph-name="CR" unicode="&#xd;" horiz-adv-x="300" 
 />
    <glyph glyph-name="space" unicode=" " horiz-adv-x="300" 
 />
    <glyph glyph-name="exclam" unicode="!" horiz-adv-x="240" 
d="M56 695h147v-177l-27 -282h-93l-27 282v177zM128 150q34 0 55.5 -22t21.5 -57t-21.5 -57.5t-55.5 -22.5q-33 0 -55 23t-22 57q0 35 22 57t55 22z" />
    <glyph glyph-name="quotedbl" unicode="&#x22;" horiz-adv-x="414" 
d="M60 700h116v-266h-116v266zM238 700h116v-266h-116v266z" />
    <glyph glyph-name="numbersign" unicode="#" horiz-adv-x="732" 
d="M701 422h-139l-18 -151h135l-12 -111h-137l-20 -160h-111l20 160h-152l-20 -160h-112l20 160h-136l12 111h138l18 151h-135l12 111h137l21 167h111l-21 -167h152l21 167h112l-21 -167h136zM432 271l19 151h-152l-19 -151h152z" />
    <glyph glyph-name="dollar" unicode="$" horiz-adv-x="637" 
d="M231 515q0 -30 27.5 -50.5t69 -31t90 -27t89.5 -37t68.5 -62.5t27.5 -101q0 -87 -59.5 -141t-157.5 -66v-149h-115v149q-145 17 -251 107l63 129q53 -47 122.5 -76t125.5 -29q49 0 76.5 17.5t27.5 49.5q0 30 -27.5 51t-69 31t-90 26t-90 35.5t-69 60.5t-27.5 99
q0 82 56.5 135.5t152.5 67.5v142h115v-141q122 -12 213 -73l-61 -131q-55 33 -115 52.5t-103 19.5q-41 0 -65 -14.5t-24 -42.5z" />
    <glyph glyph-name="percent" unicode="%" horiz-adv-x="1007" 
d="M225 703q89 0 140.5 -56.5t51.5 -154.5t-51.5 -154.5t-140.5 -56.5t-140 56.5t-51 154.5t51.5 154.5t139.5 56.5zM681 700h144l-504 -700h-146zM225 617q-43 0 -67.5 -33t-24.5 -92t24.5 -92t67.5 -33q44 0 68.5 33t24.5 92t-24.5 92t-68.5 33zM781 419q89 0 140.5 -56.5
t51.5 -154.5t-51.5 -154.5t-140.5 -56.5t-140 56.5t-51 154.5t51.5 154.5t139.5 56.5zM781 333q-43 0 -67.5 -33t-24.5 -92t24.5 -92t67.5 -33q44 0 68.5 33t24.5 92t-24.5 92t-68.5 33z" />
    <glyph glyph-name="ampersand" unicode="&#x26;" horiz-adv-x="678" 
d="M671 51l-78 -78q-74 72 -102 100q-92 -80 -203 -80q-100 0 -166.5 57t-66.5 145q0 66 37.5 109.5t105.5 80.5q-61 84 -61 157q0 74 53 119.5t141 45.5q85 0 139 -43t54 -111q0 -65 -43.5 -108t-122.5 -83q51 -58 121 -126q33 53 53 117l98 -73q-25 -65 -66 -126
q29 -29 107 -103zM258 542q0 -46 41 -106q50 27 77 53.5t27 62.5q0 29 -19.5 46.5t-50.5 17.5q-34 0 -54.5 -20.5t-20.5 -53.5zM294 105q60 0 116 47q-91 91 -151 157q-77 -48 -77 -103q0 -45 32 -73t80 -28z" />
    <glyph glyph-name="quotesingle" unicode="'" horiz-adv-x="236" 
d="M60 700h116v-266h-116v266z" />
    <glyph glyph-name="parenleft" unicode="(" horiz-adv-x="337" 
d="M330 742q-119 -191 -119 -433q0 -244 119 -433h-137q-126 178 -126 433q0 253 126 433h137z" />
    <glyph glyph-name="parenright" unicode=")" horiz-adv-x="354" 
d="M74 742h137q126 -180 126 -433q0 -255 -126 -433h-137q119 189 119 433q0 242 -119 433z" />
    <glyph glyph-name="asterisk" unicode="*" horiz-adv-x="368" 
d="M145 720h78l-1 -98l84 50l39 -70l-87 -47l87 -48l-39 -70l-85 50l2 -97h-78l2 98l-85 -50l-39 69l86 48l-86 47l39 71l85 -51z" />
    <glyph glyph-name="plus" unicode="+" horiz-adv-x="506" 
d="M473 377v-102h-171v-169h-98v169h-171v102h171v170h98v-170h171z" />
    <glyph glyph-name="comma" unicode="," horiz-adv-x="232" 
d="M118 149q31 0 53 -21t22 -57q0 -33 -21 -62l-67 -101h-75l42 101q-31 22 -31 62q0 34 22 56t55 22z" />
    <glyph glyph-name="hyphen" unicode="-" horiz-adv-x="372" 
d="M57 357h258v-102h-258v102z" />
    <glyph glyph-name="period" unicode="." horiz-adv-x="235" 
d="M117 150q34 0 55.5 -22t21.5 -57t-21.5 -57.5t-55.5 -22.5q-33 0 -55 23t-22 57q0 35 22 57t55 22z" />
    <glyph glyph-name="slash" unicode="/" horiz-adv-x="346" 
d="M290 812h130l-322 -924h-129z" />
    <glyph glyph-name="zero" unicode="0" horiz-adv-x="617" 
d="M309 706q130 0 200 -92t70 -263q0 -172 -69.5 -263.5t-200.5 -91.5t-201 91.5t-70 263.5q0 171 70 263t201 92zM309 590q-61 0 -89.5 -57t-28.5 -182q0 -124 28.5 -181.5t89.5 -57.5q60 0 88.5 57.5t28.5 181.5q0 125 -28.5 182t-88.5 57z" />
    <glyph glyph-name="one" unicode="1" horiz-adv-x="617" 
d="M98 701h298v-701h-158v567h-140v134z" />
    <glyph glyph-name="two" unicode="2" horiz-adv-x="617" 
d="M307 376q76 76 76 127q0 34 -25 52.5t-71 18.5q-92 0 -195 -88l-62 118q138 104 280 104q106 0 172.5 -49.5t66.5 -131.5q0 -94 -134 -233l-163 -161h322v-133h-526v109z" />
    <glyph glyph-name="three" unicode="3" horiz-adv-x="617" 
d="M363 410q91 -11 145.5 -61t54.5 -130q0 -101 -76.5 -163.5t-204.5 -62.5q-73 0 -145 22.5t-123 59.5l64 126q86 -83 192 -83q65 0 101.5 26.5t36.5 72.5q0 96 -139 96h-112v87l179 172h-286v128h478v-95l-203 -190z" />
    <glyph glyph-name="four" unicode="4" horiz-adv-x="617" 
d="M253 701h150l-209 -415h163v155h145l1 -155h95v-127h-96v-159h-145v159h-327v110z" />
    <glyph glyph-name="five" unicode="5" horiz-adv-x="617" 
d="M228 446h79q121 0 194 -59t73 -153q0 -109 -76.5 -174.5t-203.5 -65.5q-68 0 -141 23t-129 62l64 125q86 -83 188 -83q61 0 95 27t34 76q0 44 -33.5 69t-94.5 25q-125 0 -194 -6v389h460v-132h-315v-123z" />
    <glyph glyph-name="six" unicode="6" horiz-adv-x="617" 
d="M513 539q-64 45 -149 45q-87 0 -131.5 -56t-42.5 -153q55 84 175 84q102 0 163 -62t61 -165q0 -110 -69.5 -174.5t-184.5 -64.5q-137 0 -215 92t-78 253q0 168 85 269t227 101q122 0 218 -56zM332 341q-57 0 -90 -31.5t-32 -79.5q-1 -45 29.5 -76.5t88.5 -31.5
q54 0 85.5 29t31.5 82q0 50 -30 79t-83 29z" />
    <glyph glyph-name="seven" unicode="7" horiz-adv-x="617" 
d="M41 701h550v-113l-276 -588h-168l269 569h-234l-1 -98h-140v230z" />
    <glyph glyph-name="eight" unicode="8" horiz-adv-x="617" 
d="M308 708q111 0 176 -50.5t65 -136.5q0 -46 -24 -84.5t-66 -61.5q58 -23 92 -70.5t34 -106.5q0 -94 -74.5 -149.5t-201.5 -55.5t-202 54.5t-75 147.5q0 60 36.5 108.5t97.5 71.5q-46 25 -72 65t-26 87q0 83 65 132t175 49zM309 599q-52 0 -80.5 -22.5t-28.5 -63.5
t28.5 -63t80.5 -22t80 22t28 63t-28 63.5t-80 22.5zM308 309q-61 0 -94 -25.5t-33 -71.5q0 -48 33.5 -74t94.5 -26t94.5 26t33.5 73t-34 72.5t-95 25.5z" />
    <glyph glyph-name="nine" unicode="9" horiz-adv-x="617" 
d="M107 162q64 -45 148 -45q87 0 131 55.5t42 154.5q-55 -85 -174 -85q-102 0 -162 62t-60 165q0 110 68.5 174.5t183.5 64.5q136 0 214 -92t78 -253q0 -168 -84.5 -269t-227.5 -101q-122 0 -216 57zM291 580q-54 0 -85 -29.5t-31 -82.5q0 -50 30 -79t82 -29q57 0 89.5 31.5
t32.5 79.5q0 45 -30 77t-88 32z" />
    <glyph glyph-name="colon" unicode=":" horiz-adv-x="235" 
d="M117 447q34 0 55.5 -22t21.5 -57t-21.5 -57.5t-55.5 -22.5q-33 0 -55 23t-22 57q0 35 22 57t55 22zM117 150q34 0 55.5 -22t21.5 -57t-21.5 -57.5t-55.5 -22.5q-33 0 -55 23t-22 57q0 35 22 57t55 22z" />
    <glyph glyph-name="semicolon" unicode=";" horiz-adv-x="233" 
d="M117 288q-33 0 -55 23t-22 57q0 35 22 57t55 22q34 0 55.5 -22t21.5 -57t-21.5 -57.5t-55.5 -22.5zM118 149q31 0 53 -21t22 -57q0 -33 -21 -62l-67 -101h-75l42 101q-31 22 -31 62q0 34 22 56t55 22z" />
    <glyph glyph-name="less" unicode="&#x3c;" horiz-adv-x="506" 
d="M473 575v-114l-339 -136l339 -137v-114l-440 186v129z" />
    <glyph glyph-name="equal" unicode="=" horiz-adv-x="506" 
d="M33 484h440v-102h-440v102zM33 270h440v-102h-440v102z" />
    <glyph glyph-name="greater" unicode="&#x3e;" horiz-adv-x="506" 
d="M33 81v114l339 136l-339 137v114l440 -186v-129z" />
    <glyph glyph-name="question" unicode="?" horiz-adv-x="462" 
d="M3 481q2 104 61 162t161 58q97 0 153.5 -45t56.5 -127q0 -43 -16 -77t-38.5 -57.5t-45.5 -45.5t-39 -50.5t-16 -62.5h-116q0 43 13.5 77t32 55.5t37.5 40.5t32.5 42.5t13.5 52.5q0 70 -82 70q-85 0 -89 -94zM220 150q34 0 55.5 -22t21.5 -57t-21.5 -57.5t-55.5 -22.5
q-33 0 -55 23t-22 57q0 35 22 57t55 22z" />
    <glyph glyph-name="at" unicode="@" horiz-adv-x="936" 
d="M688 155q0 -50 41 -50q34 0 60 47.5t26 118.5q0 148 -93 245t-248 97q-147 0 -250 -101t-103 -245q0 -141 97.5 -234.5t242.5 -93.5q108 0 190 60l45 -77q-43 -32 -109.5 -52t-125.5 -20q-186 0 -310 119t-124 298q0 183 129.5 308t317.5 125q187 0 310.5 -121
t123.5 -305q0 -112 -53 -179.5t-138 -67.5q-98 0 -117 78l-2 15q-56 -82 -158 -82q-89 0 -155.5 65.5t-66.5 166.5q0 99 58 167.5t152 68.5q53 0 93.5 -24.5t49.5 -42.5v56h117v-340zM451 397q-46 0 -75.5 -35.5t-29.5 -86.5q0 -54 30 -92t77 -38q50 0 80 37t30 92
q0 52 -30.5 87.5t-81.5 35.5z" />
    <glyph glyph-name="A" unicode="A" horiz-adv-x="764" 
d="M64 406q0 138 85.5 219.5t230.5 81.5q148 0 234 -81.5t86 -219.5v-406h-158v173h-320v-173h-158v406zM542 406q-1 75 -43.5 119t-116.5 44t-117 -44t-43 -119v-105h320v105z" />
    <glyph glyph-name="B" unicode="B" horiz-adv-x="712" 
d="M399 700q116 0 183 -47t67 -128q0 -56 -32.5 -97.5t-88.5 -56.5q68 -13 107 -60.5t39 -116.5q0 -90 -71 -142t-193 -52h-333v700h322zM391 418q45 0 70.5 20.5t25.5 57.5q0 36 -25.5 56t-70.5 19h-156v-153h156zM391 129q56 0 88 22.5t32 62.5q0 38 -32 60t-88 21h-156
v-166h156z" />
    <glyph glyph-name="C" unicode="C" horiz-adv-x="694" 
d="M584 477q-36 42 -85 66.5t-97 24.5q-90 0 -151.5 -62t-61.5 -153t61.5 -153.5t151.5 -62.5q47 0 95.5 22t86.5 60l93 -101q-56 -58 -131.5 -91.5t-151.5 -33.5q-157 0 -262 103t-105 255q0 151 107 252.5t266 101.5q76 0 150 -31.5t126 -84.5z" />
    <glyph glyph-name="D" unicode="D" horiz-adv-x="769" 
d="M374 700q163 0 265.5 -97.5t102.5 -252.5t-104 -252.5t-270 -97.5h-291v700h297zM378 133q88 0 145.5 60.5t57.5 155.5q0 96 -59.5 157t-150.5 61h-136v-434h143z" />
    <glyph glyph-name="E" unicode="E" horiz-adv-x="597" 
d="M318 296q-54 0 -88.5 -23.5t-34.5 -59.5q0 -39 38.5 -62t96.5 -23q48 0 103.5 16.5t87.5 36.5l60 -120q-47 -30 -120.5 -49t-145.5 -19q-124 0 -203.5 55t-79.5 143q0 61 40 110.5t106 68.5q-48 17 -78.5 59t-30.5 95q0 82 72.5 132.5t188.5 50.5q60 0 123 -13.5
t102 -35.5l-51 -120q-78 35 -159 35q-57 0 -92 -19t-35 -55q0 -32 28 -53.5t72 -21.5h156v-128h-156z" />
    <glyph glyph-name="F" unicode="F" horiz-adv-x="549" 
d="M328 569q-47 0 -76 -28t-29 -75v-79h266v-131h-266v-256h-159v469q0 109 68 173.5t182 64.5q138 0 236 -45l-37 -136q-100 43 -185 43z" />
    <glyph glyph-name="G" unicode="G" horiz-adv-x="746" 
d="M547 198v163h137v-361h-117v58q-88 -65 -184 -65q-152 0 -254 102.5t-102 254.5q0 151 109 253t271 102q77 0 153.5 -27.5t130.5 -74.5l-90 -113q-39 36 -90 57t-102 21q-93 0 -156.5 -63t-63.5 -155q0 -93 61 -156t151 -63q87 0 146 67z" />
    <glyph glyph-name="H" unicode="H" horiz-adv-x="787" 
d="M77 700h158v-292h317v292h158v-700h-158v276h-317v-276h-158v700z" />
    <glyph glyph-name="I" unicode="I" horiz-adv-x="498" 
d="M451 569h-123v-437h123v-132h-404v132h123v437h-123v131h404v-131z" />
    <glyph glyph-name="J" unicode="J" horiz-adv-x="524" 
d="M460 124q0 -109 -62.5 -170t-172.5 -61q-136 0 -229 109l73 112q73 -78 148 -78q40 0 62 24t22 68v438h-241v134h400v-576z" />
    <glyph glyph-name="K" unicode="K" horiz-adv-x="737" 
d="M727 0h-190l-201 285l-101 -112v-173h-158v700h158v-318l291 318h183l-263 -292z" />
    <glyph glyph-name="L" unicode="L" horiz-adv-x="552" 
d="M77 700h158v-562h300v-138h-458v700z" />
    <glyph glyph-name="M" unicode="M" horiz-adv-x="1183" 
d="M890 700q101 0 165 -71t64 -185v-444h-160v405q0 66 -35.5 106.5t-94.5 40.5q-66 -1 -109 -50.5t-43 -124.5v-377h-160v405q0 66 -35.5 106.5t-94.5 40.5q-66 -1 -109 -50.5t-43 -124.5v-377h-158v700h158v-112q73 110 214 112q73 0 128 -39t81 -107q33 69 92.5 107
t139.5 39z" />
    <glyph glyph-name="N" unicode="N" 
d="M461 700q108 0 174.5 -70.5t66.5 -185.5v-444h-160v406q0 65 -38.5 105.5t-101.5 40.5q-74 -1 -120.5 -50.5t-46.5 -124.5v-377h-158v700h158v-115q76 113 226 115z" />
    <glyph glyph-name="O" unicode="O" horiz-adv-x="806" 
d="M403 705q161 0 268.5 -101.5t107.5 -253.5t-108 -254.5t-268 -102.5t-268 102.5t-108 254.5q0 153 107.5 254t268.5 101zM405 567q-89 0 -152.5 -63t-63.5 -154q0 -92 63.5 -155.5t152.5 -63.5q88 0 150 63.5t62 155.5t-62 154.5t-150 62.5z" />
    <glyph glyph-name="P" unicode="P" horiz-adv-x="678" 
d="M374 700q134 0 207 -63.5t73 -179.5q0 -122 -73.5 -189.5t-206.5 -67.5h-139v-200h-158v700h297zM366 332q67 0 102.5 30.5t35.5 89.5q0 117 -138 117h-131v-237h131z" />
    <glyph glyph-name="Q" unicode="Q" horiz-adv-x="806" 
d="M779 350q0 -138 -91.5 -237.5t-232.5 -116.5v-118h-114v119q-138 20 -226 118.5t-88 234.5q0 153 107.5 254t268.5 101t268.5 -101.5t107.5 -253.5zM455 137q71 17 116.5 76t45.5 137q0 92 -62 154.5t-150 62.5q-89 0 -152.5 -63t-63.5 -154q0 -74 42.5 -131t109.5 -78
v144h114v-148z" />
    <glyph glyph-name="R" unicode="R" horiz-adv-x="724" 
d="M686 0h-179l-111 200h-15h-146v-200h-158v700h304q137 0 212 -63.5t75 -179.5q0 -164 -131 -226zM235 569v-237h146q66 0 101.5 30.5t35.5 89.5q0 58 -35.5 87.5t-101.5 29.5h-146z" />
    <glyph glyph-name="S" unicode="S" horiz-adv-x="637" 
d="M538 500q-55 33 -115 52.5t-103 19.5q-41 0 -65 -14.5t-24 -42.5q0 -30 27.5 -50.5t69 -31t90 -27t89.5 -37t68.5 -62.5t27.5 -101q0 -100 -77 -155.5t-197 -55.5q-85 0 -167 30t-142 81l63 129q53 -47 122.5 -76t125.5 -29q49 0 76.5 17.5t27.5 49.5q0 30 -27.5 51
t-69 31t-90 26t-90 35.5t-69 60.5t-27.5 99q0 95 74.5 151t196.5 56q150 0 266 -76z" />
    <glyph glyph-name="T" unicode="T" horiz-adv-x="674" 
d="M646 629l-47 -127q-85 44 -186 59v-561h-158v561q-101 -14 -187 -59l-47 128q139 77 312 77q172 0 313 -78z" />
    <glyph glyph-name="U" unicode="U" 
d="M531 700h158v-700h-158v115q-76 -113 -226 -115q-108 0 -174.5 70.5t-66.5 185.5v444h160v-406q0 -65 38.5 -105.5t101.5 -40.5q74 1 120.5 50.5t46.5 124.5v377z" />
    <glyph glyph-name="V" unicode="V" horiz-adv-x="716" 
d="M0 700h170l191 -528l192 528h163l-278 -700h-163z" />
    <glyph glyph-name="W" unicode="W" horiz-adv-x="1170" 
d="M1106 270q0 -122 -76 -199.5t-196 -77.5q-81 0 -148.5 36t-99.5 94q-31 -58 -98 -94t-149 -36q-121 0 -198 77.5t-77 199.5v430h158v-430q0 -61 40 -100t102 -39q63 0 102.5 38.5t40.5 100.5v430h158v-430q0 -61 40.5 -100t104.5 -39q62 0 100 38.5t38 100.5v430h158
v-430z" />
    <glyph glyph-name="X" unicode="X" horiz-adv-x="721" 
d="M25 700h184l146 -214l147 214h187l-233 -335l253 -365h-189l-165 233l-162 -233h-185l251 358z" />
    <glyph glyph-name="Y" unicode="Y" horiz-adv-x="741" 
d="M520 700h157v-519q0 -129 -86 -208.5t-226 -79.5q-83 0 -163 29t-130 77l67 110q39 -35 96 -56.5t110 -21.5q77 0 126 43t49 111v78q-70 -107 -203 -109q-113 0 -183 74t-70 192v280h158v-265q0 -62 39.5 -100.5t103.5 -38.5q68 1 111.5 48t43.5 122v234z" />
    <glyph glyph-name="Z" unicode="Z" horiz-adv-x="672" 
d="M244 132h397l-1 -132h-609v107l165 194h-103v111h197l133 156h-379v132h591v-106l-163 -193h95v-111h-189z" />
    <glyph glyph-name="bracketleft" unicode="[" horiz-adv-x="356" 
d="M77 742h259v-119h-122v-628h122v-119h-259v866z" />
    <glyph glyph-name="backslash" unicode="\" horiz-adv-x="484" 
d="M181 812l321 -924h-129l-322 924h130z" />
    <glyph glyph-name="bracketright" unicode="]" horiz-adv-x="446" 
d="M369 742v-866h-259v119h122v628h-122v119h259z" />
    <glyph glyph-name="asciicircum" unicode="^" horiz-adv-x="562" 
d="M531 135h-114l-136 300l-137 -300h-114l186 390h129z" />
    <glyph glyph-name="underscore" unicode="_" horiz-adv-x="578" 
d="M0 -116h577v-88h-577v88z" />
    <glyph glyph-name="grave" unicode="`" horiz-adv-x="350" 
d="M189 765l107 -163h-123l-127 110z" />
    <glyph glyph-name="a" unicode="a" horiz-adv-x="679" 
d="M451 538h153v-538h-153v77q-60 -83 -169 -83q-115 0 -184.5 76t-69.5 201q0 122 68.5 197t180.5 76q113 0 174 -84v78zM318 118q54 0 90.5 36t42.5 95v36q-6 59 -42.5 95t-90.5 36q-60 0 -97.5 -41.5t-38.5 -107.5q1 -66 38.5 -107.5t97.5 -41.5z" />
    <glyph glyph-name="b" unicode="b" horiz-adv-x="684" 
d="M403 543q113 0 183 -76.5t70 -200.5q0 -122 -68.5 -197t-181.5 -75q-112 0 -173 84v-78h-154v742h154v-283q59 84 170 84zM367 122q59 0 96 41.5t37 107.5q0 65 -37 106.5t-96 41.5t-96.5 -41.5t-37.5 -106.5q0 -67 37.5 -108t96.5 -41z" />
    <glyph glyph-name="c" unicode="c" horiz-adv-x="563" 
d="M433 355q-47 58 -123 57q-57 0 -92.5 -40t-35.5 -104q0 -65 36 -105.5t92 -40.5q84 0 125 63l106 -72q-34 -57 -95.5 -88t-143.5 -31q-122 0 -198 75.5t-76 197.5q0 124 76 200t200 76q158 0 233 -113z" />
    <glyph glyph-name="d" unicode="d" horiz-adv-x="685" 
d="M452 742h153v-742h-153v79q-59 -85 -170 -85q-115 0 -184.5 76t-69.5 201q0 123 68.5 198t181.5 75q114 0 174 -85v283zM318 118q59 0 96.5 41.5t37.5 107.5t-37.5 107.5t-96.5 41.5q-60 0 -97.5 -41.5t-38.5 -107.5q1 -66 38.5 -107.5t97.5 -41.5z" />
    <glyph glyph-name="e" unicode="e" horiz-adv-x="590" 
d="M325 114q81 0 143 70l88 -80q-93 -110 -242 -110q-128 0 -207 75.5t-79 198.5q0 122 75 198t201 77q117 1 189 -66t76 -182l-372 -98q37 -83 128 -83zM312 429q-58 0 -92 -36t-38 -104l236 64q-25 76 -106 76z" />
    <glyph glyph-name="f" unicode="f" horiz-adv-x="335" 
d="M283 622q-28 0 -46 -16t-18 -47v-45h127v-107h-127v-407h-153v565q0 87 56.5 135.5t141.5 48.5q83 0 141 -38l-55 -112q-31 23 -67 23z" />
    <glyph glyph-name="g" unicode="g" horiz-adv-x="645" 
d="M425 538h153v-488q0 -114 -78.5 -182t-208.5 -68q-129 0 -234 71l57 108q76 -54 167 -54q66 0 105 32.5t39 87.5v61q-56 -78 -162 -78q-105 0 -170 71.5t-65 188.5q0 114 64 184.5t167 70.5q107 1 166 -78v73zM299 145q56 0 91 38.5t35 100.5t-35 101t-91 39t-91 -39
t-36 -101q1 -62 35.5 -100.5t91.5 -38.5z" />
    <glyph glyph-name="h" unicode="h" horiz-adv-x="675" 
d="M419 544q91 0 144.5 -56t53.5 -150v-338h-154v293q0 51 -28.5 80.5t-77.5 29.5q-57 -1 -90.5 -39.5t-33.5 -98.5v-265h-154v742h154v-299q56 99 186 101z" />
    <glyph glyph-name="i" unicode="i" horiz-adv-x="302" 
d="M151 768q33 0 54 -21.5t21 -55.5q0 -33 -21 -55t-54 -22t-54 22t-21 55q0 34 21 55.5t54 21.5zM74 538h154v-538h-154v538z" />
    <glyph glyph-name="j" unicode="j" horiz-adv-x="308" 
d="M152 777q40 0 64.5 -24t24.5 -62t-24.5 -62t-64.5 -24q-38 0 -63.5 24.5t-25.5 61.5q0 38 25 62t64 24zM229 -16q0 -88 -54 -136.5t-134 -48.5q-72 0 -127 36l42 113q32 -21 63 -21q57 0 57 63v548h153v-554z" />
    <glyph glyph-name="k" unicode="k" horiz-adv-x="619" 
d="M432 0l-130 219l-69 -73v-146h-154v742h154v-408l197 203h175l-197 -207l206 -330h-182z" />
    <glyph glyph-name="l" unicode="l" horiz-adv-x="332" 
d="M218 188q0 -58 48 -58q20 0 52 15l15 -128q-51 -24 -102 -24q-72 0 -119 47.5t-47 137.5v564h153v-554z" />
    <glyph glyph-name="m" unicode="m" horiz-adv-x="1039" 
d="M786 544q89 0 141.5 -55.5t52.5 -150.5v-338h-153v293q0 52 -28 81t-76 29q-55 -1 -87 -39t-32 -98v-266h-153v293q0 51 -27.5 80.5t-75.5 29.5q-55 -1 -87.5 -39t-32.5 -98v-266h-154v538h154v-93q56 97 182 99q68 0 115 -32.5t67 -91.5q52 122 194 124z" />
    <glyph glyph-name="n" unicode="n" horiz-adv-x="670" 
d="M414 544q90 0 143.5 -56t53.5 -150v-338h-154v293q0 51 -28.5 80.5t-77.5 29.5q-57 -1 -90 -39.5t-33 -98.5v-265h-154v538h154v-94q56 98 186 100z" />
    <glyph glyph-name="o" unicode="o" horiz-adv-x="633" 
d="M317 543q129 0 208.5 -75t79.5 -199q0 -123 -79.5 -199t-208.5 -76q-130 0 -209.5 76t-79.5 199q0 124 79.5 199t209.5 75zM317 415q-60 0 -97.5 -41t-37.5 -107t37.5 -107t97.5 -41q59 0 96.5 41t37.5 107t-37.5 107t-96.5 41z" />
    <glyph glyph-name="p" unicode="p" horiz-adv-x="684" 
d="M403 543q113 0 183 -76.5t70 -200.5q0 -122 -68.5 -197t-181.5 -75q-112 0 -173 84v-272h-154v732h154v-79q59 84 170 84zM367 122q59 0 96 41.5t37 107.5q0 65 -37 106.5t-96 41.5t-96.5 -41.5t-37.5 -106.5q0 -67 37.5 -108t96.5 -41z" />
    <glyph glyph-name="q" unicode="q" horiz-adv-x="685" 
d="M452 538h153v-732h-153v273q-59 -85 -170 -85q-115 0 -184.5 76t-69.5 201q0 123 68.5 198t181.5 75q114 0 174 -85v79zM318 118q59 0 96.5 41.5t37.5 107.5t-37.5 107.5t-96.5 41.5q-60 0 -97.5 -41.5t-38.5 -107.5q1 -66 38.5 -107.5t97.5 -41.5z" />
    <glyph glyph-name="r" unicode="r" horiz-adv-x="416" 
d="M228 441q57 101 178 103v-145q-81 7 -129.5 -32t-48.5 -108v-259h-154v538h154v-97z" />
    <glyph glyph-name="s" unicode="s" horiz-adv-x="499" 
d="M413 380q-93 52 -164 52q-62 0 -62 -40q0 -22 29 -36t71 -25.5t83.5 -28t70.5 -52t29 -88.5q0 -80 -62 -124t-157 -44q-140 0 -233 75l50 104q87 -67 187 -67q68 0 68 42q0 23 -28.5 38t-69.5 26t-82.5 27t-70 51t-28.5 87q0 80 60 124t152 44q115 0 210 -60z" />
    <glyph glyph-name="t" unicode="t" horiz-adv-x="390" 
d="M339 143l32 -113q-64 -37 -137 -37q-76 0 -124 47t-48 131v491h153v-148h147v-107h-147v-210q0 -74 55 -74q32 0 69 20z" />
    <glyph glyph-name="u" unicode="u" horiz-adv-x="660" 
d="M432 538h153v-538h-153v95q-55 -101 -180 -101q-89 0 -141.5 55.5t-52.5 150.5v338h154v-294q0 -51 27 -80t74 -29q55 1 87 39t32 98v266z" />
    <glyph glyph-name="v" unicode="v" horiz-adv-x="556" 
d="M-3 537l159 1l127 -392l126 392h153l-203 -538h-158z" />
    <glyph glyph-name="w" unicode="w" horiz-adv-x="976" 
d="M920 229q0 -106 -62.5 -171t-165.5 -65q-62 0 -118.5 30.5t-84.5 79.5q-27 -49 -83 -79.5t-119 -30.5q-103 0 -166.5 65t-63.5 171v309h153v-302q0 -46 28 -74.5t74 -28.5t73 28t27 75v302h152v-302q0 -46 29 -74.5t76 -28.5q44 0 71 28.5t27 74.5v302h153v-309z" />
    <glyph glyph-name="x" unicode="x" horiz-adv-x="589" 
d="M20 538h176l99 -163l105 163h168l-171 -262l183 -276h-177l-108 176l-118 -176h-170l186 275z" />
    <glyph glyph-name="y" unicode="y" horiz-adv-x="661" 
d="M441 538h153v-482q0 -115 -77 -186t-202 -70q-60 1 -126 21.5t-110 53.5l38 109q86 -57 181 -59q65 0 104 36.5t39 97.5v78q-55 -91 -175 -93q-96 0 -152 56t-56 151v287h154v-242q0 -51 28.5 -80.5t77.5 -29.5q58 1 90.5 39t32.5 104v209z" />
    <glyph glyph-name="z" unicode="z" horiz-adv-x="548" 
d="M230 121h287v-122l-479 1v97l113 130h-77v95h159l82 94l-268 1v121l460 -1v-97l-109 -126h73v-95h-156z" />
    <glyph glyph-name="braceleft" unicode="{" horiz-adv-x="347" 
d="M240 426q0 -53 -17.5 -80t-60.5 -37q43 -11 60.5 -38t17.5 -80v-132q0 -37 19.5 -51.5t71.5 -14.5v-119h-59q-93 0 -131 30.5t-38 106.5v190q0 25 -9 36t-30 11h-36v122h36q21 0 30 10.5t9 35.5v191q0 75 38 105.5t131 30.5h59v-119q-52 0 -71.5 -14.5t-19.5 -51.5v-132z
" />
    <glyph glyph-name="bar" unicode="|" horiz-adv-x="289" 
d="M87 805h115v-916h-115v916z" />
    <glyph glyph-name="braceright" unicode="}" horiz-adv-x="395" 
d="M354 370h36v-122h-36q-21 0 -30 -11t-9 -36v-190q0 -76 -38 -106.5t-131 -30.5h-59v119q52 0 71.5 14.5t19.5 51.5v132q0 53 17.5 80t60.5 38q-43 10 -60.5 37t-17.5 80v132q0 37 -19.5 51.5t-71.5 14.5v119h59q93 0 131 -30.5t38 -105.5v-191q0 -25 9 -35.5t30 -10.5z
" />
    <glyph glyph-name="asciitilde" unicode="~" horiz-adv-x="506" 
d="M447 403q0 -163 -107 -163q-39 0 -83.5 26t-58.5 26q-34 0 -34 -47h-104q0 163 107 163q37 0 82.5 -26.5t59.5 -26.5q34 0 34 48h104z" />
    <glyph glyph-name="uni00A0" unicode="&#xa0;" horiz-adv-x="300" 
 />
    <glyph glyph-name="exclamdown" unicode="&#xa1;" horiz-adv-x="240" 
d="M131 387q-34 0 -55.5 22t-21.5 57t21.5 57.5t55.5 22.5q33 0 55 -23t22 -57q0 -35 -22 -57t-55 -22zM203 -158h-147v177l27 282h93l27 -282v-177z" />
    <glyph glyph-name="cent" unicode="&#xa2;" horiz-adv-x="600" 
d="M541 113q-56 -93 -176 -114v-149h-115v148q-101 16 -161.5 88.5t-60.5 180.5q0 109 60 182t162 90v156h115v-157q113 -20 172 -108l-104 -75q-47 58 -123 57q-57 0 -92.5 -40t-35.5 -104q0 -65 36 -105.5t92 -40.5q84 0 125 63z" />
    <glyph glyph-name="sterling" unicode="&#xa3;" horiz-adv-x="557" 
d="M268 285v-160h265v-125h-502v125h78v160h-78v110h78v81q0 110 60 170.5t170 60.5q124 0 208 -87l-60 -120q-66 69 -131 69q-88 0 -88 -96v-78h170v-110h-170z" />
    <glyph glyph-name="currency" unicode="&#xa4;" horiz-adv-x="705" 
d="M616 321q0 -74 -40 -138l101 -101l-87 -90l-105 105q-62 -35 -133 -35t-133 35l-105 -105l-86 90l101 102q-40 64 -40 137q0 70 37 133l-98 99l86 90l101 -101q62 39 137 39t138 -38l100 100l87 -90l-99 -99q38 -62 38 -133zM352 187q59 0 101.5 39.5t42.5 94.5
q0 56 -42.5 95.5t-101.5 39.5t-100.5 -39.5t-41.5 -95.5t41.5 -95t100.5 -39z" />
    <glyph glyph-name="yen" unicode="&#xa5;" horiz-adv-x="672" 
d="M672 700l-199 -370h126v-78h-168l-14 -26v-29h182v-78h-182v-119h-158v119h-185v78h185v25l-16 30h-169v78h126l-200 370h158l180 -314l175 314h159z" />
    <glyph glyph-name="brokenbar" unicode="&#xa6;" horiz-adv-x="289" 
d="M87 805h115v-344h-115v344zM87 232h115v-343h-115v343z" />
    <glyph glyph-name="section" unicode="&#xa7;" horiz-adv-x="530" 
d="M439 537q-98 52 -163 52q-34 0 -54.5 -12t-20.5 -32q0 -25 31 -42t75.5 -29.5t89 -29.5t75.5 -51.5t31 -85.5q0 -43 -28.5 -79t-73.5 -53q38 -20 55 -43.5t17 -61.5q0 -69 -59.5 -113t-158.5 -44q-135 0 -237 77l44 98q95 -68 189 -68q37 0 59 13t22 33q0 24 -30.5 40.5
t-74 29.5t-87.5 30t-74.5 51.5t-30.5 84.5q0 46 29 79.5t82 51.5q-46 22 -64 46t-18 59q0 69 57.5 112.5t153.5 43.5q111 0 211 -59zM253 359q-39 0 -60 -12.5t-21 -34.5q0 -27 31.5 -44.5t77.5 -17.5q39 0 60.5 13t21.5 35q0 27 -31.5 44t-78.5 17z" />
    <glyph glyph-name="dieresis" unicode="&#xa8;" horiz-adv-x="403" 
d="M108 763q31 0 51 -20.5t20 -53.5q0 -32 -20 -52.5t-51 -20.5t-51.5 20.5t-20.5 52.5q0 33 20 53.5t52 20.5zM296 763q31 0 51 -20.5t20 -53.5q0 -32 -20 -52.5t-51 -20.5t-51.5 20.5t-20.5 52.5q0 33 20 53.5t52 20.5z" />
    <glyph glyph-name="copyright" unicode="&#xa9;" horiz-adv-x="732" 
d="M366 689q142 0 240 -99.5t98 -239.5t-99 -240.5t-241 -100.5q-141 0 -239 99.5t-98 239.5t98.5 240.5t240.5 100.5zM366 614q-112 0 -189.5 -78t-77.5 -188t76.5 -187t188.5 -77q113 0 190.5 78t77.5 188q0 109 -77 186.5t-189 77.5zM460 408q-40 43 -87 43
q-43 0 -72 -29t-29 -72t29 -72.5t72 -29.5q48 0 87 39l44 -48q-57 -59 -135 -59q-74 0 -124 48.5t-50 120.5q0 71 51 119t126 48q77 0 132 -55z" />
    <glyph glyph-name="ordfeminine" unicode="&#xaa;" horiz-adv-x="390" 
d="M349 458h-104v44q-35 -49 -108 -49q-52 0 -82 27.5t-30 72.5t33.5 69.5t95.5 24.5h90v7q0 49 -67 49q-47 0 -106 -25l-25 71q84 34 156 34q69 0 108 -30.5t38 -85.5zM173 522q48 0 71 38v36h-68q-51 0 -51 -35q0 -18 13 -28.5t35 -10.5z" />
    <glyph glyph-name="guillemotleft" unicode="&#xab;" horiz-adv-x="487" 
d="M128 446h126l-107 -181l107 -182h-126l-119 182zM336 446h126l-107 -181l107 -182h-126l-119 182z" />
    <glyph glyph-name="logicalnot" unicode="&#xac;" horiz-adv-x="573" 
d="M505 421v-282h-111v180h-361v102h472z" />
    <glyph glyph-name="uni00AD" unicode="&#xad;" horiz-adv-x="372" 
d="M57 357h258v-102h-258v102z" />
    <glyph glyph-name="registered" unicode="&#xae;" horiz-adv-x="732" 
d="M366 689q142 0 240 -99.5t98 -239.5t-99 -240.5t-241 -100.5q-141 0 -239 99.5t-98 239.5t98.5 240.5t240.5 100.5zM364 84q113 0 190.5 78t77.5 188q0 109 -77 186.5t-189 77.5t-189.5 -78t-77.5 -188t76.5 -187t188.5 -77zM509 410q0 -77 -62 -105l71 -108h-83l-52 94
h-8h-66v-94h-72v325h138q64 0 99 -29.5t35 -82.5zM309 464v-115h66q31 0 48 15t17 43q0 57 -65 57h-66z" />
    <glyph glyph-name="macron" unicode="&#xaf;" horiz-adv-x="350" 
d="M40 742h271v-108h-271v108z" />
    <glyph glyph-name="degree" unicode="&#xb0;" horiz-adv-x="365" 
d="M200 815q49 0 84 -34.5t35 -82.5t-35 -82.5t-84 -34.5q-48 0 -82.5 34.5t-34.5 82.5t34.5 82.5t82.5 34.5zM200 752q-23 0 -39.5 -16t-16.5 -38t16.5 -38t39.5 -16q24 0 41 16t17 38t-17 38t-41 16z" />
    <glyph glyph-name="plusminus" unicode="&#xb1;" horiz-adv-x="506" 
d="M302 448h171v-99h-171v-163h-98v163h-171v99h171v164h98v-164zM33 6v102h440v-102h-440z" />
    <glyph glyph-name="uni00B2" unicode="&#xb2;" horiz-adv-x="387" 
d="M189 586q42 42 42 70q0 36 -50 36q-53 0 -118 -53l-42 78q87 63 177 63q64 0 105.5 -30t41.5 -79q0 -61 -82 -138l-90 -89h185v-84h-324v70z" />
    <glyph glyph-name="uni00B3" unicode="&#xb3;" horiz-adv-x="362" 
d="M226 604q49 -7 78.5 -37t29.5 -77q0 -60 -45.5 -97.5t-120.5 -37.5q-97 0 -161 51l44 83q48 -53 108 -53q68 0 68 54q0 50 -68 50h-69v58l100 97h-162v79h286v-62l-109 -104z" />
    <glyph glyph-name="acute" unicode="&#xb4;" horiz-adv-x="350" 
d="M156 765l143 -53l-127 -110h-122z" />
    <glyph glyph-name="uni00B5" unicode="&#xb5;" horiz-adv-x="681" 
d="M453 538h153v-538h-153v95q-55 -101 -180 -101q-21 0 -40 3v-191h-154v732h154v-294q0 -51 27 -80t74 -29q55 1 87 39t32 98v266z" />
    <glyph glyph-name="paragraph" unicode="&#xb6;" horiz-adv-x="639" 
d="M221 333h-28q-56 0 -96.5 19.5t-61.5 51.5t-30 64t-9 65q0 88 58.5 148.5t178.5 60.5h328v-849h-115v758h-110v-758h-115v440z" />
    <glyph glyph-name="periodcentered" unicode="&#xb7;" horiz-adv-x="231" 
d="M115 365q32 0 53 -21.5t21 -55.5t-21 -56t-53 -22t-53.5 22t-21.5 56t21.5 55.5t53.5 21.5z" />
    <glyph glyph-name="cedilla" unicode="&#xb8;" horiz-adv-x="350" 
d="M212 -50q31 -8 49.5 -29.5t18.5 -51.5q0 -46 -33 -73.5t-85 -27.5q-50 0 -93 30l29 67q23 -20 52 -20q20 0 31.5 11t11.5 27t-12 26t-34 10q-12 0 -36 -4l46 99h87z" />
    <glyph glyph-name="uni00B9" unicode="&#xb9;" horiz-adv-x="270" 
d="M12 776h189v-416h-108v329h-81v87z" />
    <glyph glyph-name="ordmasculine" unicode="&#xba;" horiz-adv-x="411" 
d="M205 783q82 0 132 -45t50 -119t-50 -119t-132 -45t-131.5 45t-49.5 119t49.5 119t131.5 45zM205 698q-33 0 -54 -22.5t-21 -58.5t21 -58t54 -22q34 0 54.5 22t20.5 58q0 37 -20.5 59t-54.5 22z" />
    <glyph glyph-name="guillemotright" unicode="&#xbb;" horiz-adv-x="495" 
d="M174 83h-126l107 181l-107 182h126l119 -182zM382 83h-126l107 181l-107 182h126l119 -182z" />
    <glyph glyph-name="onequarter" unicode="&#xbc;" horiz-adv-x="859" 
d="M12 700h189v-416h-108v329h-81v87zM567 700h144l-504 -700h-146zM614 416h104l-131 -248h95v92h102v-92h59v-78h-59v-90h-102v90h-205v73z" />
    <glyph glyph-name="onehalf" unicode="&#xbd;" horiz-adv-x="882" 
d="M12 700h189v-416h-108v329h-81v87zM567 700h144l-504 -700h-146zM684 226q42 42 42 70q0 36 -50 36q-53 0 -118 -53l-42 78q87 63 177 63q64 0 105.5 -30t41.5 -79q0 -61 -82 -138l-90 -89h185v-84h-324v70z" />
    <glyph glyph-name="threequarters" unicode="&#xbe;" horiz-adv-x="920" 
d="M628 700h144l-504 -700h-146zM226 529q49 -7 78.5 -37t29.5 -77q0 -60 -45.5 -97.5t-120.5 -37.5q-97 0 -161 51l44 83q48 -53 108 -53q68 0 68 54q0 50 -68 50h-69v58l100 97h-162v79h286v-62l-109 -104zM675 416h104l-131 -248h95v92h102v-92h59v-78h-59v-90h-102v90
h-205v73z" />
    <glyph glyph-name="questiondown" unicode="&#xbf;" horiz-adv-x="462" 
d="M242 387q-34 0 -55.5 22t-21.5 57t21.5 57.5t55.5 22.5q33 0 55 -23t22 -57q0 -35 -22 -57t-55 -22zM459 56q-2 -104 -61 -162t-161 -58q-97 0 -153.5 45t-56.5 127q0 43 16 77t38.5 57.5t45.5 45.5t39 50.5t16 62.5h116q0 -43 -13.5 -77t-32 -55.5t-37.5 -40.5
t-32.5 -42.5t-13.5 -52.5q0 -70 82 -70q85 0 89 94z" />
    <glyph glyph-name="Agrave" unicode="&#xc0;" horiz-adv-x="764" 
d="M355 928l107 -163h-123l-127 110zM64 406q0 138 85.5 219.5t230.5 81.5q148 0 234 -81.5t86 -219.5v-406h-158v173h-320v-173h-158v406zM542 406q-1 75 -43.5 119t-116.5 44t-117 -44t-43 -119v-105h320v105z" />
    <glyph glyph-name="Aacute" unicode="&#xc1;" horiz-adv-x="764" 
d="M408 927l143 -53l-127 -110h-122zM64 406q0 138 85.5 219.5t230.5 81.5q148 0 234 -81.5t86 -219.5v-406h-158v173h-320v-173h-158v406zM542 406q-1 75 -43.5 119t-116.5 44t-117 -44t-43 -119v-105h320v105z" />
    <glyph glyph-name="Acircumflex" unicode="&#xc2;" horiz-adv-x="764" 
d="M318 921h128l109 -148h-113l-60 85l-60 -85h-113zM64 406q0 138 85.5 219.5t230.5 81.5q148 0 234 -81.5t86 -219.5v-406h-158v173h-320v-173h-158v406zM542 406q-1 75 -43.5 119t-116.5 44t-117 -44t-43 -119v-105h320v105z" />
    <glyph glyph-name="Atilde" unicode="&#xc3;" horiz-adv-x="764" 
d="M555 930q0 -149 -100 -149q-34 0 -69.5 24.5t-47.5 24.5q-33 0 -33 -45h-95q0 151 100 151q33 0 69.5 -25t47.5 -25q33 0 33 44h95zM64 406q0 138 85.5 219.5t230.5 81.5q148 0 234 -81.5t86 -219.5v-406h-158v173h-320v-173h-158v406zM542 406q-1 75 -43.5 119
t-116.5 44t-117 -44t-43 -119v-105h320v105z" />
    <glyph glyph-name="Adieresis" unicode="&#xc4;" horiz-adv-x="764" 
d="M289 925q31 0 51 -20.5t20 -53.5q0 -32 -20 -52.5t-51 -20.5t-51.5 20.5t-20.5 52.5q0 33 20 53.5t52 20.5zM477 925q31 0 51 -20.5t20 -53.5q0 -32 -20 -52.5t-51 -20.5t-51.5 20.5t-20.5 52.5q0 33 20 53.5t52 20.5zM64 406q0 138 85.5 219.5t230.5 81.5
q148 0 234 -81.5t86 -219.5v-406h-158v173h-320v-173h-158v406zM542 406q-1 75 -43.5 119t-116.5 44t-117 -44t-43 -119v-105h320v105z" />
    <glyph glyph-name="Aring" unicode="&#xc5;" horiz-adv-x="764" 
d="M382 974q49 0 84.5 -35t35.5 -84t-35 -84t-85 -35t-85 35t-35 84t35.5 84t84.5 35zM382 909q-24 0 -40.5 -15.5t-16.5 -38.5t16.5 -39t40.5 -16t41 16t17 39q0 22 -17 38t-41 16zM64 406q0 138 85.5 219.5t230.5 81.5q148 0 234 -81.5t86 -219.5v-406h-158v173h-320v-173
h-158v406zM542 406q-1 75 -43.5 119t-116.5 44t-117 -44t-43 -119v-105h320v105z" />
    <glyph glyph-name="AE" unicode="&#xc6;" horiz-adv-x="1085" 
d="M652 132h386v-132h-543v154h-250l-83 -154h-165l401 700h629v-131h-375v-152h338v-131h-338v-154zM310 274h185v300h-22z" />
    <glyph glyph-name="Ccedilla" unicode="&#xc7;" horiz-adv-x="694" 
d="M677 118q-100 -103 -239 -122l-23 -46q31 -8 49.5 -29.5t18.5 -51.5q0 -46 -33 -73.5t-85 -27.5q-50 0 -93 30l29 67q23 -20 52 -20q20 0 31.5 11t11.5 27t-12 26t-34 10q-12 0 -36 -4l37 80q-141 15 -232.5 115t-91.5 241q0 151 107 252.5t266 101.5q76 0 150 -31.5
t126 -84.5l-92 -112q-36 42 -85 66.5t-97 24.5q-90 0 -151.5 -62t-61.5 -153t61.5 -153.5t151.5 -62.5q47 0 95.5 22t86.5 60z" />
    <glyph glyph-name="Egrave" unicode="&#xc8;" horiz-adv-x="597" 
d="M303 928l107 -163h-123l-127 110zM318 296q-54 0 -88.5 -23.5t-34.5 -59.5q0 -39 38.5 -62t96.5 -23q48 0 103.5 16.5t87.5 36.5l60 -120q-47 -30 -120.5 -49t-145.5 -19q-124 0 -203.5 55t-79.5 143q0 61 40 110.5t106 68.5q-48 17 -78.5 59t-30.5 95q0 82 72.5 132.5
t188.5 50.5q60 0 123 -13.5t102 -35.5l-51 -120q-78 35 -159 35q-57 0 -92 -19t-35 -55q0 -32 28 -53.5t72 -21.5h156v-128h-156z" />
    <glyph glyph-name="Eacute" unicode="&#xc9;" horiz-adv-x="597" 
d="M356 927l143 -53l-127 -110h-122zM318 296q-54 0 -88.5 -23.5t-34.5 -59.5q0 -39 38.5 -62t96.5 -23q48 0 103.5 16.5t87.5 36.5l60 -120q-47 -30 -120.5 -49t-145.5 -19q-124 0 -203.5 55t-79.5 143q0 61 40 110.5t106 68.5q-48 17 -78.5 59t-30.5 95q0 82 72.5 132.5
t188.5 50.5q60 0 123 -13.5t102 -35.5l-51 -120q-78 35 -159 35q-57 0 -92 -19t-35 -55q0 -32 28 -53.5t72 -21.5h156v-128h-156z" />
    <glyph glyph-name="Ecircumflex" unicode="&#xca;" horiz-adv-x="597" 
d="M266 921h128l109 -148h-113l-60 85l-60 -85h-113zM318 296q-54 0 -88.5 -23.5t-34.5 -59.5q0 -39 38.5 -62t96.5 -23q48 0 103.5 16.5t87.5 36.5l60 -120q-47 -30 -120.5 -49t-145.5 -19q-124 0 -203.5 55t-79.5 143q0 61 40 110.5t106 68.5q-48 17 -78.5 59t-30.5 95
q0 82 72.5 132.5t188.5 50.5q60 0 123 -13.5t102 -35.5l-51 -120q-78 35 -159 35q-57 0 -92 -19t-35 -55q0 -32 28 -53.5t72 -21.5h156v-128h-156z" />
    <glyph glyph-name="Edieresis" unicode="&#xcb;" horiz-adv-x="597" 
d="M237 925q31 0 51 -20.5t20 -53.5q0 -32 -20 -52.5t-51 -20.5t-51.5 20.5t-20.5 52.5q0 33 20 53.5t52 20.5zM425 925q31 0 51 -20.5t20 -53.5q0 -32 -20 -52.5t-51 -20.5t-51.5 20.5t-20.5 52.5q0 33 20 53.5t52 20.5zM318 296q-54 0 -88.5 -23.5t-34.5 -59.5
q0 -39 38.5 -62t96.5 -23q48 0 103.5 16.5t87.5 36.5l60 -120q-47 -30 -120.5 -49t-145.5 -19q-124 0 -203.5 55t-79.5 143q0 61 40 110.5t106 68.5q-48 17 -78.5 59t-30.5 95q0 82 72.5 132.5t188.5 50.5q60 0 123 -13.5t102 -35.5l-51 -120q-78 35 -159 35q-57 0 -92 -19
t-35 -55q0 -32 28 -53.5t72 -21.5h156v-128h-156z" />
    <glyph glyph-name="Igrave" unicode="&#xcc;" horiz-adv-x="498" 
d="M329 765h-123l-127 110l143 53zM451 569h-123v-437h123v-132h-404v132h123v437h-123v131h404v-131z" />
    <glyph glyph-name="Iacute" unicode="&#xcd;" horiz-adv-x="498" 
d="M418 874l-127 -110h-122l106 163zM451 569h-123v-437h123v-132h-404v132h123v437h-123v131h404v-131z" />
    <glyph glyph-name="Icircumflex" unicode="&#xce;" horiz-adv-x="498" 
d="M249 858l-60 -85h-113l109 148h128l109 -148h-113zM451 569h-123v-437h123v-132h-404v132h123v437h-123v131h404v-131z" />
    <glyph glyph-name="Idieresis" unicode="&#xcf;" horiz-adv-x="498" 
d="M156 778q-31 0 -51.5 20.5t-20.5 52.5q0 33 20 53.5t52 20.5q31 0 51 -20.5t20 -53.5q0 -32 -20 -52.5t-51 -20.5zM344 778q-31 0 -51.5 20.5t-20.5 52.5q0 33 20 53.5t52 20.5q31 0 51 -20.5t20 -53.5q0 -32 -20 -52.5t-51 -20.5zM451 569h-123v-437h123v-132h-404v132
h123v437h-123v131h404v-131z" />
    <glyph glyph-name="Eth" unicode="&#xd0;" horiz-adv-x="797" 
d="M402 700q163 0 265.5 -97.5t102.5 -252.5t-104 -252.5t-270 -97.5h-291v307h-105v88h105v305h297zM406 133q88 0 145.5 60.5t57.5 155.5q0 96 -59.5 157t-150.5 61h-136v-172h172v-88h-172v-174h143z" />
    <glyph glyph-name="Ntilde" unicode="&#xd1;" 
d="M378 830q-33 0 -33 -45h-95q0 151 100 151q32 0 69 -25t48 -25q33 0 33 44h95q0 -149 -100 -149q-34 0 -69.5 24.5t-47.5 24.5zM461 700q108 0 174.5 -70.5t66.5 -185.5v-444h-160v406q0 65 -38.5 105.5t-101.5 40.5q-74 -1 -120.5 -50.5t-46.5 -124.5v-377h-158v700h158
v-115q76 113 226 115z" />
    <glyph glyph-name="Ograve" unicode="&#xd2;" horiz-adv-x="806" 
d="M369 928l107 -163h-123l-127 110zM403 705q161 0 268.5 -101.5t107.5 -253.5t-108 -254.5t-268 -102.5t-268 102.5t-108 254.5q0 153 107.5 254t268.5 101zM405 567q-89 0 -152.5 -63t-63.5 -154q0 -92 63.5 -155.5t152.5 -63.5q88 0 150 63.5t62 155.5t-62 154.5
t-150 62.5z" />
    <glyph glyph-name="Oacute" unicode="&#xd3;" horiz-adv-x="806" 
d="M422 927l143 -53l-127 -110h-122zM403 705q161 0 268.5 -101.5t107.5 -253.5t-108 -254.5t-268 -102.5t-268 102.5t-108 254.5q0 153 107.5 254t268.5 101zM405 567q-89 0 -152.5 -63t-63.5 -154q0 -92 63.5 -155.5t152.5 -63.5q88 0 150 63.5t62 155.5t-62 154.5
t-150 62.5z" />
    <glyph glyph-name="Ocircumflex" unicode="&#xd4;" horiz-adv-x="806" 
d="M332 921h128l109 -148h-113l-60 85l-60 -85h-113zM403 705q161 0 268.5 -101.5t107.5 -253.5t-108 -254.5t-268 -102.5t-268 102.5t-108 254.5q0 153 107.5 254t268.5 101zM405 567q-89 0 -152.5 -63t-63.5 -154q0 -92 63.5 -155.5t152.5 -63.5q88 0 150 63.5t62 155.5
t-62 154.5t-150 62.5z" />
    <glyph glyph-name="Otilde" unicode="&#xd5;" horiz-adv-x="806" 
d="M569 930q0 -149 -100 -149q-34 0 -69.5 24.5t-47.5 24.5q-33 0 -33 -45h-95q0 151 100 151q32 0 69 -25t48 -25q33 0 33 44h95zM403 705q161 0 268.5 -101.5t107.5 -253.5t-108 -254.5t-268 -102.5t-268 102.5t-108 254.5q0 153 107.5 254t268.5 101zM405 567
q-89 0 -152.5 -63t-63.5 -154q0 -92 63.5 -155.5t152.5 -63.5q88 0 150 63.5t62 155.5t-62 154.5t-150 62.5z" />
    <glyph glyph-name="Odieresis" unicode="&#xd6;" horiz-adv-x="806" 
d="M303 925q31 0 51 -20.5t20 -53.5q0 -32 -20 -52.5t-51 -20.5t-51.5 20.5t-20.5 52.5q0 33 20 53.5t52 20.5zM491 925q31 0 51 -20.5t20 -53.5q0 -32 -20 -52.5t-51 -20.5t-51.5 20.5t-20.5 52.5q0 33 20 53.5t52 20.5zM403 705q161 0 268.5 -101.5t107.5 -253.5
t-108 -254.5t-268 -102.5t-268 102.5t-108 254.5q0 153 107.5 254t268.5 101zM405 567q-89 0 -152.5 -63t-63.5 -154q0 -92 63.5 -155.5t152.5 -63.5q88 0 150 63.5t62 155.5t-62 154.5t-150 62.5z" />
    <glyph glyph-name="multiply" unicode="&#xd7;" horiz-adv-x="506" 
d="M443 446l-119 -120l119 -120l-70 -72l-120 121l-120 -121l-70 72l119 120l-119 120l70 72l120 -121l120 121z" />
    <glyph glyph-name="Oslash" unicode="&#xd8;" horiz-adv-x="806" 
d="M630 637q70 -49 109.5 -123.5t39.5 -163.5q0 -152 -108 -254.5t-268 -102.5q-87 0 -162 33l-52 -81h-89l75 118q-69 49 -108.5 123.5t-39.5 163.5q0 153 107.5 254t268.5 101q88 0 161 -32l52 82h90zM189 350q0 -94 68 -159l229 360q-40 16 -81 16q-89 0 -152.5 -63
t-63.5 -154zM405 131q88 0 150 63.5t62 155.5q0 96 -67 160l-231 -361q41 -18 86 -18z" />
    <glyph glyph-name="Ugrave" unicode="&#xd9;" 
d="M433 765h-123l-127 110l143 53zM531 700h158v-700h-158v115q-76 -113 -226 -115q-108 0 -174.5 70.5t-66.5 185.5v444h160v-406q0 -65 38.5 -105.5t101.5 -40.5q74 1 120.5 50.5t46.5 124.5v377z" />
    <glyph glyph-name="Uacute" unicode="&#xda;" 
d="M522 874l-127 -110h-122l106 163zM531 700h158v-700h-158v115q-76 -113 -226 -115q-108 0 -174.5 70.5t-66.5 185.5v444h160v-406q0 -65 38.5 -105.5t101.5 -40.5q74 1 120.5 50.5t46.5 124.5v377z" />
    <glyph glyph-name="Ucircumflex" unicode="&#xdb;" 
d="M353 858l-60 -85h-113l109 148h128l109 -148h-113zM531 700h158v-700h-158v115q-76 -113 -226 -115q-108 0 -174.5 70.5t-66.5 185.5v444h160v-406q0 -65 38.5 -105.5t101.5 -40.5q74 1 120.5 50.5t46.5 124.5v377z" />
    <glyph glyph-name="Udieresis" unicode="&#xdc;" 
d="M260 778q-31 0 -51.5 20.5t-20.5 52.5q0 33 20 53.5t52 20.5q31 0 51 -20.5t20 -53.5q0 -32 -20 -52.5t-51 -20.5zM448 778q-31 0 -51.5 20.5t-20.5 52.5q0 33 20 53.5t52 20.5q31 0 51 -20.5t20 -53.5q0 -32 -20 -52.5t-51 -20.5zM531 700h158v-700h-158v115
q-76 -113 -226 -115q-108 0 -174.5 70.5t-66.5 185.5v444h160v-406q0 -65 38.5 -105.5t101.5 -40.5q74 1 120.5 50.5t46.5 124.5v377z" />
    <glyph glyph-name="Yacute" unicode="&#xdd;" horiz-adv-x="741" 
d="M540 874l-127 -110h-122l106 163zM520 700h157v-519q0 -129 -86 -208.5t-226 -79.5q-83 0 -163 29t-130 77l67 110q39 -35 96 -56.5t110 -21.5q77 0 126 43t49 111v78q-70 -107 -203 -109q-113 0 -183 74t-70 192v280h158v-265q0 -62 39.5 -100.5t103.5 -38.5
q68 1 111.5 48t43.5 122v234z" />
    <glyph glyph-name="Thorn" unicode="&#xde;" horiz-adv-x="685" 
d="M366 606q139 0 217.5 -63t78.5 -176q0 -119 -78.5 -185.5t-217.5 -66.5h-131v-115h-158v700h158v-94h131zM359 241q69 0 105 31t36 90q0 57 -36 87.5t-105 30.5h-124v-239h124z" />
    <glyph glyph-name="germandbls" unicode="&#xdf;" horiz-adv-x="660" 
d="M65 491q0 118 71 188t194 70q112 0 181 -54t69 -144q0 -54 -28 -100t-75 -68q66 -17 105.5 -61.5t39.5 -108.5q0 -95 -74.5 -154t-198.5 -59h-50v114h47q59 0 92.5 27t33.5 72q0 47 -37.5 72t-104.5 25h-17v113q56 0 87 27.5t31 77.5q0 48 -27 74.5t-74 26.5
q-53 0 -82.5 -33.5t-29.5 -93.5v-502h-153v491z" />
    <glyph glyph-name="agrave" unicode="&#xe0;" horiz-adv-x="679" 
d="M420 603h-123l-127 110l143 53zM451 538h153v-538h-153v77q-60 -83 -169 -83q-115 0 -184.5 76t-69.5 201q0 122 68.5 197t180.5 76q113 0 174 -84v78zM318 118q54 0 90.5 36t42.5 95v36q-6 59 -42.5 95t-90.5 36q-60 0 -97.5 -41.5t-38.5 -107.5q1 -66 38.5 -107.5
t97.5 -41.5z" />
    <glyph glyph-name="aacute" unicode="&#xe1;" horiz-adv-x="679" 
d="M509 712l-127 -110h-122l106 163zM451 538h153v-538h-153v77q-60 -83 -169 -83q-115 0 -184.5 76t-69.5 201q0 122 68.5 197t180.5 76q113 0 174 -84v78zM318 118q54 0 90.5 36t42.5 95v36q-6 59 -42.5 95t-90.5 36q-60 0 -97.5 -41.5t-38.5 -107.5q1 -66 38.5 -107.5
t97.5 -41.5z" />
    <glyph glyph-name="acircumflex" unicode="&#xe2;" horiz-adv-x="679" 
d="M340 696l-60 -85h-113l109 148h128l109 -148h-113zM451 538h153v-538h-153v77q-60 -83 -169 -83q-115 0 -184.5 76t-69.5 201q0 122 68.5 197t180.5 76q113 0 174 -84v78zM318 118q54 0 90.5 36t42.5 95v36q-6 59 -42.5 95t-90.5 36q-60 0 -97.5 -41.5t-38.5 -107.5
q1 -66 38.5 -107.5t97.5 -41.5z" />
    <glyph glyph-name="atilde" unicode="&#xe3;" horiz-adv-x="679" 
d="M296 668q-33 0 -33 -45h-95q0 151 100 151q32 0 69 -25t48 -25q33 0 33 44h95q0 -149 -100 -149q-34 0 -69.5 24.5t-47.5 24.5zM451 538h153v-538h-153v77q-60 -83 -169 -83q-115 0 -184.5 76t-69.5 201q0 122 68.5 197t180.5 76q113 0 174 -84v78zM318 118q54 0 90.5 36
t42.5 95v36q-6 59 -42.5 95t-90.5 36q-60 0 -97.5 -41.5t-38.5 -107.5q1 -66 38.5 -107.5t97.5 -41.5z" />
    <glyph glyph-name="adieresis" unicode="&#xe4;" horiz-adv-x="679" 
d="M247 616q-31 0 -51.5 20.5t-20.5 52.5q0 33 20 53.5t52 20.5q31 0 51 -20.5t20 -53.5q0 -32 -20 -52.5t-51 -20.5zM435 616q-31 0 -51.5 20.5t-20.5 52.5q0 33 20 53.5t52 20.5q31 0 51 -20.5t20 -53.5q0 -32 -20 -52.5t-51 -20.5zM451 538h153v-538h-153v77
q-60 -83 -169 -83q-115 0 -184.5 76t-69.5 201q0 122 68.5 197t180.5 76q113 0 174 -84v78zM318 118q54 0 90.5 36t42.5 95v36q-6 59 -42.5 95t-90.5 36q-60 0 -97.5 -41.5t-38.5 -107.5q1 -66 38.5 -107.5t97.5 -41.5z" />
    <glyph glyph-name="aring" unicode="&#xe5;" horiz-adv-x="679" 
d="M340 574q-50 0 -85 35t-35 84t35.5 84t84.5 35t84.5 -35t35.5 -84t-35 -84t-85 -35zM340 747q-24 0 -40.5 -15.5t-16.5 -38.5t16.5 -39t40.5 -16t41 16t17 39q0 22 -17 38t-41 16zM451 538h153v-538h-153v77q-60 -83 -169 -83q-115 0 -184.5 76t-69.5 201q0 122 68.5 197
t180.5 76q113 0 174 -84v78zM318 118q54 0 90.5 36t42.5 95v36q-6 59 -42.5 95t-90.5 36q-60 0 -97.5 -41.5t-38.5 -107.5q1 -66 38.5 -107.5t97.5 -41.5z" />
    <glyph glyph-name="ae" unicode="&#xe6;" horiz-adv-x="961" 
d="M691 114q79 0 143 70l88 -80q-93 -110 -241 -110q-157 0 -231 114q-65 -115 -224 -115q-88 0 -141 46.5t-53 122.5t54 118t151 43h150l-1 14q-2 41 -31 63.5t-82 22.5q-75 0 -160 -47l-48 106q123 62 244 62q122 0 182 -65q70 64 187 64q114 0 183.5 -67.5t73.5 -183.5
l-370 -98q38 -80 126 -80zM677 429q-59 0 -93 -38.5t-37 -103.5l240 64q-26 78 -110 78zM387 181v51h-122q-89 0 -89 -61q0 -31 23 -49.5t62 -18.5q47 0 82 22t44 56z" />
    <glyph glyph-name="ccedilla" unicode="&#xe7;" horiz-adv-x="563" 
d="M541 113q-59 -99 -190 -116l-24 -47q31 -8 49.5 -29.5t18.5 -51.5q0 -46 -33 -73.5t-85 -27.5q-50 0 -93 30l29 67q23 -20 52 -20q20 0 31.5 11t11.5 27t-12 26t-34 10q-12 0 -36 -4l38 81q-107 12 -171.5 85.5t-64.5 185.5q0 124 76 200t200 76q158 0 233 -113l-104 -75
q-47 58 -123 57q-57 0 -92.5 -40t-35.5 -104q0 -65 36 -105.5t92 -40.5q84 0 125 63z" />
    <glyph glyph-name="egrave" unicode="&#xe8;" horiz-adv-x="590" 
d="M384 603h-123l-127 110l143 53zM325 114q81 0 143 70l88 -80q-93 -110 -242 -110q-128 0 -207 75.5t-79 198.5q0 122 75 198t201 77q117 1 189 -66t76 -182l-372 -98q37 -83 128 -83zM312 429q-58 0 -92 -36t-38 -104l236 64q-25 76 -106 76z" />
    <glyph glyph-name="eacute" unicode="&#xe9;" horiz-adv-x="590" 
d="M473 712l-127 -110h-122l106 163zM325 114q81 0 143 70l88 -80q-93 -110 -242 -110q-128 0 -207 75.5t-79 198.5q0 122 75 198t201 77q117 1 189 -66t76 -182l-372 -98q37 -83 128 -83zM312 429q-58 0 -92 -36t-38 -104l236 64q-25 76 -106 76z" />
    <glyph glyph-name="ecircumflex" unicode="&#xea;" horiz-adv-x="590" 
d="M304 696l-60 -85h-113l109 148h128l109 -148h-113zM325 114q81 0 143 70l88 -80q-93 -110 -242 -110q-128 0 -207 75.5t-79 198.5q0 122 75 198t201 77q117 1 189 -66t76 -182l-372 -98q37 -83 128 -83zM312 429q-58 0 -92 -36t-38 -104l236 64q-25 76 -106 76z" />
    <glyph glyph-name="edieresis" unicode="&#xeb;" horiz-adv-x="590" 
d="M211 616q-31 0 -51.5 20.5t-20.5 52.5q0 33 20 53.5t52 20.5q31 0 51 -20.5t20 -53.5q0 -32 -20 -52.5t-51 -20.5zM399 616q-31 0 -51.5 20.5t-20.5 52.5q0 33 20 53.5t52 20.5q31 0 51 -20.5t20 -53.5q0 -32 -20 -52.5t-51 -20.5zM325 114q81 0 143 70l88 -80
q-93 -110 -242 -110q-128 0 -207 75.5t-79 198.5q0 122 75 198t201 77q117 1 189 -66t76 -182l-372 -98q37 -83 128 -83zM312 429q-58 0 -92 -36t-38 -104l236 64q-25 76 -106 76z" />
    <glyph glyph-name="igrave" unicode="&#xec;" horiz-adv-x="302" 
d="M124 766l107 -163h-123l-127 110zM74 538h154v-538h-154v538z" />
    <glyph glyph-name="iacute" unicode="&#xed;" horiz-adv-x="302" 
d="M177 765l143 -53l-127 -110h-122zM74 538h154v-538h-154v538z" />
    <glyph glyph-name="icircumflex" unicode="&#xee;" horiz-adv-x="302" 
d="M87 759h128l109 -148h-113l-60 85l-60 -85h-113zM74 538h154v-538h-154v538z" />
    <glyph glyph-name="idieresis" unicode="&#xef;" horiz-adv-x="302" 
d="M58 763q31 0 51 -20.5t20 -53.5q0 -32 -20 -52.5t-51 -20.5t-51.5 20.5t-20.5 52.5q0 33 20 53.5t52 20.5zM246 763q31 0 51 -20.5t20 -53.5q0 -32 -20 -52.5t-51 -20.5t-51.5 20.5t-20.5 52.5q0 33 20 53.5t52 20.5zM74 538h154v-538h-154v538z" />
    <glyph glyph-name="eth" unicode="&#xf0;" horiz-adv-x="600" 
d="M438 595q134 -142 134 -316q0 -131 -78.5 -208.5t-210.5 -77.5q-117 0 -186.5 63t-69.5 169q0 100 62 160t165 60q52 0 97 -18t69 -48q-28 85 -117 171l-159 -54l-24 74l113 39q-59 42 -124 73l103 67q89 -37 160 -93l139 47l23 -75zM290 125q54 0 86 29t32 76
q0 49 -32 78.5t-86 29.5q-53 0 -84.5 -28.5t-31.5 -75.5q0 -49 31.5 -79t84.5 -30z" />
    <glyph glyph-name="ntilde" unicode="&#xf1;" horiz-adv-x="670" 
d="M307 668q-33 0 -33 -45h-95q0 151 100 151q33 0 69 -25t48 -25q33 0 33 44h95q0 -149 -100 -149q-34 0 -69.5 24.5t-47.5 24.5zM414 544q90 0 143.5 -56t53.5 -150v-338h-154v293q0 51 -28.5 80.5t-77.5 29.5q-57 -1 -90 -39.5t-33 -98.5v-265h-154v538h154v-94
q56 98 186 100z" />
    <glyph glyph-name="ograve" unicode="&#xf2;" horiz-adv-x="633" 
d="M290 765l107 -163h-123l-127 110zM317 543q129 0 208.5 -75t79.5 -199q0 -123 -79.5 -199t-208.5 -76q-130 0 -209.5 76t-79.5 199q0 124 79.5 199t209.5 75zM317 415q-60 0 -97.5 -41t-37.5 -107t37.5 -107t97.5 -41q59 0 96.5 41t37.5 107t-37.5 107t-96.5 41z" />
    <glyph glyph-name="oacute" unicode="&#xf3;" horiz-adv-x="633" 
d="M343 764l143 -53l-127 -110h-122zM317 543q129 0 208.5 -75t79.5 -199q0 -123 -79.5 -199t-208.5 -76q-130 0 -209.5 76t-79.5 199q0 124 79.5 199t209.5 75zM317 415q-60 0 -97.5 -41t-37.5 -107t37.5 -107t97.5 -41q59 0 96.5 41t37.5 107t-37.5 107t-96.5 41z" />
    <glyph glyph-name="ocircumflex" unicode="&#xf4;" horiz-adv-x="633" 
d="M253 758h128l109 -148h-113l-60 85l-60 -85h-113zM317 543q129 0 208.5 -75t79.5 -199q0 -123 -79.5 -199t-208.5 -76q-130 0 -209.5 76t-79.5 199q0 124 79.5 199t209.5 75zM317 415q-60 0 -97.5 -41t-37.5 -107t37.5 -107t97.5 -41q59 0 96.5 41t37.5 107t-37.5 107
t-96.5 41z" />
    <glyph glyph-name="otilde" unicode="&#xf5;" horiz-adv-x="633" 
d="M490 767q0 -149 -100 -149q-34 0 -69.5 24.5t-47.5 24.5q-33 0 -33 -45h-95q0 151 100 151q33 0 69 -25t48 -25q33 0 33 44h95zM317 543q129 0 208.5 -75t79.5 -199q0 -123 -79.5 -199t-208.5 -76q-130 0 -209.5 76t-79.5 199q0 124 79.5 199t209.5 75zM317 415
q-60 0 -97.5 -41t-37.5 -107t37.5 -107t97.5 -41q59 0 96.5 41t37.5 107t-37.5 107t-96.5 41z" />
    <glyph glyph-name="odieresis" unicode="&#xf6;" horiz-adv-x="633" 
d="M224 762q31 0 51 -20.5t20 -53.5q0 -32 -20 -52.5t-51 -20.5t-51.5 20.5t-20.5 52.5q0 33 20 53.5t52 20.5zM412 762q31 0 51 -20.5t20 -53.5q0 -32 -20 -52.5t-51 -20.5t-51.5 20.5t-20.5 52.5q0 33 20 53.5t52 20.5zM317 543q129 0 208.5 -75t79.5 -199
q0 -123 -79.5 -199t-208.5 -76q-130 0 -209.5 76t-79.5 199q0 124 79.5 199t209.5 75zM317 415q-60 0 -97.5 -41t-37.5 -107t37.5 -107t97.5 -41q59 0 96.5 41t37.5 107t-37.5 107t-96.5 41z" />
    <glyph glyph-name="divide" unicode="&#xf7;" horiz-adv-x="506" 
d="M246 576q29 0 47 -19t18 -48t-18 -48t-47 -19q-28 0 -46.5 19t-18.5 48t18.5 48t46.5 19zM33 377h440v-102h-440v102zM246 219q29 0 47 -19t18 -48t-18 -48t-47 -19q-28 0 -46.5 19t-18.5 48t18.5 48t46.5 19z" />
    <glyph glyph-name="oslash" unicode="&#xf8;" horiz-adv-x="633" 
d="M471 507q63 -33 98.5 -95t35.5 -143q0 -123 -79.5 -199t-208.5 -76q-52 0 -99 14l-49 -97h-64l60 118q-65 34 -101 96.5t-36 143.5q0 124 79.5 199t209.5 75q52 0 100 -14l49 98h65zM173 267q0 -80 48 -125l141 279q-20 7 -45 7q-65 0 -104.5 -44t-39.5 -117zM317 106
q64 0 104 44.5t40 116.5q0 81 -49 125l-141 -279q20 -7 46 -7z" />
    <glyph glyph-name="ugrave" unicode="&#xf9;" horiz-adv-x="660" 
d="M402 603h-123l-127 110l143 53zM432 538h153v-538h-153v95q-55 -101 -180 -101q-89 0 -141.5 55.5t-52.5 150.5v338h154v-294q0 -51 27 -80t74 -29q55 1 87 39t32 98v266z" />
    <glyph glyph-name="uacute" unicode="&#xfa;" horiz-adv-x="660" 
d="M491 712l-127 -110h-122l106 163zM432 538h153v-538h-153v95q-55 -101 -180 -101q-89 0 -141.5 55.5t-52.5 150.5v338h154v-294q0 -51 27 -80t74 -29q55 1 87 39t32 98v266z" />
    <glyph glyph-name="ucircumflex" unicode="&#xfb;" horiz-adv-x="660" 
d="M322 696l-60 -85h-113l109 148h128l109 -148h-113zM432 538h153v-538h-153v95q-55 -101 -180 -101q-89 0 -141.5 55.5t-52.5 150.5v338h154v-294q0 -51 27 -80t74 -29q55 1 87 39t32 98v266z" />
    <glyph glyph-name="udieresis" unicode="&#xfc;" horiz-adv-x="660" 
d="M229 616q-31 0 -51.5 20.5t-20.5 52.5q0 33 20 53.5t52 20.5q31 0 51 -20.5t20 -53.5q0 -32 -20 -52.5t-51 -20.5zM417 616q-31 0 -51.5 20.5t-20.5 52.5q0 33 20 53.5t52 20.5q31 0 51 -20.5t20 -53.5q0 -32 -20 -52.5t-51 -20.5zM432 538h153v-538h-153v95
q-55 -101 -180 -101q-89 0 -141.5 55.5t-52.5 150.5v338h154v-294q0 -51 27 -80t74 -29q55 1 87 39t32 98v266z" />
    <glyph glyph-name="yacute" unicode="&#xfd;" horiz-adv-x="661" 
d="M496 712l-127 -110h-122l106 163zM441 538h153v-482q0 -115 -77 -186t-202 -70q-60 1 -126 21.5t-110 53.5l38 109q86 -57 181 -59q65 0 104 36.5t39 97.5v78q-55 -91 -175 -93q-96 0 -152 56t-56 151v287h154v-242q0 -51 28.5 -80.5t77.5 -29.5q58 1 90.5 39t32.5 104
v209z" />
    <glyph glyph-name="thorn" unicode="&#xfe;" horiz-adv-x="684" 
d="M233 461q59 82 170 82q113 0 183 -76.5t70 -200.5q0 -122 -68.5 -197t-181.5 -75t-173 83v-271h-154v936h154v-281zM367 419q-59 0 -96.5 -41.5t-37.5 -106.5q0 -67 37.5 -108t96.5 -41t96 41.5t37 107.5q0 65 -37 106.5t-96 41.5z" />
    <glyph glyph-name="ydieresis" unicode="&#xff;" horiz-adv-x="661" 
d="M234 616q-31 0 -51.5 20.5t-20.5 52.5q0 33 20 53.5t52 20.5q31 0 51 -20.5t20 -53.5q0 -32 -20 -52.5t-51 -20.5zM422 616q-31 0 -51.5 20.5t-20.5 52.5q0 33 20 53.5t52 20.5q31 0 51 -20.5t20 -53.5q0 -32 -20 -52.5t-51 -20.5zM441 538h153v-482q0 -115 -77 -186
t-202 -70q-60 1 -126 21.5t-110 53.5l38 109q86 -57 181 -59q65 0 104 36.5t39 97.5v78q-55 -91 -175 -93q-96 0 -152 56t-56 151v287h154v-242q0 -51 28.5 -80.5t77.5 -29.5q58 1 90.5 39t32.5 104v209z" />
    <glyph glyph-name="Amacron" unicode="&#x100;" horiz-adv-x="764" 
d="M247 905h271v-108h-271v108zM64 406q0 138 85.5 219.5t230.5 81.5q148 0 234 -81.5t86 -219.5v-406h-158v173h-320v-173h-158v406zM542 406q-1 75 -43.5 119t-116.5 44t-117 -44t-43 -119v-105h320v105z" />
    <glyph glyph-name="amacron" unicode="&#x101;" horiz-adv-x="679" 
d="M476 743v-108h-271v108h271zM451 538h153v-538h-153v77q-60 -83 -169 -83q-115 0 -184.5 76t-69.5 201q0 122 68.5 197t180.5 76q113 0 174 -84v78zM318 118q54 0 90.5 36t42.5 95v36q-6 59 -42.5 95t-90.5 36q-60 0 -97.5 -41.5t-38.5 -107.5q1 -66 38.5 -107.5
t97.5 -41.5z" />
    <glyph glyph-name="Abreve" unicode="&#x102;" horiz-adv-x="764" 
d="M324 919q1 -27 17.5 -43.5t40.5 -16.5t40.5 16.5t17.5 43.5h98q-3 -70 -45.5 -112t-110.5 -42t-110.5 42t-45.5 112h98zM64 406q0 138 85.5 219.5t230.5 81.5q148 0 234 -81.5t86 -219.5v-406h-158v173h-320v-173h-158v406zM542 406q-1 75 -43.5 119t-116.5 44t-117 -44
t-43 -119v-105h320v105z" />
    <glyph glyph-name="abreve" unicode="&#x103;" horiz-adv-x="679" 
d="M340 603q-68 0 -110.5 42t-45.5 112h98q1 -27 17.5 -43.5t40.5 -16.5t40.5 16.5t17.5 43.5h98q-3 -70 -45.5 -112t-110.5 -42zM451 538h153v-538h-153v77q-60 -83 -169 -83q-115 0 -184.5 76t-69.5 201q0 122 68.5 197t180.5 76q113 0 174 -84v78zM318 118q54 0 90.5 36
t42.5 95v36q-6 59 -42.5 95t-90.5 36q-60 0 -97.5 -41.5t-38.5 -107.5q1 -66 38.5 -107.5t97.5 -41.5z" />
    <glyph glyph-name="Aogonek" unicode="&#x104;" horiz-adv-x="769" 
d="M64 406q0 138 85.5 219.5t230.5 81.5q148 0 234 -81.5t86 -219.5v-406h-38q-45 -63 -45 -96q0 -25 24 -25q22 0 45 31l41 -48q-38 -64 -104 -64q-35 0 -60 20t-25 61q0 51 49 121h-45v173h-320v-173h-158v406zM542 406q-1 75 -43.5 119t-116.5 44t-117 -44t-43 -119v-105
h320v105z" />
    <glyph glyph-name="aogonek" unicode="&#x105;" horiz-adv-x="679" 
d="M591 -90l41 -48q-38 -64 -104 -64q-35 0 -60 20t-25 61q0 53 48 121h-40v77q-60 -83 -169 -83q-115 0 -184.5 76t-69.5 201q0 122 68.5 197t180.5 76q113 0 174 -84v78h153v-538h-38q-44 -64 -44 -96q0 -25 24 -25t45 31zM318 118q54 0 90.5 36t42.5 95v36
q-6 59 -42.5 95t-90.5 36q-60 0 -97.5 -41.5t-38.5 -107.5q1 -66 38.5 -107.5t97.5 -41.5z" />
    <glyph glyph-name="Cacute" unicode="&#x106;" horiz-adv-x="694" 
d="M406 927l143 -53l-127 -110h-122zM584 477q-36 42 -85 66.5t-97 24.5q-90 0 -151.5 -62t-61.5 -153t61.5 -153.5t151.5 -62.5q47 0 95.5 22t86.5 60l93 -101q-56 -58 -131.5 -91.5t-151.5 -33.5q-157 0 -262 103t-105 255q0 151 107 252.5t266 101.5q76 0 150 -31.5
t126 -84.5z" />
    <glyph glyph-name="cacute" unicode="&#x107;" horiz-adv-x="563" 
d="M328 765l143 -53l-127 -110h-122zM433 355q-47 58 -123 57q-57 0 -92.5 -40t-35.5 -104q0 -65 36 -105.5t92 -40.5q84 0 125 63l106 -72q-34 -57 -95.5 -88t-143.5 -31q-122 0 -198 75.5t-76 197.5q0 124 76 200t200 76q158 0 233 -113z" />
    <glyph glyph-name="Ccircumflex" unicode="&#x108;" horiz-adv-x="694" 
d="M316 921h128l109 -148h-113l-60 85l-60 -85h-113zM584 477q-36 42 -85 66.5t-97 24.5q-90 0 -151.5 -62t-61.5 -153t61.5 -153.5t151.5 -62.5q47 0 95.5 22t86.5 60l93 -101q-56 -58 -131.5 -91.5t-151.5 -33.5q-157 0 -262 103t-105 255q0 151 107 252.5t266 101.5
q76 0 150 -31.5t126 -84.5z" />
    <glyph glyph-name="ccircumflex" unicode="&#x109;" horiz-adv-x="563" 
d="M238 759h128l109 -148h-113l-60 85l-60 -85h-113zM433 355q-47 58 -123 57q-57 0 -92.5 -40t-35.5 -104q0 -65 36 -105.5t92 -40.5q84 0 125 63l106 -72q-34 -57 -95.5 -88t-143.5 -31q-122 0 -198 75.5t-76 197.5q0 124 76 200t200 76q158 0 233 -113z" />
    <glyph glyph-name="Cdotaccent" unicode="&#x10a;" horiz-adv-x="694" 
d="M380 930q33 0 54 -21.5t21 -55.5q0 -33 -21 -55t-54 -22t-54 22t-21 55q0 34 21 55.5t54 21.5zM584 477q-36 42 -85 66.5t-97 24.5q-90 0 -151.5 -62t-61.5 -153t61.5 -153.5t151.5 -62.5q47 0 95.5 22t86.5 60l93 -101q-56 -58 -131.5 -91.5t-151.5 -33.5
q-157 0 -262 103t-105 255q0 151 107 252.5t266 101.5q76 0 150 -31.5t126 -84.5z" />
    <glyph glyph-name="cdotaccent" unicode="&#x10b;" horiz-adv-x="563" 
d="M302 768q33 0 54 -21.5t21 -55.5q0 -33 -21 -55t-54 -22t-54 22t-21 55q0 34 21 55.5t54 21.5zM433 355q-47 58 -123 57q-57 0 -92.5 -40t-35.5 -104q0 -65 36 -105.5t92 -40.5q84 0 125 63l106 -72q-34 -57 -95.5 -88t-143.5 -31q-122 0 -198 75.5t-76 197.5
q0 124 76 200t200 76q158 0 233 -113z" />
    <glyph glyph-name="Ccaron" unicode="&#x10c;" horiz-adv-x="694" 
d="M190 921h124l62 -92l62 92h124l-117 -160h-138zM584 477q-36 42 -85 66.5t-97 24.5q-90 0 -151.5 -62t-61.5 -153t61.5 -153.5t151.5 -62.5q47 0 95.5 22t86.5 60l93 -101q-56 -58 -131.5 -91.5t-151.5 -33.5q-157 0 -262 103t-105 255q0 151 107 252.5t266 101.5
q76 0 150 -31.5t126 -84.5z" />
    <glyph glyph-name="ccaron" unicode="&#x10d;" horiz-adv-x="563" 
d="M112 759h124l62 -92l62 92h124l-117 -160h-138zM433 355q-47 58 -123 57q-57 0 -92.5 -40t-35.5 -104q0 -65 36 -105.5t92 -40.5q84 0 125 63l106 -72q-34 -57 -95.5 -88t-143.5 -31q-122 0 -198 75.5t-76 197.5q0 124 76 200t200 76q158 0 233 -113z" />
    <glyph glyph-name="Dcaron" unicode="&#x10e;" horiz-adv-x="769" 
d="M171 921h124l62 -92l62 92h124l-117 -160h-138zM374 700q163 0 265.5 -97.5t102.5 -252.5t-104 -252.5t-270 -97.5h-291v700h297zM378 133q88 0 145.5 60.5t57.5 155.5q0 96 -59.5 157t-150.5 61h-136v-434h143z" />
    <glyph glyph-name="dcaron" unicode="&#x10f;" horiz-adv-x="789" 
d="M452 459v283h153v-742h-153v79q-59 -85 -170 -85q-115 0 -184.5 76t-69.5 201q0 123 68.5 198t181.5 75q114 0 174 -85zM677 742h126l-30 -212h-96v212zM318 118q59 0 96.5 41.5t37.5 107.5t-37.5 107.5t-96.5 41.5q-60 0 -97.5 -41.5t-38.5 -107.5q1 -66 38.5 -107.5
t97.5 -41.5z" />
    <glyph glyph-name="Dcroat" unicode="&#x110;" horiz-adv-x="797" 
d="M402 700q163 0 265.5 -97.5t102.5 -252.5t-104 -252.5t-270 -97.5h-291v307h-105v88h105v305h297zM406 133q88 0 145.5 60.5t57.5 155.5q0 96 -59.5 157t-150.5 61h-136v-172h172v-88h-172v-174h143z" />
    <glyph glyph-name="dcroat" unicode="&#x111;" horiz-adv-x="688" 
d="M672 684v-84h-67v-600h-153v79q-59 -85 -170 -85q-115 0 -184.5 76t-69.5 201q0 123 68.5 198t181.5 75q114 0 174 -85v141h-90v84h90v58h153v-58h67zM318 118q59 0 96.5 41.5t37.5 107.5t-37.5 107.5t-96.5 41.5q-60 0 -97.5 -41.5t-38.5 -107.5q1 -66 38.5 -107.5
t97.5 -41.5z" />
    <glyph glyph-name="Emacron" unicode="&#x112;" horiz-adv-x="597" 
d="M195 905h271v-108h-271v108zM318 296q-54 0 -88.5 -23.5t-34.5 -59.5q0 -39 38.5 -62t96.5 -23q48 0 103.5 16.5t87.5 36.5l60 -120q-47 -30 -120.5 -49t-145.5 -19q-124 0 -203.5 55t-79.5 143q0 61 40 110.5t106 68.5q-48 17 -78.5 59t-30.5 95q0 82 72.5 132.5
t188.5 50.5q60 0 123 -13.5t102 -35.5l-51 -120q-78 35 -159 35q-57 0 -92 -19t-35 -55q0 -32 28 -53.5t72 -21.5h156v-128h-156z" />
    <glyph glyph-name="emacron" unicode="&#x113;" horiz-adv-x="590" 
d="M440 743v-108h-271v108h271zM325 114q81 0 143 70l88 -80q-93 -110 -242 -110q-128 0 -207 75.5t-79 198.5q0 122 75 198t201 77q117 1 189 -66t76 -182l-372 -98q37 -83 128 -83zM312 429q-58 0 -92 -36t-38 -104l236 64q-25 76 -106 76z" />
    <glyph glyph-name="Ebreve" unicode="&#x114;" horiz-adv-x="597" 
d="M272 919q1 -27 17.5 -43.5t40.5 -16.5t40.5 16.5t17.5 43.5h98q-3 -70 -45.5 -112t-110.5 -42t-110.5 42t-45.5 112h98zM318 296q-54 0 -88.5 -23.5t-34.5 -59.5q0 -39 38.5 -62t96.5 -23q48 0 103.5 16.5t87.5 36.5l60 -120q-47 -30 -120.5 -49t-145.5 -19
q-124 0 -203.5 55t-79.5 143q0 61 40 110.5t106 68.5q-48 17 -78.5 59t-30.5 95q0 82 72.5 132.5t188.5 50.5q60 0 123 -13.5t102 -35.5l-51 -120q-78 35 -159 35q-57 0 -92 -19t-35 -55q0 -32 28 -53.5t72 -21.5h156v-128h-156z" />
    <glyph glyph-name="ebreve" unicode="&#x115;" horiz-adv-x="590" 
d="M304 603q-68 0 -110.5 42t-45.5 112h98q1 -27 17.5 -43.5t40.5 -16.5t40.5 16.5t17.5 43.5h98q-3 -70 -45.5 -112t-110.5 -42zM325 114q81 0 143 70l88 -80q-93 -110 -242 -110q-128 0 -207 75.5t-79 198.5q0 122 75 198t201 77q117 1 189 -66t76 -182l-372 -98
q37 -83 128 -83zM312 429q-58 0 -92 -36t-38 -104l236 64q-25 76 -106 76z" />
    <glyph glyph-name="Edotaccent" unicode="&#x116;" horiz-adv-x="597" 
d="M330 930q33 0 54 -21.5t21 -55.5q0 -33 -21 -55t-54 -22t-54 22t-21 55q0 34 21 55.5t54 21.5zM318 296q-54 0 -88.5 -23.5t-34.5 -59.5q0 -39 38.5 -62t96.5 -23q48 0 103.5 16.5t87.5 36.5l60 -120q-47 -30 -120.5 -49t-145.5 -19q-124 0 -203.5 55t-79.5 143
q0 61 40 110.5t106 68.5q-48 17 -78.5 59t-30.5 95q0 82 72.5 132.5t188.5 50.5q60 0 123 -13.5t102 -35.5l-51 -120q-78 35 -159 35q-57 0 -92 -19t-35 -55q0 -32 28 -53.5t72 -21.5h156v-128h-156z" />
    <glyph glyph-name="edotaccent" unicode="&#x117;" horiz-adv-x="590" 
d="M304 614q-33 0 -54 22t-21 55q0 34 21 55.5t54 21.5t54 -21.5t21 -55.5q0 -33 -21 -55t-54 -22zM325 114q81 0 143 70l88 -80q-93 -110 -242 -110q-128 0 -207 75.5t-79 198.5q0 122 75 198t201 77q117 1 189 -66t76 -182l-372 -98q37 -83 128 -83zM312 429
q-58 0 -92 -36t-38 -104l236 64q-25 76 -106 76z" />
    <glyph glyph-name="Eogonek" unicode="&#x118;" horiz-adv-x="601" 
d="M455 -121q24 0 45 31l41 -48q-38 -64 -104 -64q-35 0 -60 20t-25 61q0 49 47 120q-39 -6 -80 -6q-124 0 -203 55t-79 143q0 61 40 110.5t106 68.5q-49 17 -79 59t-30 95q0 82 72.5 132.5t188.5 50.5q59 0 122.5 -13.5t102.5 -35.5l-51 -120q-78 35 -160 35q-56 0 -91 -19
t-35 -55q0 -32 27.5 -53.5t71.5 -21.5h157v-128h-157q-53 0 -87.5 -23.5t-34.5 -59.5q0 -39 38.5 -62t96.5 -23q48 0 103.5 16.5t87.5 36.5l60 -120q-42 -26 -96 -42q-59 -77 -59 -115q0 -25 24 -25z" />
    <glyph glyph-name="eogonek" unicode="&#x119;" horiz-adv-x="605" 
d="M461 -121q23 0 44 31l41 -48q-38 -64 -103 -64q-35 0 -60 20t-25 61q0 63 58 141q-50 -26 -102 -26q-128 0 -207 75.5t-79 198.5q0 122 75 198t201 77q117 1 189 -66t76 -182l-372 -98q37 -83 128 -83q81 0 139 58l80 -84q-107 -124 -107 -184q0 -25 24 -25zM312 429
q-58 0 -92 -36t-38 -104l236 64q-25 76 -106 76z" />
    <glyph glyph-name="Ecaron" unicode="&#x11a;" horiz-adv-x="597" 
d="M140 921h124l62 -92l62 92h124l-117 -160h-138zM318 296q-54 0 -88.5 -23.5t-34.5 -59.5q0 -39 38.5 -62t96.5 -23q48 0 103.5 16.5t87.5 36.5l60 -120q-47 -30 -120.5 -49t-145.5 -19q-124 0 -203.5 55t-79.5 143q0 61 40 110.5t106 68.5q-48 17 -78.5 59t-30.5 95
q0 82 72.5 132.5t188.5 50.5q60 0 123 -13.5t102 -35.5l-51 -120q-78 35 -159 35q-57 0 -92 -19t-35 -55q0 -32 28 -53.5t72 -21.5h156v-128h-156z" />
    <glyph glyph-name="ecaron" unicode="&#x11b;" horiz-adv-x="590" 
d="M369 599h-138l-117 160h124l62 -92l62 92h124zM325 114q81 0 143 70l88 -80q-93 -110 -242 -110q-128 0 -207 75.5t-79 198.5q0 122 75 198t201 77q117 1 189 -66t76 -182l-372 -98q37 -83 128 -83zM312 429q-58 0 -92 -36t-38 -104l236 64q-25 76 -106 76z" />
    <glyph glyph-name="Gcircumflex" unicode="&#x11c;" horiz-adv-x="746" 
d="M387 858l-60 -85h-113l109 148h128l109 -148h-113zM547 198v163h137v-361h-117v58q-88 -65 -184 -65q-152 0 -254 102.5t-102 254.5q0 151 109 253t271 102q77 0 153.5 -27.5t130.5 -74.5l-90 -113q-39 36 -90 57t-102 21q-93 0 -156.5 -63t-63.5 -155q0 -93 61 -156
t151 -63q87 0 146 67z" />
    <glyph glyph-name="gcircumflex" unicode="&#x11d;" horiz-adv-x="645" 
d="M322 696l-60 -85h-113l109 148h128l109 -148h-113zM425 538h153v-488q0 -114 -78.5 -182t-208.5 -68q-129 0 -234 71l57 108q76 -54 167 -54q66 0 105 32.5t39 87.5v61q-56 -78 -162 -78q-105 0 -170 71.5t-65 188.5q0 114 64 184.5t167 70.5q107 1 166 -78v73zM299 145
q56 0 91 38.5t35 100.5t-35 101t-91 39t-91 -39t-36 -101q1 -62 35.5 -100.5t91.5 -38.5z" />
    <glyph glyph-name="Gbreve" unicode="&#x11e;" horiz-adv-x="746" 
d="M387 765q-68 0 -110.5 42t-45.5 112h98q1 -27 17.5 -43.5t40.5 -16.5t40.5 16.5t17.5 43.5h98q-3 -70 -45.5 -112t-110.5 -42zM547 198v163h137v-361h-117v58q-88 -65 -184 -65q-152 0 -254 102.5t-102 254.5q0 151 109 253t271 102q77 0 153.5 -27.5t130.5 -74.5
l-90 -113q-39 36 -90 57t-102 21q-93 0 -156.5 -63t-63.5 -155q0 -93 61 -156t151 -63q87 0 146 67z" />
    <glyph glyph-name="gbreve" unicode="&#x11f;" horiz-adv-x="645" 
d="M322 603q-68 0 -110.5 42t-45.5 112h98q1 -27 17.5 -43.5t40.5 -16.5t40.5 16.5t17.5 43.5h98q-3 -70 -45.5 -112t-110.5 -42zM425 538h153v-488q0 -114 -78.5 -182t-208.5 -68q-129 0 -234 71l57 108q76 -54 167 -54q66 0 105 32.5t39 87.5v61q-56 -78 -162 -78
q-105 0 -170 71.5t-65 188.5q0 114 64 184.5t167 70.5q107 1 166 -78v73zM299 145q56 0 91 38.5t35 100.5t-35 101t-91 39t-91 -39t-36 -101q1 -62 35.5 -100.5t91.5 -38.5z" />
    <glyph glyph-name="Gdotaccent" unicode="&#x120;" horiz-adv-x="746" 
d="M387 776q-33 0 -54 22t-21 55q0 34 21 55.5t54 21.5t54 -21.5t21 -55.5q0 -33 -21 -55t-54 -22zM547 198v163h137v-361h-117v58q-88 -65 -184 -65q-152 0 -254 102.5t-102 254.5q0 151 109 253t271 102q77 0 153.5 -27.5t130.5 -74.5l-90 -113q-39 36 -90 57t-102 21
q-93 0 -156.5 -63t-63.5 -155q0 -93 61 -156t151 -63q87 0 146 67z" />
    <glyph glyph-name="gdotaccent" unicode="&#x121;" horiz-adv-x="645" 
d="M322 614q-33 0 -54 22t-21 55q0 34 21 55.5t54 21.5t54 -21.5t21 -55.5q0 -33 -21 -55t-54 -22zM425 538h153v-488q0 -114 -78.5 -182t-208.5 -68q-129 0 -234 71l57 108q76 -54 167 -54q66 0 105 32.5t39 87.5v61q-56 -78 -162 -78q-105 0 -170 71.5t-65 188.5
q0 114 64 184.5t167 70.5q107 1 166 -78v73zM299 145q56 0 91 38.5t35 100.5t-35 101t-91 39t-91 -39t-36 -101q1 -62 35.5 -100.5t91.5 -38.5z" />
    <glyph glyph-name="Gcommaaccent" unicode="&#x122;" horiz-adv-x="746" 
d="M547 198v163h137v-361h-117v58q-88 -65 -184 -65q-152 0 -254 102.5t-102 254.5q0 151 109 253t271 102q77 0 153.5 -27.5t130.5 -74.5l-90 -113q-39 36 -90 57t-102 21q-93 0 -156.5 -63t-63.5 -155q0 -93 61 -156t151 -63q87 0 146 67zM385 -50q29 0 49 -19t20 -51
q0 -29 -20 -57l-62 -92h-68l39 93q-28 19 -28 56q0 30 19.5 50t50.5 20z" />
    <glyph glyph-name="gcommaaccent" unicode="&#x123;" horiz-adv-x="645" 
d="M322 580q-29 0 -49 19t-20 51q0 29 20 57l62 92h69l-39 -93q26 -18 28 -56q0 -30 -20 -50t-51 -20zM425 538h153v-488q0 -114 -78.5 -182t-208.5 -68q-129 0 -234 71l57 108q76 -54 167 -54q66 0 105 32.5t39 87.5v61q-56 -78 -162 -78q-105 0 -170 71.5t-65 188.5
q0 114 64 184.5t167 70.5q107 1 166 -78v73zM299 145q56 0 91 38.5t35 100.5t-35 101t-91 39t-91 -39t-36 -101q1 -62 35.5 -100.5t91.5 -38.5z" />
    <glyph glyph-name="Hcircumflex" unicode="&#x124;" horiz-adv-x="787" 
d="M337 921h128l109 -148h-113l-60 85l-60 -85h-113zM77 700h158v-292h317v292h158v-700h-158v276h-317v-276h-158v700z" />
    <glyph glyph-name="hcircumflex" unicode="&#x125;" horiz-adv-x="675" 
d="M153 900l-60 -85h-113l109 148h128l109 -148h-113zM419 544q91 0 144.5 -56t53.5 -150v-338h-154v293q0 51 -28.5 80.5t-77.5 29.5q-57 -1 -90.5 -39.5t-33.5 -98.5v-265h-154v742h154v-299q56 99 186 101z" />
    <glyph glyph-name="Hbar" unicode="&#x126;" horiz-adv-x="862" 
d="M834 609v-96h-87v-513h-158v276h-317v-276h-158v513h-86v96h86v91h158v-91h317v91h158v-91h87zM589 408v105h-317v-105h317z" />
    <glyph glyph-name="hbar" unicode="&#x127;" horiz-adv-x="675" 
d="M419 544q91 0 144.5 -56t53.5 -150v-338h-154v293q0 51 -28.5 80.5t-77.5 29.5q-57 -1 -90.5 -39.5t-33.5 -98.5v-265h-154v580h-81v87h81v75h154v-75h126v-87h-126v-137q56 99 186 101z" />
    <glyph glyph-name="Itilde" unicode="&#x128;" horiz-adv-x="498" 
d="M205 830q-33 0 -33 -45h-95q0 151 100 151q33 0 69 -25t48 -25q33 0 33 44h95q0 -149 -100 -149q-34 0 -69.5 24.5t-47.5 24.5zM451 569h-123v-437h123v-132h-404v132h123v437h-123v131h404v-131z" />
    <glyph glyph-name="itilde" unicode="&#x129;" horiz-adv-x="302" 
d="M324 768q0 -149 -100 -149q-34 0 -69.5 24.5t-47.5 24.5q-33 0 -33 -45h-95q0 151 100 151q32 0 68.5 -25t48.5 -25q33 0 33 44h95zM74 538h154v-538h-154v538z" />
    <glyph glyph-name="Imacron" unicode="&#x12a;" horiz-adv-x="498" 
d="M385 905v-108h-271v108h271zM451 569h-123v-437h123v-132h-404v132h123v437h-123v131h404v-131z" />
    <glyph glyph-name="imacron" unicode="&#x12b;" horiz-adv-x="302" 
d="M16 743h271v-108h-271v108zM74 538h154v-538h-154v538z" />
    <glyph glyph-name="Ibreve" unicode="&#x12c;" horiz-adv-x="498" 
d="M249 765q-68 0 -110.5 42t-45.5 112h98q1 -27 17.5 -43.5t40.5 -16.5t40.5 16.5t17.5 43.5h98q-3 -70 -45.5 -112t-110.5 -42zM451 569h-123v-437h123v-132h-404v132h123v437h-123v131h404v-131z" />
    <glyph glyph-name="ibreve" unicode="&#x12d;" horiz-adv-x="302" 
d="M93 757q1 -27 17.5 -43.5t40.5 -16.5t40.5 16.5t17.5 43.5h98q-3 -70 -45.5 -112t-110.5 -42t-110.5 42t-45.5 112h98zM74 538h154v-538h-154v538z" />
    <glyph glyph-name="Iogonek" unicode="&#x12e;" horiz-adv-x="498" 
d="M451 569h-123v-437h123v-132h-69q-44 -64 -44 -96q0 -25 24 -25t45 31l41 -48q-38 -64 -104 -64q-35 0 -60 20t-25 61q0 53 48 121h-260v132h123v437h-123v131h404v-131z" />
    <glyph glyph-name="iogonek" unicode="&#x12f;" horiz-adv-x="283" 
d="M142 777q37 0 60.5 -24t23.5 -62t-23.5 -62t-60.5 -24q-36 0 -59.5 24.5t-23.5 61.5q0 38 23.5 62t59.5 24zM184 0q-45 -63 -45 -96q0 -25 24 -25t45 31l41 -48q-38 -64 -104 -64q-35 0 -60 20t-25 61q0 51 49 121h-43v538h153v-538h-35z" />
    <glyph glyph-name="Idotaccent" unicode="&#x130;" horiz-adv-x="498" 
d="M249 776q-33 0 -54 22t-21 55q0 34 21 55.5t54 21.5t54 -21.5t21 -55.5q0 -33 -21 -55t-54 -22zM451 569h-123v-437h123v-132h-404v132h123v437h-123v131h404v-131z" />
    <glyph glyph-name="dotlessi" unicode="&#x131;" horiz-adv-x="302" 
d="M74 538h154v-538h-154v538z" />
    <glyph glyph-name="IJ" unicode="&#x132;" horiz-adv-x="1022" 
d="M451 700v-131h-123v-437h123v-132h-404v132h123v437h-123v131h404zM558 700h400v-576q0 -109 -62.5 -170t-172.5 -61q-136 0 -229 109l73 112q73 -78 148 -78q40 0 62 24t22 68v438h-241v134z" />
    <glyph glyph-name="ij" unicode="&#x133;" horiz-adv-x="610" 
d="M454 777q40 0 64.5 -24t24.5 -62t-24.5 -62t-64.5 -24q-38 0 -63.5 24.5t-25.5 61.5q0 38 25 62t64 24zM151 768q33 0 54 -21.5t21 -55.5q0 -33 -21 -55t-54 -22t-54 22t-21 55q0 34 21 55.5t54 21.5zM74 538h154v-538h-154v538zM531 -16q0 -88 -54 -136.5t-134 -48.5
q-72 0 -127 36l42 113q32 -21 63 -21q57 0 57 63v548h153v-554z" />
    <glyph glyph-name="Jcircumflex" unicode="&#x134;" horiz-adv-x="524" 
d="M202 921h128l109 -148h-113l-60 85l-60 -85h-113zM460 124q0 -109 -62.5 -170t-172.5 -61q-136 0 -229 109l73 112q73 -78 148 -78q40 0 62 24t22 68v438h-241v134h400v-576z" />
    <glyph glyph-name="jcircumflex" unicode="&#x135;" horiz-adv-x="297" 
d="M83 759h128l109 -148h-113l-60 85l-60 -85h-113zM229 -21q0 -85 -48.5 -132.5t-133.5 -46.5q-79 2 -137 35l36 110q31 -18 67 -20q31 -1 47 19t16 58v536h153v-559z" />
    <glyph glyph-name="Kcommaaccent" unicode="&#x136;" horiz-adv-x="737" 
d="M446 408l281 -408h-190l-201 285l-101 -112v-173h-158v700h158v-318l291 318h183zM360 -50q29 0 49 -19t20 -51q0 -29 -20 -57l-62 -92h-68l39 93q-28 19 -28 56q0 30 19.5 50t50.5 20z" />
    <glyph glyph-name="kcommaaccent" unicode="&#x137;" horiz-adv-x="619" 
d="M408 330l206 -330h-182l-130 219l-69 -73v-146h-154v742h154v-408l197 203h175zM325 -50q29 0 49 -19t20 -51q0 -29 -20 -57l-62 -92h-68l39 93q-28 19 -28 56q0 30 19.5 50t50.5 20z" />
    <glyph glyph-name="kgreenlandic" unicode="&#x138;" horiz-adv-x="613" 
d="M426 0l-130 220l-68 -72v-148h-154v538h154v-202l196 202h175l-198 -207l207 -331h-182z" />
    <glyph glyph-name="Lacute" unicode="&#x139;" horiz-adv-x="552" 
d="M181 927l143 -53l-127 -110h-122zM77 700h158v-562h300v-138h-458v700z" />
    <glyph glyph-name="lacute" unicode="&#x13a;" horiz-adv-x="332" 
d="M168 969l143 -53l-127 -110h-122zM218 188q0 -58 48 -58q20 0 52 15l15 -128q-51 -24 -102 -24q-72 0 -119 47.5t-47 137.5v564h153v-554z" />
    <glyph glyph-name="Lcommaaccent" unicode="&#x13b;" horiz-adv-x="552" 
d="M235 138h300v-138h-458v700h158v-562zM306 -50q29 0 49 -19t20 -51q0 -29 -20 -57l-62 -92h-68l39 93q-28 19 -28 56q0 30 19.5 50t50.5 20z" />
    <glyph glyph-name="lcommaaccent" unicode="&#x13c;" horiz-adv-x="332" 
d="M231 -7q-72 0 -119 47.5t-47 137.5v564h153v-554q0 -58 48 -58q20 0 52 15l15 -128q-51 -24 -102 -24zM167 -50q29 0 49 -19t20 -51q0 -29 -20 -57l-62 -92h-68l39 93q-28 19 -28 56q0 30 19.5 50t50.5 20z" />
    <glyph glyph-name="Lcaron" unicode="&#x13d;" horiz-adv-x="552" 
d="M77 700h158v-562h300v-138h-458v700zM409 700h126l-30 -212h-96v212z" />
    <glyph glyph-name="lcaron" unicode="&#x13e;" horiz-adv-x="417" 
d="M218 188q0 -58 48 -58q20 0 52 15l15 -128q-51 -24 -102 -24q-72 0 -119 47.5t-47 137.5v564h153v-554zM289 742h126l-30 -212h-96v212z" />
    <glyph glyph-name="Ldot" unicode="&#x13f;" horiz-adv-x="552" 
d="M77 700h158v-562h300v-138h-458v700zM432 484q32 0 53 -21.5t21 -55.5t-21 -56t-53 -22t-53.5 22t-21.5 56t21.5 55.5t53.5 21.5z" />
    <glyph glyph-name="ldot" unicode="&#x140;" horiz-adv-x="403" 
d="M218 188q0 -58 48 -58q20 0 52 15l15 -128q-51 -24 -102 -24q-72 0 -119 47.5t-47 137.5v564h153v-554zM323 474q32 0 53 -21.5t21 -55.5t-21 -56t-53 -22t-53.5 22t-21.5 56t21.5 55.5t53.5 21.5z" />
    <glyph glyph-name="Lslash" unicode="&#x141;" horiz-adv-x="559" 
d="M243 138h300v-138h-458v340l-97 -28v105l97 29v254h158v-208l181 54v-107l-181 -53v-248z" />
    <glyph glyph-name="lslash" unicode="&#x142;" horiz-adv-x="333" 
d="M351 437l-121 -35v-214q0 -58 48 -58q20 0 52 15l15 -128q-51 -24 -102 -24q-72 0 -119 47.5t-47 137.5v180l-92 -27v105l92 27v279h153v-234l121 35v-106z" />
    <glyph glyph-name="Nacute" unicode="&#x143;" 
d="M591 874l-127 -110h-122l106 163zM461 700q108 0 174.5 -70.5t66.5 -185.5v-444h-160v406q0 65 -38.5 105.5t-101.5 40.5q-74 -1 -120.5 -50.5t-46.5 -124.5v-377h-158v700h158v-115q76 113 226 115z" />
    <glyph glyph-name="nacute" unicode="&#x144;" horiz-adv-x="670" 
d="M520 712l-127 -110h-122l106 163zM414 544q90 0 143.5 -56t53.5 -150v-338h-154v293q0 51 -28.5 80.5t-77.5 29.5q-57 -1 -90 -39.5t-33 -98.5v-265h-154v538h154v-94q56 98 186 100z" />
    <glyph glyph-name="Ncommaaccent" unicode="&#x145;" 
d="M461 700q108 0 174.5 -70.5t66.5 -185.5v-444h-160v406q0 65 -38.5 105.5t-101.5 40.5q-74 -1 -120.5 -50.5t-46.5 -124.5v-377h-158v700h158v-115q76 113 226 115zM387 -50q29 0 49 -19t20 -51q0 -29 -20 -57l-62 -92h-68l39 93q-28 19 -28 56q0 30 19.5 50t50.5 20z
" />
    <glyph glyph-name="ncommaaccent" unicode="&#x146;" horiz-adv-x="670" 
d="M414 544q90 0 143.5 -56t53.5 -150v-338h-154v293q0 51 -28.5 80.5t-77.5 29.5q-57 -1 -90 -39.5t-33 -98.5v-265h-154v538h154v-94q56 98 186 100zM340 -50q29 0 49 -19t20 -51q0 -29 -20 -57l-62 -92h-68l39 93q-28 19 -28 56q0 30 19.5 50t50.5 20z" />
    <glyph glyph-name="Ncaron" unicode="&#x147;" 
d="M487 761h-138l-117 160h124l62 -92l62 92h124zM461 700q108 0 174.5 -70.5t66.5 -185.5v-444h-160v406q0 65 -38.5 105.5t-101.5 40.5q-74 -1 -120.5 -50.5t-46.5 -124.5v-377h-158v700h158v-115q76 113 226 115z" />
    <glyph glyph-name="ncaron" unicode="&#x148;" horiz-adv-x="670" 
d="M416 599h-138l-117 160h124l62 -92l62 92h124zM414 544q90 0 143.5 -56t53.5 -150v-338h-154v293q0 51 -28.5 80.5t-77.5 29.5q-57 -1 -90 -39.5t-33 -98.5v-265h-154v538h154v-94q56 98 186 100z" />
    <glyph glyph-name="napostrophe" unicode="&#x149;" horiz-adv-x="803" 
d="M107 752q29 0 49 -19t20 -51q0 -29 -20 -57l-62 -92h-68l39 93q-28 19 -28 56q0 30 19.5 50t50.5 20zM548 544q90 0 143.5 -56t53.5 -150v-338h-154v293q0 51 -28.5 80.5t-77.5 29.5q-57 -1 -90 -39.5t-33 -98.5v-265h-154v538h154v-94q56 98 186 100z" />
    <glyph glyph-name="Eng" unicode="&#x14a;" horiz-adv-x="767" 
d="M461 700q108 0 174.5 -70.5t66.5 -185.5v-444q-2 -99 -65.5 -155.5t-168.5 -56.5q-110 0 -186 64l61 122q59 -43 118 -43q38 0 59.5 22.5t21.5 63.5v389q0 65 -38.5 105.5t-101.5 40.5q-74 -1 -120.5 -50.5t-46.5 -124.5v-377h-158v700h158v-115q76 113 226 115z" />
    <glyph glyph-name="eng" unicode="&#x14b;" horiz-adv-x="670" 
d="M414 544q90 0 143.5 -56t53.5 -150v-356q0 -86 -54 -134.5t-135 -48.5q-72 0 -127 36l42 113q34 -21 64 -21q25 0 40.5 15.5t15.5 47.5v303q0 51 -28.5 80.5t-77.5 29.5q-57 -1 -90 -39.5t-33 -98.5v-265h-154v538h154v-94q56 98 186 100z" />
    <glyph glyph-name="Omacron" unicode="&#x14c;" horiz-adv-x="806" 
d="M261 905h271v-108h-271v108zM403 705q161 0 268.5 -101.5t107.5 -253.5t-108 -254.5t-268 -102.5t-268 102.5t-108 254.5q0 153 107.5 254t268.5 101zM405 567q-89 0 -152.5 -63t-63.5 -154q0 -92 63.5 -155.5t152.5 -63.5q88 0 150 63.5t62 155.5t-62 154.5t-150 62.5z
" />
    <glyph glyph-name="omacron" unicode="&#x14d;" horiz-adv-x="633" 
d="M182 742h271v-108h-271v108zM317 543q129 0 208.5 -75t79.5 -199q0 -123 -79.5 -199t-208.5 -76q-130 0 -209.5 76t-79.5 199q0 124 79.5 199t209.5 75zM317 415q-60 0 -97.5 -41t-37.5 -107t37.5 -107t97.5 -41q59 0 96.5 41t37.5 107t-37.5 107t-96.5 41z" />
    <glyph glyph-name="Obreve" unicode="&#x14e;" horiz-adv-x="806" 
d="M338 919q1 -27 17.5 -43.5t40.5 -16.5t40.5 16.5t17.5 43.5h98q-3 -70 -45.5 -112t-110.5 -42t-110.5 42t-45.5 112h98zM403 705q161 0 268.5 -101.5t107.5 -253.5t-108 -254.5t-268 -102.5t-268 102.5t-108 254.5q0 153 107.5 254t268.5 101zM405 567q-89 0 -152.5 -63
t-63.5 -154q0 -92 63.5 -155.5t152.5 -63.5q88 0 150 63.5t62 155.5t-62 154.5t-150 62.5z" />
    <glyph glyph-name="obreve" unicode="&#x14f;" horiz-adv-x="633" 
d="M259 756q1 -27 17.5 -43.5t40.5 -16.5t40.5 16.5t17.5 43.5h98q-3 -70 -45.5 -112t-110.5 -42t-110.5 42t-45.5 112h98zM317 543q129 0 208.5 -75t79.5 -199q0 -123 -79.5 -199t-208.5 -76q-130 0 -209.5 76t-79.5 199q0 124 79.5 199t209.5 75zM317 415q-60 0 -97.5 -41
t-37.5 -107t37.5 -107t97.5 -41q59 0 96.5 41t37.5 107t-37.5 107t-96.5 41z" />
    <glyph glyph-name="Ohungarumlaut" unicode="&#x150;" horiz-adv-x="806" 
d="M316 930l120 -47l-91 -120h-114zM500 930l121 -47l-91 -120h-114zM403 705q161 0 268.5 -101.5t107.5 -253.5t-108 -254.5t-268 -102.5t-268 102.5t-108 254.5q0 153 107.5 254t268.5 101zM405 567q-89 0 -152.5 -63t-63.5 -154q0 -92 63.5 -155.5t152.5 -63.5
q88 0 150 63.5t62 155.5t-62 154.5t-150 62.5z" />
    <glyph glyph-name="ohungarumlaut" unicode="&#x151;" horiz-adv-x="633" 
d="M237 767l120 -47l-91 -120h-114zM421 767l121 -47l-91 -120h-114zM317 543q129 0 208.5 -75t79.5 -199q0 -123 -79.5 -199t-208.5 -76q-130 0 -209.5 76t-79.5 199q0 124 79.5 199t209.5 75zM317 415q-60 0 -97.5 -41t-37.5 -107t37.5 -107t97.5 -41q59 0 96.5 41
t37.5 107t-37.5 107t-96.5 41z" />
    <glyph glyph-name="OE" unicode="&#x152;" horiz-adv-x="1108" 
d="M675 132h386v-132h-659q-159 0 -267 100t-108 250q0 149 107.5 249.5t267.5 100.5h648v-131h-375v-152h337v-131h-337v-154zM403 134l114 1v429h-114q-91 0 -152.5 -61.5t-61.5 -153.5t61.5 -153.5t152.5 -61.5z" />
    <glyph glyph-name="oe" unicode="&#x153;" horiz-adv-x="1013" 
d="M748 114q81 0 143 70l88 -80q-93 -110 -241 -110q-142 0 -212 102q-69 -102 -209 -102q-130 0 -209.5 76t-79.5 199q0 124 79.5 199t209.5 75q140 0 208 -100q67 99 203 100q117 1 188.5 -66t75.5 -182l-372 -98q37 -83 128 -83zM735 429q-58 0 -92 -36t-38 -104l236 64
q-25 76 -106 76zM317 119q59 0 96.5 41t37.5 107t-37.5 107t-96.5 41q-60 0 -97.5 -41t-37.5 -107t37.5 -107t97.5 -41z" />
    <glyph glyph-name="Racute" unicode="&#x154;" horiz-adv-x="724" 
d="M530 874l-127 -110h-122l106 163zM686 0h-179l-111 200h-15h-146v-200h-158v700h304q137 0 212 -63.5t75 -179.5q0 -164 -131 -226zM235 569v-237h146q66 0 101.5 30.5t35.5 89.5q0 58 -35.5 87.5t-101.5 29.5h-146z" />
    <glyph glyph-name="racute" unicode="&#x155;" horiz-adv-x="416" 
d="M410 712l-127 -110h-122l106 163zM228 441q57 101 178 103v-145q-81 7 -129.5 -32t-48.5 -108v-259h-154v538h154v-97z" />
    <glyph glyph-name="Rcommaaccent" unicode="&#x156;" horiz-adv-x="724" 
d="M537 231l149 -231h-179l-111 200h-15h-146v-200h-158v700h304q137 0 212 -63.5t75 -179.5q0 -164 -131 -226zM235 569v-237h146q66 0 101.5 30.5t35.5 89.5q0 58 -35.5 87.5t-101.5 29.5h-146zM360 -50q29 0 49 -19t20 -51q0 -29 -20 -57l-62 -92h-68l39 93
q-28 19 -28 56q0 30 19.5 50t50.5 20z" />
    <glyph glyph-name="rcommaaccent" unicode="&#x157;" horiz-adv-x="416" 
d="M228 441q57 101 178 103v-145q-81 7 -129.5 -32t-48.5 -108v-259h-154v538h154v-97zM150 -50q29 0 49 -19t20 -51q0 -29 -20 -57l-62 -92h-68l39 93q-28 19 -28 56q0 30 19.5 50t50.5 20z" />
    <glyph glyph-name="Rcaron" unicode="&#x158;" horiz-adv-x="724" 
d="M426 761h-138l-117 160h124l62 -92l62 92h124zM686 0h-179l-111 200h-15h-146v-200h-158v700h304q137 0 212 -63.5t75 -179.5q0 -164 -131 -226zM235 569v-237h146q66 0 101.5 30.5t35.5 89.5q0 58 -35.5 87.5t-101.5 29.5h-146z" />
    <glyph glyph-name="rcaron" unicode="&#x159;" horiz-adv-x="416" 
d="M306 599h-138l-117 160h124l62 -92l62 92h124zM228 441q57 101 178 103v-145q-81 7 -129.5 -32t-48.5 -108v-259h-154v538h154v-97z" />
    <glyph glyph-name="Sacute" unicode="&#x15a;" horiz-adv-x="637" 
d="M359 927l143 -53l-127 -110h-122zM538 500q-55 33 -115 52.5t-103 19.5q-41 0 -65 -14.5t-24 -42.5q0 -30 27.5 -50.5t69 -31t90 -27t89.5 -37t68.5 -62.5t27.5 -101q0 -100 -77 -155.5t-197 -55.5q-85 0 -167 30t-142 81l63 129q53 -47 122.5 -76t125.5 -29
q49 0 76.5 17.5t27.5 49.5q0 30 -27.5 51t-69 31t-90 26t-90 35.5t-69 60.5t-27.5 99q0 95 74.5 151t196.5 56q150 0 266 -76z" />
    <glyph glyph-name="sacute" unicode="&#x15b;" horiz-adv-x="499" 
d="M284 765l143 -53l-127 -110h-122zM413 380q-93 52 -164 52q-62 0 -62 -40q0 -22 29 -36t71 -25.5t83.5 -28t70.5 -52t29 -88.5q0 -80 -62 -124t-157 -44q-140 0 -233 75l50 104q87 -67 187 -67q68 0 68 42q0 23 -28.5 38t-69.5 26t-82.5 27t-70 51t-28.5 87q0 80 60 124
t152 44q115 0 210 -60z" />
    <glyph glyph-name="Scircumflex" unicode="&#x15c;" horiz-adv-x="637" 
d="M269 921h128l109 -148h-113l-60 85l-60 -85h-113zM538 500q-55 33 -115 52.5t-103 19.5q-41 0 -65 -14.5t-24 -42.5q0 -30 27.5 -50.5t69 -31t90 -27t89.5 -37t68.5 -62.5t27.5 -101q0 -100 -77 -155.5t-197 -55.5q-85 0 -167 30t-142 81l63 129q53 -47 122.5 -76
t125.5 -29q49 0 76.5 17.5t27.5 49.5q0 30 -27.5 51t-69 31t-90 26t-90 35.5t-69 60.5t-27.5 99q0 95 74.5 151t196.5 56q150 0 266 -76z" />
    <glyph glyph-name="scircumflex" unicode="&#x15d;" horiz-adv-x="499" 
d="M194 759h128l109 -148h-113l-60 85l-60 -85h-113zM413 380q-93 52 -164 52q-62 0 -62 -40q0 -22 29 -36t71 -25.5t83.5 -28t70.5 -52t29 -88.5q0 -80 -62 -124t-157 -44q-140 0 -233 75l50 104q87 -67 187 -67q68 0 68 42q0 23 -28.5 38t-69.5 26t-82.5 27t-70 51
t-28.5 87q0 80 60 124t152 44q115 0 210 -60z" />
    <glyph glyph-name="Scedilla" unicode="&#x15e;" horiz-adv-x="637" 
d="M231 515q0 -30 27.5 -50.5t69 -31t90 -27t89.5 -37t68.5 -62.5t27.5 -101q0 -87 -59 -141t-157 -66l-24 -49q31 -8 49.5 -29.5t18.5 -51.5q0 -46 -33 -73.5t-85 -27.5q-50 0 -93 30l29 67q23 -20 52 -20q20 0 31.5 11t11.5 27t-12 26t-34 10q-12 0 -36 -4l38 81
q-163 11 -280 110l63 129q53 -47 122.5 -76t125.5 -29q49 0 76.5 17.5t27.5 49.5q0 30 -27.5 51t-69 31t-90 26t-90 35.5t-69 60.5t-27.5 99q0 95 74.5 151t196.5 56q150 0 266 -76l-61 -131q-55 33 -115 52.5t-103 19.5q-41 0 -65 -14.5t-24 -42.5z" />
    <glyph glyph-name="scedilla" unicode="&#x15f;" horiz-adv-x="499" 
d="M187 392q0 -22 29 -36t71 -25.5t83.5 -28t70.5 -52t29 -88.5q0 -67 -44 -109t-117 -54l-24 -49q31 -8 49.5 -29.5t18.5 -51.5q0 -46 -33 -73.5t-85 -27.5q-50 0 -93 30l29 67q23 -20 52 -20q20 0 31.5 11t11.5 27t-12 26t-34 10q-12 0 -36 -4l37 80q-120 8 -203 74
l50 104q87 -67 187 -67q68 0 68 42q0 23 -28.5 38t-69.5 26t-82.5 27t-70 51t-28.5 87q0 80 60 124t152 44q115 0 210 -60l-53 -105q-93 52 -164 52q-62 0 -62 -40z" />
    <glyph glyph-name="Scaron" unicode="&#x160;" horiz-adv-x="637" 
d="M143 921h124l62 -92l62 92h124l-117 -160h-138zM538 500q-55 33 -115 52.5t-103 19.5q-41 0 -65 -14.5t-24 -42.5q0 -30 27.5 -50.5t69 -31t90 -27t89.5 -37t68.5 -62.5t27.5 -101q0 -100 -77 -155.5t-197 -55.5q-85 0 -167 30t-142 81l63 129q53 -47 122.5 -76
t125.5 -29q49 0 76.5 17.5t27.5 49.5q0 30 -27.5 51t-69 31t-90 26t-90 35.5t-69 60.5t-27.5 99q0 95 74.5 151t196.5 56q150 0 266 -76z" />
    <glyph glyph-name="scaron" unicode="&#x161;" horiz-adv-x="499" 
d="M68 759h124l62 -92l62 92h124l-117 -160h-138zM413 380q-93 52 -164 52q-62 0 -62 -40q0 -22 29 -36t71 -25.5t83.5 -28t70.5 -52t29 -88.5q0 -80 -62 -124t-157 -44q-140 0 -233 75l50 104q87 -67 187 -67q68 0 68 42q0 23 -28.5 38t-69.5 26t-82.5 27t-70 51t-28.5 87
q0 80 60 124t152 44q115 0 210 -60z" />
    <glyph glyph-name="uni0162" unicode="&#x162;" horiz-adv-x="674" 
d="M413 0h-17l-25 -50q31 -8 49.5 -29.5t18.5 -51.5q0 -46 -33 -73.5t-85 -27.5q-50 0 -93 30l29 67q23 -20 52 -20q20 0 31.5 11t11.5 27t-12 26t-34 10q-12 0 -36 -4l39 85h-54v561q-101 -14 -187 -59l-47 128q139 77 312 77q172 0 313 -78l-47 -127q-85 44 -186 59v-561z
" />
    <glyph glyph-name="uni0163" unicode="&#x163;" horiz-adv-x="390" 
d="M261 -50q31 -8 49.5 -29.5t18.5 -51.5q0 -46 -33 -73.5t-85 -27.5q-50 0 -93 30l29 67q23 -20 52 -20q20 0 31.5 11t11.5 27t-12 26t-34 10q-12 0 -36 -4l38 81q-62 11 -99 56.5t-37 118.5v491h153v-148h147v-107h-147v-210q0 -74 55 -74q32 0 69 20l32 -113
q-40 -23 -86 -32z" />
    <glyph glyph-name="Tcaron" unicode="&#x164;" horiz-adv-x="674" 
d="M402 761h-138l-117 160h124l62 -92l62 92h124zM646 629l-47 -127q-85 44 -186 59v-561h-158v561q-101 -14 -187 -59l-47 128q139 77 312 77q172 0 313 -78z" />
    <glyph glyph-name="tcaron" unicode="&#x165;" horiz-adv-x="401" 
d="M395 742l-26 -172h-96v172h122zM270 123q32 0 69 20l32 -113q-64 -37 -137 -37q-76 0 -124 47t-48 131v491h153v-148h147v-107h-147v-210q0 -74 55 -74z" />
    <glyph glyph-name="Tbar" unicode="&#x166;" horiz-adv-x="674" 
d="M599 503q-86 45 -186 58v-179h148v-107h-148v-275h-159v275h-147v107h147v179q-98 -13 -186 -58l-47 127q139 77 312 77q172 0 313 -78z" />
    <glyph glyph-name="tbar" unicode="&#x167;" horiz-adv-x="390" 
d="M339 143l32 -113q-64 -37 -137 -37q-76 0 -124 47t-48 131v491h153v-148h146v-96h-146v-79h146v-96h-146v-46q0 -38 14 -56.5t40 -17.5q28 0 70 20z" />
    <glyph glyph-name="Utilde" unicode="&#x168;" 
d="M309 830q-33 0 -33 -45h-95q0 151 100 151q33 0 69.5 -25t47.5 -25q33 0 33 44h95q0 -149 -100 -149q-34 0 -69.5 24.5t-47.5 24.5zM531 700h158v-700h-158v115q-76 -113 -226 -115q-108 0 -174.5 70.5t-66.5 185.5v444h160v-406q0 -65 38.5 -105.5t101.5 -40.5
q74 1 120.5 50.5t46.5 124.5v377z" />
    <glyph glyph-name="utilde" unicode="&#x169;" horiz-adv-x="660" 
d="M278 668q-33 0 -33 -45h-95q0 151 100 151q32 0 69 -25t48 -25q33 0 33 44h95q0 -149 -100 -149q-34 0 -69.5 24.5t-47.5 24.5zM432 538h153v-538h-153v95q-55 -101 -180 -101q-89 0 -141.5 55.5t-52.5 150.5v338h154v-294q0 -51 27 -80t74 -29q55 1 87 39t32 98v266z
" />
    <glyph glyph-name="Umacron" unicode="&#x16a;" 
d="M489 905v-108h-271v108h271zM531 700h158v-700h-158v115q-76 -113 -226 -115q-108 0 -174.5 70.5t-66.5 185.5v444h160v-406q0 -65 38.5 -105.5t101.5 -40.5q74 1 120.5 50.5t46.5 124.5v377z" />
    <glyph glyph-name="umacron" unicode="&#x16b;" horiz-adv-x="660" 
d="M458 743v-108h-271v108h271zM432 538h153v-538h-153v95q-55 -101 -180 -101q-89 0 -141.5 55.5t-52.5 150.5v338h154v-294q0 -51 27 -80t74 -29q55 1 87 39t32 98v266z" />
    <glyph glyph-name="Ubreve" unicode="&#x16c;" 
d="M353 765q-68 0 -110.5 42t-45.5 112h98q1 -27 17.5 -43.5t40.5 -16.5t40.5 16.5t17.5 43.5h98q-3 -70 -45.5 -112t-110.5 -42zM531 700h158v-700h-158v115q-76 -113 -226 -115q-108 0 -174.5 70.5t-66.5 185.5v444h160v-406q0 -65 38.5 -105.5t101.5 -40.5
q74 1 120.5 50.5t46.5 124.5v377z" />
    <glyph glyph-name="ubreve" unicode="&#x16d;" horiz-adv-x="660" 
d="M322 603q-68 0 -110.5 42t-45.5 112h98q1 -27 17.5 -43.5t40.5 -16.5t40.5 16.5t17.5 43.5h98q-3 -70 -45.5 -112t-110.5 -42zM432 538h153v-538h-153v95q-55 -101 -180 -101q-89 0 -141.5 55.5t-52.5 150.5v338h154v-294q0 -51 27 -80t74 -29q55 1 87 39t32 98v266z" />
    <glyph glyph-name="Uring" unicode="&#x16e;" 
d="M353 736q-50 0 -85 35t-35 84t35.5 84t84.5 35t84.5 -35t35.5 -84t-35 -84t-85 -35zM353 909q-24 0 -40.5 -15.5t-16.5 -38.5t16.5 -39t40.5 -16t41 16t17 39q0 22 -17 38t-41 16zM531 700h158v-700h-158v115q-76 -113 -226 -115q-108 0 -174.5 70.5t-66.5 185.5v444h160
v-406q0 -65 38.5 -105.5t101.5 -40.5q74 1 120.5 50.5t46.5 124.5v377z" />
    <glyph glyph-name="uring" unicode="&#x16f;" horiz-adv-x="660" 
d="M322 574q-50 0 -85 35t-35 84t35.5 84t84.5 35t84.5 -35t35.5 -84t-35 -84t-85 -35zM322 747q-24 0 -40.5 -15.5t-16.5 -38.5t16.5 -39t40.5 -16t41 16t17 39q0 22 -17 38t-41 16zM432 538h153v-538h-153v95q-55 -101 -180 -101q-89 0 -141.5 55.5t-52.5 150.5v338h154
v-294q0 -51 27 -80t74 -29q55 1 87 39t32 98v266z" />
    <glyph glyph-name="Uhungarumlaut" unicode="&#x170;" 
d="M393 883l-91 -120h-114l85 167zM487 763h-114l84 167l121 -47zM531 700h158v-700h-158v115q-76 -113 -226 -115q-108 0 -174.5 70.5t-66.5 185.5v444h160v-406q0 -65 38.5 -105.5t101.5 -40.5q74 1 120.5 50.5t46.5 124.5v377z" />
    <glyph glyph-name="uhungarumlaut" unicode="&#x171;" horiz-adv-x="660" 
d="M362 721l-91 -120h-114l85 167zM456 601h-114l84 167l121 -47zM432 538h153v-538h-153v95q-55 -101 -180 -101q-89 0 -141.5 55.5t-52.5 150.5v338h154v-294q0 -51 27 -80t74 -29q55 1 87 39t32 98v266z" />
    <glyph glyph-name="Uogonek" unicode="&#x172;" 
d="M689 0h-67q-44 -64 -44 -96q0 -25 24 -25t45 31l41 -48q-38 -64 -104 -64q-35 0 -60 20t-25 61q0 53 48 121h-16v115q-76 -113 -226 -115q-108 0 -174.5 70.5t-66.5 185.5v444h160v-406q0 -65 38.5 -105.5t101.5 -40.5q74 1 120.5 50.5t46.5 124.5v377h158v-700z" />
    <glyph glyph-name="uogonek" unicode="&#x173;" horiz-adv-x="655" 
d="M551 0q-46 -62 -46 -96q0 -25 24 -25t45 31l41 -48q-38 -64 -104 -64q-34 0 -59.5 20t-25.5 61q0 51 49 121h-41v92q-55 -98 -181 -98q-90 0 -142.5 55.5t-52.5 150.5v338h153v-294q0 -51 28 -80t76 -29q51 1 83 35.5t36 88.5v279h153v-538h-36z" />
    <glyph glyph-name="Wcircumflex" unicode="&#x174;" horiz-adv-x="1170" 
d="M521 921h128l109 -148h-113l-60 85l-60 -85h-113zM1106 270q0 -122 -76 -199.5t-196 -77.5q-81 0 -148.5 36t-99.5 94q-31 -58 -98 -94t-149 -36q-121 0 -198 77.5t-77 199.5v430h158v-430q0 -61 40 -100t102 -39q63 0 102.5 38.5t40.5 100.5v430h158v-430
q0 -61 40.5 -100t104.5 -39q62 0 100 38.5t38 100.5v430h158v-430z" />
    <glyph glyph-name="wcircumflex" unicode="&#x175;" horiz-adv-x="976" 
d="M425 759h128l109 -148h-113l-60 85l-60 -85h-113zM920 229q0 -106 -62.5 -171t-165.5 -65q-62 0 -118.5 30.5t-84.5 79.5q-27 -49 -83 -79.5t-119 -30.5q-103 0 -166.5 65t-63.5 171v309h153v-302q0 -46 28 -74.5t74 -28.5t73 28t27 75v302h152v-302q0 -46 29 -74.5
t76 -28.5q44 0 71 28.5t27 74.5v302h153v-309z" />
    <glyph glyph-name="Ycircumflex" unicode="&#x176;" horiz-adv-x="741" 
d="M371 858l-60 -85h-113l109 148h128l109 -148h-113zM520 700h157v-519q0 -129 -86 -208.5t-226 -79.5q-83 0 -163 29t-130 77l67 110q39 -35 96 -56.5t110 -21.5q77 0 126 43t49 111v78q-70 -107 -203 -109q-113 0 -183 74t-70 192v280h158v-265q0 -62 39.5 -100.5
t103.5 -38.5q68 1 111.5 48t43.5 122v234z" />
    <glyph glyph-name="ycircumflex" unicode="&#x177;" horiz-adv-x="661" 
d="M327 696l-60 -85h-113l109 148h128l109 -148h-113zM441 538h153v-482q0 -115 -77 -186t-202 -70q-60 1 -126 21.5t-110 53.5l38 109q86 -57 181 -59q65 0 104 36.5t39 97.5v78q-55 -91 -175 -93q-96 0 -152 56t-56 151v287h154v-242q0 -51 28.5 -80.5t77.5 -29.5
q58 1 90.5 39t32.5 104v209z" />
    <glyph glyph-name="Ydieresis" unicode="&#x178;" horiz-adv-x="741" 
d="M278 778q-31 0 -51.5 20.5t-20.5 52.5q0 33 20 53.5t52 20.5q31 0 51 -20.5t20 -53.5q0 -32 -20 -52.5t-51 -20.5zM466 778q-31 0 -51.5 20.5t-20.5 52.5q0 33 20 53.5t52 20.5q31 0 51 -20.5t20 -53.5q0 -32 -20 -52.5t-51 -20.5zM520 700h157v-519q0 -129 -86 -208.5
t-226 -79.5q-83 0 -163 29t-130 77l67 110q39 -35 96 -56.5t110 -21.5q77 0 126 43t49 111v78q-70 -107 -203 -109q-113 0 -183 74t-70 192v280h158v-265q0 -62 39.5 -100.5t103.5 -38.5q68 1 111.5 48t43.5 122v234z" />
    <glyph glyph-name="Zacute" unicode="&#x179;" horiz-adv-x="672" 
d="M508 874l-127 -110h-122l106 163zM244 132h397l-1 -132h-609v107l165 194h-103v111h197l133 156h-379v132h591v-106l-163 -193h95v-111h-189z" />
    <glyph glyph-name="zacute" unicode="&#x17a;" horiz-adv-x="548" 
d="M451 712l-127 -110h-122l106 163zM230 121h287v-122l-479 1v97l113 130h-77v95h159l82 94l-268 1v121l460 -1v-97l-109 -126h73v-95h-156z" />
    <glyph glyph-name="Zdotaccent" unicode="&#x17b;" horiz-adv-x="672" 
d="M339 776q-33 0 -54 22t-21 55q0 34 21 55.5t54 21.5t54 -21.5t21 -55.5q0 -33 -21 -55t-54 -22zM244 132h397l-1 -132h-609v107l165 194h-103v111h197l133 156h-379v132h591v-106l-163 -193h95v-111h-189z" />
    <glyph glyph-name="zdotaccent" unicode="&#x17c;" horiz-adv-x="548" 
d="M282 614q-33 0 -54 22t-21 55q0 34 21 55.5t54 21.5t54 -21.5t21 -55.5q0 -33 -21 -55t-54 -22zM230 121h287v-122l-479 1v97l113 130h-77v95h159l82 94l-268 1v121l460 -1v-97l-109 -126h73v-95h-156z" />
    <glyph glyph-name="Zcaron" unicode="&#x17d;" horiz-adv-x="672" 
d="M404 761h-138l-117 160h124l62 -92l62 92h124zM244 132h397l-1 -132h-609v107l165 194h-103v111h197l133 156h-379v132h591v-106l-163 -193h95v-111h-189z" />
    <glyph glyph-name="zcaron" unicode="&#x17e;" horiz-adv-x="548" 
d="M347 599h-138l-117 160h124l62 -92l62 92h124zM230 121h287v-122l-479 1v97l113 130h-77v95h159l82 94l-268 1v121l460 -1v-97l-109 -126h73v-95h-156z" />
    <glyph glyph-name="uni018F" unicode="&#x18f;" horiz-adv-x="787" 
d="M394 -7q-163 0 -264.5 109t-101.5 285h567q-11 78 -67 129t-132 51q-54 0 -100.5 -25t-76.5 -68l-111 112q111 119 286 119q155 0 258.5 -101.5t103.5 -253.5t-104 -254.5t-258 -102.5zM396 131q71 0 122.5 39.5t69.5 105.5h-388q19 -66 71 -105.5t125 -39.5z" />
    <glyph glyph-name="florin" unicode="&#x192;" horiz-adv-x="397" 
d="M354 627q-32 1 -53.5 -19t-26.5 -54l-11 -89h128l-12 -103h-129l-47 -388q-10 -81 -63 -128.5t-137 -46.5q-70 2 -118 38l40 111q25 -22 60 -24q29 -1 46 18.5t22 55.5l45 364h-71l12 103h71l14 112q10 80 66 128t141 47q83 -2 141 -38l-53 -111q-27 22 -65 24z" />
    <glyph glyph-name="Ohorn" unicode="&#x1a0;" horiz-adv-x="806" 
d="M620 644q74 -48 116.5 -125t42.5 -169q0 -152 -108 -254.5t-268 -102.5t-268 102.5t-108 254.5q0 153 107.5 254t268.5 101q45 0 87 -9q38 5 62 32t24 65h110q0 -91 -66 -149zM405 131q88 0 150 63.5t62 155.5t-62 154.5t-150 62.5q-89 0 -152.5 -63t-63.5 -154
q0 -92 63.5 -155.5t152.5 -63.5z" />
    <glyph glyph-name="ohorn" unicode="&#x1a1;" horiz-adv-x="633" 
d="M531 462q74 -76 74 -193q0 -123 -79.5 -199t-208.5 -76q-130 0 -209.5 76t-79.5 199q0 124 79.5 199t209.5 75q64 0 115 -19q27 12 43 35.5t16 54.5h110q0 -95 -70 -152zM317 119q59 0 96.5 41t37.5 107t-37.5 107t-96.5 41q-60 0 -97.5 -41t-37.5 -107t37.5 -107
t97.5 -41z" />
    <glyph glyph-name="Uhorn" unicode="&#x1af;" 
d="M750 793q0 -86 -61 -144v-649h-158v115q-76 -113 -226 -115q-108 0 -174.5 70.5t-66.5 185.5v444h160v-406q0 -65 38.5 -105.5t101.5 -40.5q74 1 120.5 50.5t46.5 124.5v377h40q31 10 50 35t19 58h110z" />
    <glyph glyph-name="uhorn" unicode="&#x1b0;" horiz-adv-x="660" 
d="M710 614q0 -63 -34 -112.5t-91 -72.5v-429h-153v95q-55 -101 -180 -101q-89 0 -141.5 55.5t-52.5 150.5v338h154v-294q0 -51 27 -80t74 -29q55 1 87 39t32 98v266h132q36 29 36 76h110z" />
    <glyph glyph-name="uni01C4" unicode="&#x1c4;" horiz-adv-x="1441" 
d="M1173 761h-138l-117 160h124l62 -92l62 92h124zM374 700q163 0 265.5 -97.5t102.5 -252.5t-104 -252.5t-270 -97.5h-291v700h297zM1013 132h397l-1 -132h-609v107l165 194h-103v111h197l133 156h-379v132h591v-106l-163 -193h95v-111h-189zM378 133q88 0 145.5 60.5
t57.5 155.5q0 96 -59.5 157t-150.5 61h-136v-434h143z" />
    <glyph glyph-name="uni01C5" unicode="&#x1c5;" horiz-adv-x="1317" 
d="M1116 598h-138l-117 160h124l62 -92l62 92h124zM374 700q163 0 265.5 -97.5t102.5 -252.5t-104 -252.5t-270 -97.5h-291v700h297zM378 133q88 0 145.5 60.5t57.5 155.5q0 96 -59.5 157t-150.5 61h-136v-434h143zM999 121h287v-122l-479 1v97l113 130h-77v95h159l82 94
l-268 1v121l460 -1v-97l-109 -126h73v-95h-156z" />
    <glyph glyph-name="uni01C6" unicode="&#x1c6;" horiz-adv-x="1233" 
d="M1032 598h-138l-117 160h124l62 -92l62 92h124zM452 459v283h153v-742h-153v79q-59 -85 -170 -85q-115 0 -184.5 76t-69.5 201q0 123 68.5 198t181.5 75q114 0 174 -85zM915 121h287v-122l-479 1v97l113 130h-77v95h159l82 94l-268 1v121l460 -1v-97l-109 -126h73v-95
h-156zM318 118q59 0 96.5 41.5t37.5 107.5t-37.5 107.5t-96.5 41.5q-60 0 -97.5 -41.5t-38.5 -107.5q1 -66 38.5 -107.5t97.5 -41.5z" />
    <glyph glyph-name="uni01C7" unicode="&#x1c7;" horiz-adv-x="1076" 
d="M77 700h158v-562h300v-138h-458v700zM1012 124q0 -109 -62.5 -170t-172.5 -61q-136 0 -229 109l73 112q73 -78 148 -78q40 0 62 24t22 68v438h-241v134h400v-576z" />
    <glyph glyph-name="uni01C8" unicode="&#x1c8;" horiz-adv-x="860" 
d="M704 777q40 0 64.5 -24t24.5 -62t-24.5 -62t-64.5 -24q-38 0 -63.5 24.5t-25.5 61.5q0 38 25 62t64 24zM77 700h158v-562h300v-138h-458v700zM781 -16q0 -88 -54 -136.5t-134 -48.5q-72 0 -127 36l42 113q32 -21 63 -21q57 0 57 63v548h153v-554z" />
    <glyph glyph-name="uni01C9" unicode="&#x1c9;" horiz-adv-x="640" 
d="M484 777q40 0 64.5 -24t24.5 -62t-24.5 -62t-64.5 -24q-38 0 -63.5 24.5t-25.5 61.5q0 38 25 62t64 24zM218 188q0 -58 48 -58q20 0 52 15l15 -128q-51 -24 -102 -24q-72 0 -119 47.5t-47 137.5v564h153v-554zM561 -16q0 -88 -54 -136.5t-134 -48.5q-72 0 -127 36l42 113
q32 -21 63 -21q57 0 57 63v548h153v-554z" />
    <glyph glyph-name="uni01CA" unicode="&#x1ca;" horiz-adv-x="1290" 
d="M461 700q108 0 174.5 -70.5t66.5 -185.5v-444h-160v406q0 65 -38.5 105.5t-101.5 40.5q-74 -1 -120.5 -50.5t-46.5 -124.5v-377h-158v700h158v-115q76 113 226 115zM826 700h400v-576q0 -109 -62.5 -170t-172.5 -61q-136 0 -229 109l73 112q73 -78 148 -78q40 0 62 24
t22 68v438h-241v134z" />
    <glyph glyph-name="uni01CB" unicode="&#x1cb;" horiz-adv-x="1074" 
d="M918 605q-38 0 -63.5 24.5t-25.5 61.5q0 38 25 62t64 24q40 0 64.5 -24t24.5 -62t-24.5 -62t-64.5 -24zM702 0h-160v406q0 65 -38.5 105.5t-101.5 40.5q-74 -1 -120.5 -50.5t-46.5 -124.5v-377h-158v700h158v-115q76 113 226 115q108 0 174.5 -70.5t66.5 -185.5v-444z
M842 -10v548h153v-554q0 -88 -54 -136.5t-134 -48.5q-72 0 -127 36l42 113q32 -21 63 -21q57 0 57 63z" />
    <glyph glyph-name="uni01CC" unicode="&#x1cc;" horiz-adv-x="978" 
d="M822 605q-38 0 -63.5 24.5t-25.5 61.5q0 38 25 62t64 24q40 0 64.5 -24t24.5 -62t-24.5 -62t-64.5 -24zM611 0h-154v293q0 51 -28.5 80.5t-77.5 29.5q-57 -1 -90 -39.5t-33 -98.5v-265h-154v538h154v-94q56 98 186 100q90 0 143.5 -56t53.5 -150v-338zM746 -10v548h153
v-554q0 -88 -54 -136.5t-134 -48.5q-72 0 -127 36l42 113q32 -21 63 -21q57 0 57 63z" />
    <glyph glyph-name="Gcaron" unicode="&#x1e6;" horiz-adv-x="746" 
d="M456 762h-138l-117 160h124l62 -92l62 92h124zM547 198v163h137v-361h-117v58q-88 -65 -184 -65q-152 0 -254 102.5t-102 254.5q0 151 109 253t271 102q77 0 153.5 -27.5t130.5 -74.5l-90 -113q-39 36 -90 57t-102 21q-93 0 -156.5 -63t-63.5 -155q0 -93 61 -156t151 -63
q87 0 146 67z" />
    <glyph glyph-name="gcaron" unicode="&#x1e7;" horiz-adv-x="645" 
d="M391 600h-138l-117 160h124l62 -92l62 92h124zM425 538h153v-488q0 -114 -78.5 -182t-208.5 -68q-129 0 -234 71l57 108q76 -54 167 -54q66 0 105 32.5t39 87.5v61q-56 -78 -162 -78q-105 0 -170 71.5t-65 188.5q0 114 64 184.5t167 70.5q107 1 166 -78v73zM299 145
q56 0 91 38.5t35 100.5t-35 101t-91 39t-91 -39t-36 -101q1 -62 35.5 -100.5t91.5 -38.5z" />
    <glyph glyph-name="uni01EA" unicode="&#x1ea;" horiz-adv-x="806" 
d="M779 350q0 -144 -98.5 -244.5t-247.5 -111.5q-45 -65 -45 -97q0 -25 24 -25t45 31l41 -48q-38 -64 -104 -64q-35 0 -60 20t-25 61q0 53 50 123q-145 15 -238.5 114.5t-93.5 240.5q0 153 107.5 254t268.5 101t268.5 -101.5t107.5 -253.5zM189 350q0 -92 63.5 -155.5
t152.5 -63.5q88 0 150 63.5t62 155.5t-62 154.5t-150 62.5q-89 0 -152.5 -63t-63.5 -154z" />
    <glyph glyph-name="uni01EB" unicode="&#x1eb;" horiz-adv-x="633" 
d="M605 269q0 -116 -71 -190.5t-188 -83.5q-46 -66 -46 -98q0 -25 24 -25t45 31l41 -48q-38 -64 -104 -64q-35 0 -60 20t-25 61q0 54 51 125q-111 13 -177.5 86.5t-66.5 185.5q0 124 79.5 199t209.5 75q129 0 208.5 -75t79.5 -199zM182 267q0 -66 37.5 -107t97.5 -41
q59 0 96.5 41t37.5 107t-37.5 107t-96.5 41q-60 0 -97.5 -41t-37.5 -107z" />
    <glyph glyph-name="Aringacute" unicode="&#x1fa;" horiz-adv-x="764" 
d="M414 1168l143 -53l-127 -110h-122zM382 973q49 0 84.5 -35t35.5 -84t-35 -84t-85 -35t-85 35t-35 84t35.5 84t84.5 35zM382 908q-24 0 -40.5 -15.5t-16.5 -38.5t16.5 -39t40.5 -16t41 16t17 39q0 22 -17 38t-41 16zM64 406q0 138 85.5 219.5t230.5 81.5q148 0 234 -81.5
t86 -219.5v-406h-158v173h-320v-173h-158v406zM542 406q-1 75 -43.5 119t-116.5 44t-117 -44t-43 -119v-105h320v105z" />
    <glyph glyph-name="aringacute" unicode="&#x1fb;" horiz-adv-x="679" 
d="M515 953l-127 -110h-122l106 163zM340 573q-50 0 -85 35t-35 84t35.5 84t84.5 35t84.5 -35t35.5 -84t-35 -84t-85 -35zM340 746q-24 0 -40.5 -15.5t-16.5 -38.5t16.5 -39t40.5 -16t41 16t17 39q0 22 -17 38t-41 16zM451 538h153v-538h-153v77q-60 -83 -169 -83
q-115 0 -184.5 76t-69.5 201q0 122 68.5 197t180.5 76q113 0 174 -84v78zM318 118q54 0 90.5 36t42.5 95v36q-6 59 -42.5 95t-90.5 36q-60 0 -97.5 -41.5t-38.5 -107.5q1 -66 38.5 -107.5t97.5 -41.5z" />
    <glyph glyph-name="AEacute" unicode="&#x1fc;" horiz-adv-x="1085" 
d="M859 874l-127 -110h-122l106 163zM652 132h386v-132h-543v154h-250l-83 -154h-165l401 700h629v-131h-375v-152h338v-131h-338v-154zM310 274h185v300h-22z" />
    <glyph glyph-name="aeacute" unicode="&#x1fd;" horiz-adv-x="961" 
d="M652 712l-127 -110h-122l106 163zM691 114q79 0 143 70l88 -80q-93 -110 -241 -110q-157 0 -231 114q-65 -115 -224 -115q-88 0 -141 46.5t-53 122.5t54 118t151 43h150l-1 14q-2 41 -31 63.5t-82 22.5q-75 0 -160 -47l-48 106q123 62 244 62q122 0 182 -65q70 64 187 64
q114 0 183.5 -67.5t73.5 -183.5l-370 -98q38 -80 126 -80zM677 429q-59 0 -93 -38.5t-37 -103.5l240 64q-26 78 -110 78zM387 181v51h-122q-89 0 -89 -61q0 -31 23 -49.5t62 -18.5q47 0 82 22t44 56z" />
    <glyph glyph-name="Oslashacute" unicode="&#x1fe;" horiz-adv-x="806" 
d="M579 874l-127 -110h-122l106 163zM630 637q70 -49 109.5 -123.5t39.5 -163.5q0 -152 -108 -254.5t-268 -102.5q-87 0 -162 33l-52 -81h-89l75 118q-69 49 -108.5 123.5t-39.5 163.5q0 153 107.5 254t268.5 101q88 0 161 -32l52 82h90zM189 350q0 -94 68 -159l229 360
q-40 16 -81 16q-89 0 -152.5 -63t-63.5 -154zM405 131q88 0 150 63.5t62 155.5q0 96 -67 160l-231 -361q41 -18 86 -18z" />
    <glyph glyph-name="oslashacute" unicode="&#x1ff;" horiz-adv-x="633" 
d="M492 711l-127 -110h-122l106 163zM471 507q63 -33 98.5 -95t35.5 -143q0 -123 -79.5 -199t-208.5 -76q-52 0 -99 14l-49 -97h-64l60 118q-65 34 -101 96.5t-36 143.5q0 124 79.5 199t209.5 75q52 0 100 -14l49 98h65zM173 267q0 -80 48 -125l141 279q-20 7 -45 7
q-65 0 -104.5 -44t-39.5 -117zM317 106q64 0 104 44.5t40 116.5q0 81 -49 125l-141 -279q20 -7 46 -7z" />
    <glyph glyph-name="uni0200" unicode="&#x200;" horiz-adv-x="764" 
d="M277 931l85 -167h-114l-91 120zM462 931l84 -167h-114l-90 120zM64 406q0 138 85.5 219.5t230.5 81.5q148 0 234 -81.5t86 -219.5v-406h-158v173h-320v-173h-158v406zM542 406q-1 75 -43.5 119t-116.5 44t-117 -44t-43 -119v-105h320v105z" />
    <glyph glyph-name="uni0201" unicode="&#x201;" horiz-adv-x="679" 
d="M320 602h-114l-91 120l120 47zM504 602h-114l-90 120l120 47zM451 538h153v-538h-153v77q-60 -83 -169 -83q-115 0 -184.5 76t-69.5 201q0 122 68.5 197t180.5 76q113 0 174 -84v78zM318 118q54 0 90.5 36t42.5 95v36q-6 59 -42.5 95t-90.5 36q-60 0 -97.5 -41.5
t-38.5 -107.5q1 -66 38.5 -107.5t97.5 -41.5z" />
    <glyph glyph-name="uni0202" unicode="&#x202;" horiz-adv-x="764" 
d="M324 765h-98q3 70 45.5 112t110.5 42t110.5 -42t45.5 -112h-98q-2 26 -18 43t-40 17t-40 -17t-18 -43zM64 406q0 138 85.5 219.5t230.5 81.5q148 0 234 -81.5t86 -219.5v-406h-158v173h-320v-173h-158v406zM542 406q-1 75 -43.5 119t-116.5 44t-117 -44t-43 -119v-105
h320v105z" />
    <glyph glyph-name="uni0203" unicode="&#x203;" horiz-adv-x="679" 
d="M340 663q-24 0 -40 -17t-18 -43h-98q3 70 45.5 112t110.5 42t110.5 -42t45.5 -112h-98q-2 26 -18 43t-40 17zM451 538h153v-538h-153v77q-60 -83 -169 -83q-115 0 -184.5 76t-69.5 201q0 122 68.5 197t180.5 76q113 0 174 -84v78zM318 118q54 0 90.5 36t42.5 95v36
q-6 59 -42.5 95t-90.5 36q-60 0 -97.5 -41.5t-38.5 -107.5q1 -66 38.5 -107.5t97.5 -41.5z" />
    <glyph glyph-name="uni0204" unicode="&#x204;" horiz-adv-x="597" 
d="M225 931l85 -167h-114l-91 120zM410 931l84 -167h-114l-90 120zM318 296q-54 0 -88.5 -23.5t-34.5 -59.5q0 -39 38.5 -62t96.5 -23q48 0 103.5 16.5t87.5 36.5l60 -120q-47 -30 -120.5 -49t-145.5 -19q-124 0 -203.5 55t-79.5 143q0 61 40 110.5t106 68.5
q-48 17 -78.5 59t-30.5 95q0 82 72.5 132.5t188.5 50.5q60 0 123 -13.5t102 -35.5l-51 -120q-78 35 -159 35q-57 0 -92 -19t-35 -55q0 -32 28 -53.5t72 -21.5h156v-128h-156z" />
    <glyph glyph-name="uni0205" unicode="&#x205;" horiz-adv-x="590" 
d="M284 602h-114l-91 120l120 47zM468 602h-114l-90 120l120 47zM325 114q81 0 143 70l88 -80q-93 -110 -242 -110q-128 0 -207 75.5t-79 198.5q0 122 75 198t201 77q117 1 189 -66t76 -182l-372 -98q37 -83 128 -83zM312 429q-58 0 -92 -36t-38 -104l236 64q-25 76 -106 76
z" />
    <glyph glyph-name="uni0206" unicode="&#x206;" horiz-adv-x="597" 
d="M272 765h-98q3 70 45.5 112t110.5 42t110.5 -42t45.5 -112h-98q-2 26 -18 43t-40 17t-40 -17t-18 -43zM318 296q-54 0 -88.5 -23.5t-34.5 -59.5q0 -39 38.5 -62t96.5 -23q48 0 103.5 16.5t87.5 36.5l60 -120q-47 -30 -120.5 -49t-145.5 -19q-124 0 -203.5 55t-79.5 143
q0 61 40 110.5t106 68.5q-48 17 -78.5 59t-30.5 95q0 82 72.5 132.5t188.5 50.5q60 0 123 -13.5t102 -35.5l-51 -120q-78 35 -159 35q-57 0 -92 -19t-35 -55q0 -32 28 -53.5t72 -21.5h156v-128h-156z" />
    <glyph glyph-name="uni0207" unicode="&#x207;" horiz-adv-x="590" 
d="M304 663q-24 0 -40 -17t-18 -43h-98q3 70 45.5 112t110.5 42t110.5 -42t45.5 -112h-98q-2 26 -18 43t-40 17zM325 114q81 0 143 70l88 -80q-93 -110 -242 -110q-128 0 -207 75.5t-79 198.5q0 122 75 198t201 77q117 1 189 -66t76 -182l-372 -98q37 -83 128 -83zM312 429
q-58 0 -92 -36t-38 -104l236 64q-25 76 -106 76z" />
    <glyph glyph-name="uni0208" unicode="&#x208;" horiz-adv-x="498" 
d="M229 764h-114l-91 120l120 47zM413 764h-114l-90 120l120 47zM451 569h-123v-437h123v-132h-404v132h123v437h-123v131h404v-131z" />
    <glyph glyph-name="uni0209" unicode="&#x209;" horiz-adv-x="302" 
d="M46 769l85 -167h-114l-91 120zM231 769l84 -167h-114l-90 120zM74 538h154v-538h-154v538z" />
    <glyph glyph-name="uni020A" unicode="&#x20a;" horiz-adv-x="498" 
d="M249 825q-24 0 -40 -17t-18 -43h-98q3 70 45.5 112t110.5 42t110.5 -42t45.5 -112h-98q-2 26 -18 43t-40 17zM451 569h-123v-437h123v-132h-404v132h123v437h-123v131h404v-131z" />
    <glyph glyph-name="uni020B" unicode="&#x20b;" horiz-adv-x="302" 
d="M93 603h-98q3 70 45.5 112t110.5 42t110.5 -42t45.5 -112h-98q-2 26 -18 43t-40 17t-40 -17t-18 -43zM74 538h154v-538h-154v538z" />
    <glyph glyph-name="uni020C" unicode="&#x20c;" horiz-adv-x="806" 
d="M291 931l85 -167h-114l-91 120zM476 931l84 -167h-114l-90 120zM403 705q161 0 268.5 -101.5t107.5 -253.5t-108 -254.5t-268 -102.5t-268 102.5t-108 254.5q0 153 107.5 254t268.5 101zM405 567q-89 0 -152.5 -63t-63.5 -154q0 -92 63.5 -155.5t152.5 -63.5
q88 0 150 63.5t62 155.5t-62 154.5t-150 62.5z" />
    <glyph glyph-name="uni020D" unicode="&#x20d;" horiz-adv-x="633" 
d="M212 768l85 -167h-114l-91 120zM397 768l84 -167h-114l-90 120zM317 543q129 0 208.5 -75t79.5 -199q0 -123 -79.5 -199t-208.5 -76q-130 0 -209.5 76t-79.5 199q0 124 79.5 199t209.5 75zM317 415q-60 0 -97.5 -41t-37.5 -107t37.5 -107t97.5 -41q59 0 96.5 41t37.5 107
t-37.5 107t-96.5 41z" />
    <glyph glyph-name="uni020E" unicode="&#x20e;" horiz-adv-x="806" 
d="M338 765h-98q3 70 45.5 112t110.5 42t110.5 -42t45.5 -112h-98q-2 26 -18 43t-40 17t-40 -17t-18 -43zM403 705q161 0 268.5 -101.5t107.5 -253.5t-108 -254.5t-268 -102.5t-268 102.5t-108 254.5q0 153 107.5 254t268.5 101zM405 567q-89 0 -152.5 -63t-63.5 -154
q0 -92 63.5 -155.5t152.5 -63.5q88 0 150 63.5t62 155.5t-62 154.5t-150 62.5z" />
    <glyph glyph-name="uni020F" unicode="&#x20f;" horiz-adv-x="633" 
d="M259 602h-98q3 70 45.5 112t110.5 42t110.5 -42t45.5 -112h-98q-2 26 -18 43t-40 17t-40 -17t-18 -43zM317 543q129 0 208.5 -75t79.5 -199q0 -123 -79.5 -199t-208.5 -76q-130 0 -209.5 76t-79.5 199q0 124 79.5 199t209.5 75zM317 415q-60 0 -97.5 -41t-37.5 -107
t37.5 -107t97.5 -41q59 0 96.5 41t37.5 107t-37.5 107t-96.5 41z" />
    <glyph glyph-name="uni0210" unicode="&#x210;" horiz-adv-x="724" 
d="M341 764h-114l-91 120l120 47zM525 764h-114l-90 120l120 47zM686 0h-179l-111 200h-15h-146v-200h-158v700h304q137 0 212 -63.5t75 -179.5q0 -164 -131 -226zM235 569v-237h146q66 0 101.5 30.5t35.5 89.5q0 58 -35.5 87.5t-101.5 29.5h-146z" />
    <glyph glyph-name="uni0211" unicode="&#x211;" horiz-adv-x="416" 
d="M221 602h-114l-91 120l120 47zM405 602h-114l-90 120l120 47zM228 441q57 101 178 103v-145q-81 7 -129.5 -32t-48.5 -108v-259h-154v538h154v-97z" />
    <glyph glyph-name="uni0212" unicode="&#x212;" horiz-adv-x="724" 
d="M361 825q-24 0 -40 -17t-18 -43h-98q3 70 45.5 112t110.5 42t110.5 -42t45.5 -112h-98q-2 26 -18 43t-40 17zM686 0h-179l-111 200h-15h-146v-200h-158v700h304q137 0 212 -63.5t75 -179.5q0 -164 -131 -226zM235 569v-237h146q66 0 101.5 30.5t35.5 89.5
q0 58 -35.5 87.5t-101.5 29.5h-146z" />
    <glyph glyph-name="uni0213" unicode="&#x213;" horiz-adv-x="416" 
d="M241 663q-24 0 -40 -17t-18 -43h-98q3 70 45.5 112t110.5 42t110.5 -42t45.5 -112h-98q-2 26 -18 43t-40 17zM228 441q57 101 178 103v-145q-81 7 -129.5 -32t-48.5 -108v-259h-154v538h154v-97z" />
    <glyph glyph-name="uni0214" unicode="&#x214;" 
d="M333 764h-114l-91 120l120 47zM517 764h-114l-90 120l120 47zM531 700h158v-700h-158v115q-76 -113 -226 -115q-108 0 -174.5 70.5t-66.5 185.5v444h160v-406q0 -65 38.5 -105.5t101.5 -40.5q74 1 120.5 50.5t46.5 124.5v377z" />
    <glyph glyph-name="uni0215" unicode="&#x215;" horiz-adv-x="660" 
d="M302 602h-114l-91 120l120 47zM486 602h-114l-90 120l120 47zM432 538h153v-538h-153v95q-55 -101 -180 -101q-89 0 -141.5 55.5t-52.5 150.5v338h154v-294q0 -51 27 -80t74 -29q55 1 87 39t32 98v266z" />
    <glyph glyph-name="uni0216" unicode="&#x216;" 
d="M353 825q-24 0 -40 -17t-18 -43h-98q3 70 45.5 112t110.5 42t110.5 -42t45.5 -112h-98q-2 26 -18 43t-40 17zM531 700h158v-700h-158v115q-76 -113 -226 -115q-108 0 -174.5 70.5t-66.5 185.5v444h160v-406q0 -65 38.5 -105.5t101.5 -40.5q74 1 120.5 50.5t46.5 124.5
v377z" />
    <glyph glyph-name="uni0217" unicode="&#x217;" horiz-adv-x="660" 
d="M322 663q-24 0 -40 -17t-18 -43h-98q3 70 45.5 112t110.5 42t110.5 -42t45.5 -112h-98q-2 26 -18 43t-40 17zM432 538h153v-538h-153v95q-55 -101 -180 -101q-89 0 -141.5 55.5t-52.5 150.5v338h154v-294q0 -51 27 -80t74 -29q55 1 87 39t32 98v266z" />
    <glyph glyph-name="Scommaaccent" unicode="&#x218;" horiz-adv-x="637" 
d="M231 515q0 -30 27.5 -50.5t69 -31t90 -27t89.5 -37t68.5 -62.5t27.5 -101q0 -100 -77 -155.5t-197 -55.5q-85 0 -167 30t-142 81l63 129q53 -47 122.5 -76t125.5 -29q49 0 76.5 17.5t27.5 49.5q0 30 -27.5 51t-69 31t-90 26t-90 35.5t-69 60.5t-27.5 99q0 95 74.5 151
t196.5 56q150 0 266 -76l-61 -131q-55 33 -115 52.5t-103 19.5q-41 0 -65 -14.5t-24 -42.5zM326 -50q29 0 49 -19t20 -51q0 -29 -20 -57l-62 -92h-68l39 93q-28 19 -28 56q0 30 19.5 50t50.5 20z" />
    <glyph glyph-name="scommaaccent" unicode="&#x219;" horiz-adv-x="499" 
d="M187 392q0 -22 29 -36t71 -25.5t83.5 -28t70.5 -52t29 -88.5q0 -80 -62 -124t-157 -44q-140 0 -233 75l50 104q87 -67 187 -67q68 0 68 42q0 23 -28.5 38t-69.5 26t-82.5 27t-70 51t-28.5 87q0 80 60 124t152 44q115 0 210 -60l-53 -105q-93 52 -164 52q-62 0 -62 -40z
M248 -50q29 0 49 -19t20 -51q0 -29 -20 -57l-62 -92h-68l39 93q-28 19 -28 56q0 30 19.5 50t50.5 20z" />
    <glyph glyph-name="uni021A" unicode="&#x21a;" horiz-adv-x="674" 
d="M646 629l-47 -127q-85 44 -186 59v-561h-158v561q-101 -14 -187 -59l-47 128q139 77 312 77q172 0 313 -78zM334 -50q29 0 49 -19t20 -51q0 -29 -20 -57l-62 -92h-68l39 93q-28 19 -28 56q0 30 19.5 50t50.5 20z" />
    <glyph glyph-name="uni021B" unicode="&#x21b;" horiz-adv-x="390" 
d="M371 30q-64 -37 -137 -37q-76 0 -124 47t-48 131v491h153v-148h147v-107h-147v-210q0 -74 55 -74q32 0 69 20zM224 -50q29 0 49 -19t20 -51q0 -29 -20 -57l-62 -92h-68l39 93q-28 19 -28 56q0 30 19.5 50t50.5 20z" />
    <glyph glyph-name="uni022A" unicode="&#x22a;" horiz-adv-x="806" 
d="M260 1104h271v-108h-271v108zM302 925q31 0 51 -20.5t20 -53.5q0 -32 -20 -52.5t-51 -20.5t-51.5 20.5t-20.5 52.5q0 33 20 53.5t52 20.5zM490 925q31 0 51 -20.5t20 -53.5q0 -32 -20 -52.5t-51 -20.5t-51.5 20.5t-20.5 52.5q0 33 20 53.5t52 20.5zM403 705
q161 0 268.5 -101.5t107.5 -253.5t-108 -254.5t-268 -102.5t-268 102.5t-108 254.5q0 153 107.5 254t268.5 101zM405 567q-89 0 -152.5 -63t-63.5 -154q0 -92 63.5 -155.5t152.5 -63.5q88 0 150 63.5t62 155.5t-62 154.5t-150 62.5z" />
    <glyph glyph-name="uni022B" unicode="&#x22b;" horiz-adv-x="633" 
d="M181 941h271v-108h-271v108zM223 762q31 0 51 -20.5t20 -53.5q0 -32 -20 -52.5t-51 -20.5t-51.5 20.5t-20.5 52.5q0 33 20 53.5t52 20.5zM411 762q31 0 51 -20.5t20 -53.5q0 -32 -20 -52.5t-51 -20.5t-51.5 20.5t-20.5 52.5q0 33 20 53.5t52 20.5zM317 543
q129 0 208.5 -75t79.5 -199q0 -123 -79.5 -199t-208.5 -76q-130 0 -209.5 76t-79.5 199q0 124 79.5 199t209.5 75zM317 415q-60 0 -97.5 -41t-37.5 -107t37.5 -107t97.5 -41q59 0 96.5 41t37.5 107t-37.5 107t-96.5 41z" />
    <glyph glyph-name="uni022C" unicode="&#x22c;" horiz-adv-x="806" 
d="M260 1102h271v-108h-271v108zM569 929q0 -149 -100 -149q-34 0 -69.5 24.5t-47.5 24.5q-33 0 -33 -45h-95q0 151 100 151q32 0 69 -25t48 -25q33 0 33 44h95zM403 705q161 0 268.5 -101.5t107.5 -253.5t-108 -254.5t-268 -102.5t-268 102.5t-108 254.5q0 153 107.5 254
t268.5 101zM405 567q-89 0 -152.5 -63t-63.5 -154q0 -92 63.5 -155.5t152.5 -63.5q88 0 150 63.5t62 155.5t-62 154.5t-150 62.5z" />
    <glyph glyph-name="uni022D" unicode="&#x22d;" horiz-adv-x="633" 
d="M181 939h271v-108h-271v108zM490 766q0 -149 -100 -149q-34 0 -69.5 24.5t-47.5 24.5q-33 0 -33 -45h-95q0 151 100 151q33 0 69 -25t48 -25q33 0 33 44h95zM317 543q129 0 208.5 -75t79.5 -199q0 -123 -79.5 -199t-208.5 -76q-130 0 -209.5 76t-79.5 199q0 124 79.5 199
t209.5 75zM317 415q-60 0 -97.5 -41t-37.5 -107t37.5 -107t97.5 -41q59 0 96.5 41t37.5 107t-37.5 107t-96.5 41z" />
    <glyph glyph-name="uni0230" unicode="&#x230;" horiz-adv-x="806" 
d="M260 1101h271v-108h-271v108zM396 929q33 0 54 -21.5t21 -55.5q0 -33 -21 -55t-54 -22t-54 22t-21 55q0 34 21 55.5t54 21.5zM403 705q161 0 268.5 -101.5t107.5 -253.5t-108 -254.5t-268 -102.5t-268 102.5t-108 254.5q0 153 107.5 254t268.5 101zM405 567
q-89 0 -152.5 -63t-63.5 -154q0 -92 63.5 -155.5t152.5 -63.5q88 0 150 63.5t62 155.5t-62 154.5t-150 62.5z" />
    <glyph glyph-name="uni0231" unicode="&#x231;" horiz-adv-x="633" 
d="M181 938h271v-108h-271v108zM317 766q33 0 54 -21.5t21 -55.5q0 -33 -21 -55t-54 -22t-54 22t-21 55q0 34 21 55.5t54 21.5zM317 543q129 0 208.5 -75t79.5 -199q0 -123 -79.5 -199t-208.5 -76q-130 0 -209.5 76t-79.5 199q0 124 79.5 199t209.5 75zM317 415
q-60 0 -97.5 -41t-37.5 -107t37.5 -107t97.5 -41q59 0 96.5 41t37.5 107t-37.5 107t-96.5 41z" />
    <glyph glyph-name="uni0232" unicode="&#x232;" horiz-adv-x="741" 
d="M506 892v-108h-271v108h271zM520 700h157v-519q0 -129 -86 -208.5t-226 -79.5q-83 0 -163 29t-130 77l67 110q39 -35 96 -56.5t110 -21.5q77 0 126 43t49 111v78q-70 -107 -203 -109q-113 0 -183 74t-70 192v280h158v-265q0 -62 39.5 -100.5t103.5 -38.5q68 1 111.5 48
t43.5 122v234z" />
    <glyph glyph-name="uni0233" unicode="&#x233;" horiz-adv-x="661" 
d="M462 730v-108h-271v108h271zM441 538h153v-482q0 -115 -77 -186t-202 -70q-60 1 -126 21.5t-110 53.5l38 109q86 -57 181 -59q65 0 104 36.5t39 97.5v78q-55 -91 -175 -93q-96 0 -152 56t-56 151v287h154v-242q0 -51 28.5 -80.5t77.5 -29.5q58 1 90.5 39t32.5 104v209z
" />
    <glyph glyph-name="uni0237" unicode="&#x237;" horiz-adv-x="297" 
d="M229 -21q0 -85 -48.5 -132.5t-133.5 -46.5q-79 2 -137 35l36 110q31 -18 67 -20q31 -1 47 19t16 58v536h153v-559z" />
    <glyph glyph-name="uni0259" unicode="&#x259;" horiz-adv-x="590" 
d="M276 544q128 0 207 -75.5t79 -198.5q0 -122 -75 -198t-201 -77q-117 -1 -189 66t-76 182l372 98q-37 83 -128 83q-81 0 -143 -70l-88 80q93 110 242 110zM278 109q58 0 92 36t38 104l-236 -64q25 -76 106 -76z" />
    <glyph glyph-name="uni02BB" unicode="&#x2bb;" horiz-adv-x="0" 
d="M0 491l-126 28l30 181h96v-209z" />
    <glyph glyph-name="uni02BC" unicode="&#x2bc;" horiz-adv-x="204" 
d="M107 752q29 0 49 -19t20 -51q0 -29 -20 -57l-62 -92h-68l39 93q-28 19 -28 56q0 30 19.5 50t50.5 20z" />
    <glyph glyph-name="uni02BE" unicode="&#x2be;" horiz-adv-x="350" 
d="M175 573v64q24 0 41 16t17 39t-17 39t-41 16v64q49 0 84.5 -35t35.5 -84t-35 -84t-85 -35z" />
    <glyph glyph-name="uni02BF" unicode="&#x2bf;" horiz-adv-x="350" 
d="M175 573v64q-24 0 -41 16t-17 39t17 39t41 16v64q-49 0 -84.5 -35t-35.5 -84t35 -84t85 -35z" />
    <glyph glyph-name="circumflex" unicode="&#x2c6;" horiz-adv-x="350" 
d="M111 760h128l109 -148h-113l-60 85l-60 -85h-113z" />
    <glyph glyph-name="caron" unicode="&#x2c7;" horiz-adv-x="350" 
d="M-11 760h124l62 -92l62 92h124l-117 -160h-138z" />
    <glyph glyph-name="uni02C8" unicode="&#x2c8;" horiz-adv-x="146" 
d="M20 514v186h106v-186h-106z" />
    <glyph glyph-name="uni02C9" unicode="&#x2c9;" horiz-adv-x="350" 
d="M40 742h271v-108h-271v108z" />
    <glyph glyph-name="uni02CA" unicode="&#x2ca;" horiz-adv-x="350" 
d="M156 765l143 -53l-127 -110h-122z" />
    <glyph glyph-name="uni02CB" unicode="&#x2cb;" horiz-adv-x="350" 
d="M189 765l107 -163h-123l-127 110z" />
    <glyph glyph-name="uni02CC" unicode="&#x2cc;" horiz-adv-x="146" 
d="M20 -217v186h106v-186h-106z" />
    <glyph glyph-name="breve" unicode="&#x2d8;" horiz-adv-x="350" 
d="M117 757q1 -27 17.5 -43.5t40.5 -16.5t40.5 16.5t17.5 43.5h98q-3 -70 -45.5 -112t-110.5 -42t-110.5 42t-45.5 112h98z" />
    <glyph glyph-name="dotaccent" unicode="&#x2d9;" horiz-adv-x="350" 
d="M175 767q33 0 54 -21.5t21 -55.5q0 -33 -21 -55t-54 -22t-54 22t-21 55q0 34 21 55.5t54 21.5z" />
    <glyph glyph-name="ring" unicode="&#x2da;" horiz-adv-x="350" 
d="M175 811q49 0 84.5 -35t35.5 -84t-35 -84t-85 -35t-85 35t-35 84t35.5 84t84.5 35zM175 746q-24 0 -40.5 -15.5t-16.5 -38.5t16.5 -39t40.5 -16t41 16t17 39q0 22 -17 38t-41 16z" />
    <glyph glyph-name="ogonek" unicode="&#x2db;" horiz-adv-x="350" 
d="M217 16q-56 -76 -56 -112q0 -25 24 -25t45 31l41 -48q-38 -64 -104 -64q-35 0 -60 20t-25 61q0 59 60 137h75z" />
    <glyph glyph-name="tilde" unicode="&#x2dc;" horiz-adv-x="350" 
d="M348 767q0 -149 -100 -149q-34 0 -69.5 24.5t-47.5 24.5q-33 0 -33 -45h-95q0 151 100 151q33 0 69.5 -25t47.5 -25q33 0 33 44h95z" />
    <glyph glyph-name="hungarumlaut" unicode="&#x2dd;" horiz-adv-x="350" 
d="M65 769l120 -47l-91 -120h-114zM249 769l121 -47l-91 -120h-114z" />
    <glyph glyph-name="gravecomb" unicode="&#x300;" horiz-adv-x="0" 
d="M-7 765l107 -163h-123l-127 110z" />
    <glyph glyph-name="acutecomb" unicode="&#x301;" horiz-adv-x="0" 
d="M32 765l143 -53l-127 -110h-122z" />
    <glyph glyph-name="uni0302" unicode="&#x302;" horiz-adv-x="0" 
d="M-64 760h128l109 -148h-113l-60 85l-60 -85h-113z" />
    <glyph glyph-name="tildecomb" unicode="&#x303;" horiz-adv-x="0" 
d="M173 767q0 -149 -100 -149q-34 0 -69.5 24.5t-47.5 24.5q-33 0 -33 -45h-95q0 151 100 151q32 0 69 -25t48 -25q33 0 33 44h95z" />
    <glyph glyph-name="uni0304" unicode="&#x304;" horiz-adv-x="0" 
d="M-136 730h271v-108h-271v108z" />
    <glyph glyph-name="uni0306" unicode="&#x306;" horiz-adv-x="0" 
d="M-58 757q1 -27 17.5 -43.5t40.5 -16.5t40.5 16.5t17.5 43.5h98q-3 -70 -45.5 -112t-110.5 -42t-110.5 42t-45.5 112h98z" />
    <glyph glyph-name="uni0307" unicode="&#x307;" horiz-adv-x="0" 
d="M0 767q33 0 54 -21.5t21 -55.5q0 -33 -21 -55t-54 -22t-54 22t-21 55q0 34 21 55.5t54 21.5z" />
    <glyph glyph-name="uni0308" unicode="&#x308;" horiz-adv-x="0" 
d="M-94 763q31 0 51 -20.5t20 -53.5q0 -32 -20 -52.5t-51 -20.5t-51.5 20.5t-20.5 52.5q0 33 20 53.5t52 20.5zM94 763q31 0 51 -20.5t20 -53.5q0 -32 -20 -52.5t-51 -20.5t-51.5 20.5t-20.5 52.5q0 33 20 53.5t52 20.5z" />
    <glyph glyph-name="hookabovecomb" unicode="&#x309;" horiz-adv-x="0" 
d="M-118 700q7 41 39 64t79 23q51 0 81 -28t30 -72q0 -55 -62 -107l-66 22q54 46 54 78q0 16 -10.5 27t-29.5 11q-41 0 -46 -42z" />
    <glyph glyph-name="uni030A" unicode="&#x30a;" horiz-adv-x="0" 
d="M0 811q49 0 84.5 -35t35.5 -84t-35 -84t-85 -35t-85 35t-35 84t35.5 84t84.5 35zM0 746q-24 0 -40.5 -15.5t-16.5 -38.5t16.5 -39t40.5 -16t41 16t17 39q0 22 -17 38t-41 16z" />
    <glyph glyph-name="uni030B" unicode="&#x30b;" horiz-adv-x="0" 
d="M-110 769l120 -47l-91 -120h-114zM74 769l121 -47l-91 -120h-114z" />
    <glyph glyph-name="uni030C" unicode="&#x30c;" horiz-adv-x="0" 
d="M-186 760h124l62 -92l62 92h124l-117 -160h-138z" />
    <glyph glyph-name="uni030F" unicode="&#x30f;" horiz-adv-x="0" 
d="M-105 769l85 -167h-114l-91 120zM80 769l84 -167h-114l-90 120z" />
    <glyph glyph-name="uni0311" unicode="&#x311;" horiz-adv-x="0" 
d="M-58 603h-98q3 70 45.5 112t110.5 42t110.5 -42t45.5 -112h-98q-2 26 -18 43t-40 17t-40 -17t-18 -43z" />
    <glyph glyph-name="uni0312" unicode="&#x312;" horiz-adv-x="0" 
d="M43 706q26 -18 28 -56q0 -30 -20 -50t-51 -20q-29 0 -49 19t-20 51q0 29 20 57l62 92h69z" />
    <glyph glyph-name="uni031B" unicode="&#x31b;" horiz-adv-x="0" 
d="M0 412v104q44 0 73.5 27.5t29.5 70.5h110q0 -86 -61 -144t-152 -58z" />
    <glyph glyph-name="dotbelowcomb" unicode="&#x323;" horiz-adv-x="0" 
d="M0 -50q33 0 54 -21.5t21 -55.5q0 -33 -21 -55t-54 -22t-54 22t-21 55q0 34 21 55.5t54 21.5z" />
    <glyph glyph-name="uni0324" unicode="&#x324;" horiz-adv-x="0" 
d="M-94 -50q31 0 51 -20.5t20 -53.5q0 -32 -20 -52.5t-51 -20.5t-51.5 20.5t-20.5 52.5q0 33 20 53.5t52 20.5zM94 -50q31 0 51 -20.5t20 -53.5q0 -32 -20 -52.5t-51 -20.5t-51.5 20.5t-20.5 52.5q0 33 20 53.5t52 20.5z" />
    <glyph glyph-name="uni0326" unicode="&#x326;" horiz-adv-x="0" 
d="M0 -50q29 0 49 -19t20 -51q0 -29 -20 -57l-62 -92h-68l39 93q-28 19 -28 56q0 30 19.5 50t50.5 20z" />
    <glyph glyph-name="uni0327" unicode="&#x327;" horiz-adv-x="0" 
d="M14 -63q31 -8 49.5 -29.5t18.5 -51.5q0 -46 -33 -73.5t-85 -27.5q-50 0 -93 30l29 67q23 -20 52 -20q20 0 31.5 11t11.5 27t-12 26t-34 10q-12 0 -36 -4l46 99h87z" />
    <glyph glyph-name="uni0328" unicode="&#x328;" horiz-adv-x="0" 
d="M40 9q-56 -76 -56 -112q0 -25 24 -25t45 31l41 -48q-38 -64 -104 -64q-35 0 -60 20t-25 61q0 59 60 137h75z" />
    <glyph glyph-name="uni032E" unicode="&#x32e;" horiz-adv-x="0" 
d="M-58 -50q1 -27 17.5 -43.5t40.5 -16.5t40.5 16.5t17.5 43.5h98q-3 -70 -45.5 -112t-110.5 -42t-110.5 42t-45.5 112h98z" />
    <glyph glyph-name="uni0331" unicode="&#x331;" horiz-adv-x="0" 
d="M-136 -63h271v-108h-271v108z" />
    <glyph glyph-name="uni0335" unicode="&#x335;" horiz-adv-x="0" 
d="M-304 495h304v-107h-304v107z" />
    <glyph glyph-name="uni0394" unicode="&#x394;" horiz-adv-x="759" 
d="M464 700l299 -700h-766l304 700h163zM209 120h337l-168 415z" />
    <glyph glyph-name="uni03A9" unicode="&#x3a9;" horiz-adv-x="865" 
d="M512 143q68 37 104.5 96.5t36.5 124.5q0 88 -60.5 148.5t-160.5 60.5t-159.5 -60.5t-59.5 -148.5q0 -66 36 -125t105 -96v-143h-346v129h194q-60 47 -95 115.5t-35 140.5q0 137 103 229.5t257 92.5t257.5 -92.5t103.5 -230.5q0 -70 -35 -139.5t-94 -115.5h193v-129h-345
v143z" />
    <glyph glyph-name="uni03BC" unicode="&#x3bc;" horiz-adv-x="681" 
d="M453 538h153v-538h-153v95q-55 -101 -180 -101q-21 0 -40 3v-191h-154v732h154v-294q0 -51 27 -80t74 -29q55 1 87 39t32 98v266z" />
    <glyph glyph-name="pi" unicode="&#x3c0;" horiz-adv-x="728" 
d="M717 425h-133v-425h-127v425h-108l-47 -425h-127l46 425h-38q-34 0 -56 -19.5t-21 -49.5q0 -34 23 -70l-106 -39q-37 67 -37 136q-1 66 49.5 110.5t127.5 44.5h553z" />
    <glyph glyph-name="uni1E08" unicode="&#x1e08;" horiz-adv-x="694" 
d="M555 874l-127 -110h-122l106 163zM677 118q-110 -111 -256 -124l-29 -57q31 -8 49.5 -29.5t18.5 -51.5q0 -46 -33 -73.5t-85 -27.5q-50 0 -93 30l29 67q23 -20 52 -20q20 0 31.5 11t11.5 27t-12 26t-34 10q-12 0 -36 -4l44 95q-135 20 -221.5 118.5t-86.5 235.5
q0 151 107 252.5t266 101.5q76 0 150 -31.5t126 -84.5l-92 -112q-36 42 -85 66.5t-97 24.5q-90 0 -151.5 -62t-61.5 -153t61.5 -153.5t151.5 -62.5q47 0 95.5 22t86.5 60z" />
    <glyph glyph-name="uni1E09" unicode="&#x1e09;" horiz-adv-x="563" 
d="M477 712l-127 -110h-122l106 163zM541 113q-64 -106 -208 -118l-29 -58q31 -8 49.5 -29.5t18.5 -51.5q0 -46 -33 -73.5t-85 -27.5q-50 0 -93 30l29 67q23 -20 52 -20q20 0 31.5 11t11.5 27t-12 26t-34 10q-12 0 -36 -4l45 96q-100 17 -160 89.5t-60 179.5q0 124 76 200
t200 76q158 0 233 -113l-104 -75q-47 58 -123 57q-57 0 -92.5 -40t-35.5 -104q0 -65 36 -105.5t92 -40.5q84 0 125 63z" />
    <glyph glyph-name="uni1E0C" unicode="&#x1e0c;" horiz-adv-x="769" 
d="M374 700q163 0 265.5 -97.5t102.5 -252.5t-104 -252.5t-270 -97.5h-291v700h297zM378 133q88 0 145.5 60.5t57.5 155.5q0 96 -59.5 157t-150.5 61h-136v-434h143zM381 -50q33 0 54 -21.5t21 -55.5q0 -33 -21 -55t-54 -22t-54 22t-21 55q0 34 21 55.5t54 21.5z" />
    <glyph glyph-name="uni1E0D" unicode="&#x1e0d;" horiz-adv-x="685" 
d="M452 742h153v-742h-153v79q-59 -85 -170 -85q-115 0 -184.5 76t-69.5 201q0 123 68.5 198t181.5 75q114 0 174 -85v283zM318 118q59 0 96.5 41.5t37.5 107.5t-37.5 107.5t-96.5 41.5q-60 0 -97.5 -41.5t-38.5 -107.5q1 -66 38.5 -107.5t97.5 -41.5zM356 -50
q33 0 54 -21.5t21 -55.5q0 -33 -21 -55t-54 -22t-54 22t-21 55q0 34 21 55.5t54 21.5z" />
    <glyph glyph-name="uni1E0E" unicode="&#x1e0e;" horiz-adv-x="769" 
d="M374 700q163 0 265.5 -97.5t102.5 -252.5t-104 -252.5t-270 -97.5h-291v700h297zM378 133q88 0 145.5 60.5t57.5 155.5q0 96 -59.5 157t-150.5 61h-136v-434h143zM245 -63h271v-108h-271v108z" />
    <glyph glyph-name="uni1E0F" unicode="&#x1e0f;" horiz-adv-x="685" 
d="M452 742h153v-742h-153v79q-59 -85 -170 -85q-115 0 -184.5 76t-69.5 201q0 123 68.5 198t181.5 75q114 0 174 -85v283zM318 118q59 0 96.5 41.5t37.5 107.5t-37.5 107.5t-96.5 41.5q-60 0 -97.5 -41.5t-38.5 -107.5q1 -66 38.5 -107.5t97.5 -41.5zM220 -171v108h271
v-108h-271z" />
    <glyph glyph-name="uni1E14" unicode="&#x1e14;" horiz-adv-x="597" 
d="M297 1121l107 -163h-123l-127 110zM194 892h271v-108h-271v108zM318 296q-54 0 -88.5 -23.5t-34.5 -59.5q0 -39 38.5 -62t96.5 -23q48 0 103.5 16.5t87.5 36.5l60 -120q-47 -30 -120.5 -49t-145.5 -19q-124 0 -203.5 55t-79.5 143q0 61 40 110.5t106 68.5
q-48 17 -78.5 59t-30.5 95q0 82 72.5 132.5t188.5 50.5q60 0 123 -13.5t102 -35.5l-51 -120q-78 35 -159 35q-57 0 -92 -19t-35 -55q0 -32 28 -53.5t72 -21.5h156v-128h-156z" />
    <glyph glyph-name="uni1E15" unicode="&#x1e15;" horiz-adv-x="590" 
d="M378 796h-123l-127 110l143 53zM168 622v108h271v-108h-271zM325 114q81 0 143 70l88 -80q-93 -110 -242 -110q-128 0 -207 75.5t-79 198.5q0 122 75 198t201 77q117 1 189 -66t76 -182l-372 -98q37 -83 128 -83zM312 429q-58 0 -92 -36t-38 -104l236 64q-25 76 -106 76z
" />
    <glyph glyph-name="uni1E16" unicode="&#x1e16;" horiz-adv-x="597" 
d="M362 1121l143 -53l-127 -110h-122zM194 892h271v-108h-271v108zM318 296q-54 0 -88.5 -23.5t-34.5 -59.5q0 -39 38.5 -62t96.5 -23q48 0 103.5 16.5t87.5 36.5l60 -120q-47 -30 -120.5 -49t-145.5 -19q-124 0 -203.5 55t-79.5 143q0 61 40 110.5t106 68.5
q-48 17 -78.5 59t-30.5 95q0 82 72.5 132.5t188.5 50.5q60 0 123 -13.5t102 -35.5l-51 -120q-78 35 -159 35q-57 0 -92 -19t-35 -55q0 -32 28 -53.5t72 -21.5h156v-128h-156z" />
    <glyph glyph-name="uni1E17" unicode="&#x1e17;" horiz-adv-x="590" 
d="M479 906l-127 -110h-122l106 163zM439 730v-108h-271v108h271zM325 114q81 0 143 70l88 -80q-93 -110 -242 -110q-128 0 -207 75.5t-79 198.5q0 122 75 198t201 77q117 1 189 -66t76 -182l-372 -98q37 -83 128 -83zM312 429q-58 0 -92 -36t-38 -104l236 64
q-25 76 -106 76z" />
    <glyph glyph-name="uni1E1C" unicode="&#x1e1c;" horiz-adv-x="597" 
d="M330 765q-68 0 -110.5 42t-45.5 112h98q1 -27 17.5 -43.5t40.5 -16.5t40.5 16.5t17.5 43.5h98q-3 -70 -45.5 -112t-110.5 -42zM337 -63q31 -8 49.5 -29.5t18.5 -51.5q0 -46 -33 -73.5t-85 -27.5q-50 0 -93 30l29 67q23 -20 52 -20q20 0 31.5 11t11.5 27t-12 26t-34 10
q-12 0 -36 -4l43 92q-110 8 -178.5 62t-68.5 135q0 61 40 110.5t106 68.5q-48 17 -78.5 59t-30.5 95q0 82 72.5 132.5t188.5 50.5q60 0 123 -13.5t102 -35.5l-51 -120q-78 35 -159 35q-57 0 -92 -19t-35 -55q0 -32 28 -53.5t72 -21.5h156v-128h-156q-54 0 -88.5 -23.5
t-34.5 -59.5q0 -39 38.5 -62t96.5 -23q48 0 103.5 16.5t87.5 36.5l60 -120q-85 -53 -215 -66z" />
    <glyph glyph-name="uni1E1D" unicode="&#x1e1d;" horiz-adv-x="590" 
d="M304 603q-68 0 -110.5 42t-45.5 112h98q1 -27 17.5 -43.5t40.5 -16.5t40.5 16.5t17.5 43.5h98q-3 -70 -45.5 -112t-110.5 -42zM325 114q81 0 143 70l88 -80q-82 -96 -205 -108l-29 -59q31 -8 49.5 -29.5t18.5 -51.5q0 -46 -33 -73.5t-85 -27.5q-50 0 -93 30l29 67
q23 -20 52 -20q20 0 31.5 11t11.5 27t-12 26t-34 10q-12 0 -36 -4l44 95q-108 14 -172.5 87t-64.5 184q0 122 75 198t201 77q117 1 189 -66t76 -182l-372 -98q37 -83 128 -83zM312 429q-58 0 -92 -36t-38 -104l236 64q-25 76 -106 76z" />
    <glyph glyph-name="uni1E20" unicode="&#x1e20;" horiz-adv-x="746" 
d="M522 892v-108h-271v108h271zM547 198v163h137v-361h-117v58q-88 -65 -184 -65q-152 0 -254 102.5t-102 254.5q0 151 109 253t271 102q77 0 153.5 -27.5t130.5 -74.5l-90 -113q-39 36 -90 57t-102 21q-93 0 -156.5 -63t-63.5 -155q0 -93 61 -156t151 -63q87 0 146 67z" />
    <glyph glyph-name="uni1E21" unicode="&#x1e21;" horiz-adv-x="645" 
d="M457 730v-108h-271v108h271zM425 538h153v-488q0 -114 -78.5 -182t-208.5 -68q-129 0 -234 71l57 108q76 -54 167 -54q66 0 105 32.5t39 87.5v61q-56 -78 -162 -78q-105 0 -170 71.5t-65 188.5q0 114 64 184.5t167 70.5q107 1 166 -78v73zM299 145q56 0 91 38.5t35 100.5
t-35 101t-91 39t-91 -39t-36 -101q1 -62 35.5 -100.5t91.5 -38.5z" />
    <glyph glyph-name="uni1E24" unicode="&#x1e24;" horiz-adv-x="787" 
d="M77 700h158v-292h317v292h158v-700h-158v276h-317v-276h-158v700zM394 -50q33 0 54 -21.5t21 -55.5q0 -33 -21 -55t-54 -22t-54 22t-21 55q0 34 21 55.5t54 21.5z" />
    <glyph glyph-name="uni1E25" unicode="&#x1e25;" horiz-adv-x="675" 
d="M419 544q91 0 144.5 -56t53.5 -150v-338h-154v293q0 51 -28.5 80.5t-77.5 29.5q-57 -1 -90.5 -39.5t-33.5 -98.5v-265h-154v742h154v-299q56 99 186 101zM348 -50q33 0 54 -21.5t21 -55.5q0 -33 -21 -55t-54 -22t-54 22t-21 55q0 34 21 55.5t54 21.5z" />
    <glyph glyph-name="uni1E2A" unicode="&#x1e2a;" horiz-adv-x="787" 
d="M77 700h158v-292h317v292h158v-700h-158v276h-317v-276h-158v700zM336 -50q1 -27 17.5 -43.5t40.5 -16.5t40.5 16.5t17.5 43.5h98q-3 -70 -45.5 -112t-110.5 -42t-110.5 42t-45.5 112h98z" />
    <glyph glyph-name="uni1E2B" unicode="&#x1e2b;" horiz-adv-x="675" 
d="M419 544q91 0 144.5 -56t53.5 -150v-338h-154v293q0 51 -28.5 80.5t-77.5 29.5q-57 -1 -90.5 -39.5t-33.5 -98.5v-265h-154v742h154v-299q56 99 186 101zM348 -110q24 0 40.5 16.5t17.5 43.5h98q-3 -70 -45.5 -112t-110.5 -42t-110.5 42t-45.5 112h98q1 -27 17.5 -43.5
t40.5 -16.5z" />
    <glyph glyph-name="uni1E2E" unicode="&#x1e2e;" horiz-adv-x="498" 
d="M424 1086l-127 -110h-122l106 163zM155 778q-31 0 -51.5 20.5t-20.5 52.5q0 33 20 53.5t52 20.5q31 0 51 -20.5t20 -53.5q0 -32 -20 -52.5t-51 -20.5zM271 851q0 33 20 53.5t52 20.5q31 0 51 -20.5t20 -53.5q0 -32 -20 -52.5t-51 -20.5t-51.5 20.5t-20.5 52.5zM451 569
h-123v-437h123v-132h-404v132h123v437h-123v131h404v-131z" />
    <glyph glyph-name="uni1E2F" unicode="&#x1e2f;" horiz-adv-x="302" 
d="M183 977l143 -53l-127 -110h-122zM57 763q31 0 51 -20.5t20 -53.5q0 -32 -20 -52.5t-51 -20.5t-51.5 20.5t-20.5 52.5q0 33 20 53.5t52 20.5zM245 763q31 0 51 -20.5t20 -53.5q0 -32 -20 -52.5t-51 -20.5t-51.5 20.5t-20.5 52.5q0 33 20 53.5t52 20.5zM74 538h154v-538
h-154v538z" />
    <glyph glyph-name="uni1E36" unicode="&#x1e36;" horiz-adv-x="552" 
d="M77 700h158v-562h300v-138h-458v700zM306 -50q33 0 54 -21.5t21 -55.5q0 -33 -21 -55t-54 -22t-54 22t-21 55q0 34 21 55.5t54 21.5z" />
    <glyph glyph-name="uni1E37" unicode="&#x1e37;" horiz-adv-x="332" 
d="M218 188q0 -58 48 -58q20 0 52 15l15 -128q-51 -24 -102 -24q-72 0 -119 47.5t-47 137.5v564h153v-554zM167 -50q33 0 54 -21.5t21 -55.5q0 -33 -21 -55t-54 -22t-54 22t-21 55q0 34 21 55.5t54 21.5z" />
    <glyph glyph-name="uni1E3A" unicode="&#x1e3a;" horiz-adv-x="552" 
d="M77 700h158v-562h300v-138h-458v700zM170 -63h271v-108h-271v108z" />
    <glyph glyph-name="uni1E3B" unicode="&#x1e3b;" horiz-adv-x="332" 
d="M218 188q0 -58 48 -58q20 0 52 15l15 -128q-51 -24 -102 -24q-72 0 -119 47.5t-47 137.5v564h153v-554zM31 -63h271v-108h-271v108z" />
    <glyph glyph-name="uni1E42" unicode="&#x1e42;" horiz-adv-x="1183" 
d="M890 700q101 0 165 -71t64 -185v-444h-160v405q0 66 -35.5 106.5t-94.5 40.5q-66 -1 -109 -50.5t-43 -124.5v-377h-160v405q0 66 -35.5 106.5t-94.5 40.5q-66 -1 -109 -50.5t-43 -124.5v-377h-158v700h158v-112q73 110 214 112q73 0 128 -39t81 -107q33 69 92.5 107
t139.5 39zM597 -50q33 0 54 -21.5t21 -55.5q0 -33 -21 -55t-54 -22t-54 22t-21 55q0 34 21 55.5t54 21.5z" />
    <glyph glyph-name="uni1E43" unicode="&#x1e43;" horiz-adv-x="1039" 
d="M786 544q89 0 141.5 -55.5t52.5 -150.5v-338h-153v293q0 52 -28 81t-76 29q-55 -1 -87 -39t-32 -98v-266h-153v293q0 51 -27.5 80.5t-75.5 29.5q-55 -1 -87.5 -39t-32.5 -98v-266h-154v538h154v-93q56 97 182 99q68 0 115 -32.5t67 -91.5q52 122 194 124zM528 -50
q33 0 54 -21.5t21 -55.5q0 -33 -21 -55t-54 -22t-54 22t-21 55q0 34 21 55.5t54 21.5z" />
    <glyph glyph-name="uni1E44" unicode="&#x1e44;" 
d="M422 775q-33 0 -54 22t-21 55q0 34 21 55.5t54 21.5t54 -21.5t21 -55.5q0 -33 -21 -55t-54 -22zM461 700q108 0 174.5 -70.5t66.5 -185.5v-444h-160v406q0 65 -38.5 105.5t-101.5 40.5q-74 -1 -120.5 -50.5t-46.5 -124.5v-377h-158v700h158v-115q76 113 226 115z" />
    <glyph glyph-name="uni1E45" unicode="&#x1e45;" horiz-adv-x="670" 
d="M351 613q-33 0 -54 22t-21 55q0 34 21 55.5t54 21.5t54 -21.5t21 -55.5q0 -33 -21 -55t-54 -22zM414 544q90 0 143.5 -56t53.5 -150v-338h-154v293q0 51 -28.5 80.5t-77.5 29.5q-57 -1 -90 -39.5t-33 -98.5v-265h-154v538h154v-94q56 98 186 100z" />
    <glyph glyph-name="uni1E46" unicode="&#x1e46;" 
d="M461 700q108 0 174.5 -70.5t66.5 -185.5v-444h-160v406q0 65 -38.5 105.5t-101.5 40.5q-74 -1 -120.5 -50.5t-46.5 -124.5v-377h-158v700h158v-115q76 113 226 115zM387 -50q33 0 54 -21.5t21 -55.5q0 -33 -21 -55t-54 -22t-54 22t-21 55q0 34 21 55.5t54 21.5z" />
    <glyph glyph-name="uni1E47" unicode="&#x1e47;" horiz-adv-x="670" 
d="M414 544q90 0 143.5 -56t53.5 -150v-338h-154v293q0 51 -28.5 80.5t-77.5 29.5q-57 -1 -90 -39.5t-33 -98.5v-265h-154v538h154v-94q56 98 186 100zM340 -50q33 0 54 -21.5t21 -55.5q0 -33 -21 -55t-54 -22t-54 22t-21 55q0 34 21 55.5t54 21.5z" />
    <glyph glyph-name="uni1E48" unicode="&#x1e48;" 
d="M461 700q108 0 174.5 -70.5t66.5 -185.5v-444h-160v406q0 65 -38.5 105.5t-101.5 40.5q-74 -1 -120.5 -50.5t-46.5 -124.5v-377h-158v700h158v-115q76 113 226 115zM251 -171v108h271v-108h-271z" />
    <glyph glyph-name="uni1E49" unicode="&#x1e49;" horiz-adv-x="670" 
d="M414 544q90 0 143.5 -56t53.5 -150v-338h-154v293q0 51 -28.5 80.5t-77.5 29.5q-57 -1 -90 -39.5t-33 -98.5v-265h-154v538h154v-94q56 98 186 100zM204 -171v108h271v-108h-271z" />
    <glyph glyph-name="uni1E4C" unicode="&#x1e4c;" horiz-adv-x="806" 
d="M428 1137l143 -53l-127 -110h-122zM569 929q0 -149 -100 -149q-34 0 -69.5 24.5t-47.5 24.5q-33 0 -33 -45h-95q0 151 100 151q32 0 69 -25t48 -25q33 0 33 44h95zM403 705q161 0 268.5 -101.5t107.5 -253.5t-108 -254.5t-268 -102.5t-268 102.5t-108 254.5
q0 153 107.5 254t268.5 101zM405 567q-89 0 -152.5 -63t-63.5 -154q0 -92 63.5 -155.5t152.5 -63.5q88 0 150 63.5t62 155.5t-62 154.5t-150 62.5z" />
    <glyph glyph-name="uni1E4D" unicode="&#x1e4d;" horiz-adv-x="633" 
d="M349 974l143 -53l-127 -110h-122zM490 766q0 -149 -100 -149q-34 0 -69.5 24.5t-47.5 24.5q-33 0 -33 -45h-95q0 151 100 151q33 0 69 -25t48 -25q33 0 33 44h95zM317 543q129 0 208.5 -75t79.5 -199q0 -123 -79.5 -199t-208.5 -76q-130 0 -209.5 76t-79.5 199
q0 124 79.5 199t209.5 75zM317 415q-60 0 -97.5 -41t-37.5 -107t37.5 -107t97.5 -41q59 0 96.5 41t37.5 107t-37.5 107t-96.5 41z" />
    <glyph glyph-name="uni1E4E" unicode="&#x1e4e;" horiz-adv-x="806" 
d="M302 1135q31 0 51 -20.5t20 -53.5q0 -32 -20 -52.5t-51 -20.5t-51.5 20.5t-20.5 52.5q0 33 20 53.5t52 20.5zM490 1135q31 0 51 -20.5t20 -53.5q0 -32 -20 -52.5t-51 -20.5t-51.5 20.5t-20.5 52.5q0 33 20 53.5t52 20.5zM569 929q0 -149 -100 -149q-34 0 -69.5 24.5
t-47.5 24.5q-33 0 -33 -45h-95q0 151 100 151q32 0 69 -25t48 -25q33 0 33 44h95zM403 705q161 0 268.5 -101.5t107.5 -253.5t-108 -254.5t-268 -102.5t-268 102.5t-108 254.5q0 153 107.5 254t268.5 101zM405 567q-89 0 -152.5 -63t-63.5 -154q0 -92 63.5 -155.5
t152.5 -63.5q88 0 150 63.5t62 155.5t-62 154.5t-150 62.5z" />
    <glyph glyph-name="uni1E4F" unicode="&#x1e4f;" horiz-adv-x="633" 
d="M223 972q31 0 51 -20.5t20 -53.5q0 -32 -20 -52.5t-51 -20.5t-51.5 20.5t-20.5 52.5q0 33 20 53.5t52 20.5zM411 972q31 0 51 -20.5t20 -53.5q0 -32 -20 -52.5t-51 -20.5t-51.5 20.5t-20.5 52.5q0 33 20 53.5t52 20.5zM490 766q0 -149 -100 -149q-34 0 -69.5 24.5
t-47.5 24.5q-33 0 -33 -45h-95q0 151 100 151q33 0 69 -25t48 -25q33 0 33 44h95zM317 543q129 0 208.5 -75t79.5 -199q0 -123 -79.5 -199t-208.5 -76q-130 0 -209.5 76t-79.5 199q0 124 79.5 199t209.5 75zM317 415q-60 0 -97.5 -41t-37.5 -107t37.5 -107t97.5 -41
q59 0 96.5 41t37.5 107t-37.5 107t-96.5 41z" />
    <glyph glyph-name="uni1E50" unicode="&#x1e50;" horiz-adv-x="806" 
d="M363 1121l107 -163h-123l-127 110zM260 892h271v-108h-271v108zM403 705q161 0 268.5 -101.5t107.5 -253.5t-108 -254.5t-268 -102.5t-268 102.5t-108 254.5q0 153 107.5 254t268.5 101zM405 567q-89 0 -152.5 -63t-63.5 -154q0 -92 63.5 -155.5t152.5 -63.5
q88 0 150 63.5t62 155.5t-62 154.5t-150 62.5z" />
    <glyph glyph-name="uni1E51" unicode="&#x1e51;" horiz-adv-x="633" 
d="M284 958l107 -163h-123l-127 110zM181 729h271v-108h-271v108zM317 543q129 0 208.5 -75t79.5 -199q0 -123 -79.5 -199t-208.5 -76q-130 0 -209.5 76t-79.5 199q0 124 79.5 199t209.5 75zM317 415q-60 0 -97.5 -41t-37.5 -107t37.5 -107t97.5 -41q59 0 96.5 41t37.5 107
t-37.5 107t-96.5 41z" />
    <glyph glyph-name="uni1E52" unicode="&#x1e52;" horiz-adv-x="806" 
d="M428 1121l143 -53l-127 -110h-122zM260 892h271v-108h-271v108zM403 705q161 0 268.5 -101.5t107.5 -253.5t-108 -254.5t-268 -102.5t-268 102.5t-108 254.5q0 153 107.5 254t268.5 101zM405 567q-89 0 -152.5 -63t-63.5 -154q0 -92 63.5 -155.5t152.5 -63.5
q88 0 150 63.5t62 155.5t-62 154.5t-150 62.5z" />
    <glyph glyph-name="uni1E53" unicode="&#x1e53;" horiz-adv-x="633" 
d="M349 958l143 -53l-127 -110h-122zM181 729h271v-108h-271v108zM317 543q129 0 208.5 -75t79.5 -199q0 -123 -79.5 -199t-208.5 -76q-130 0 -209.5 76t-79.5 199q0 124 79.5 199t209.5 75zM317 415q-60 0 -97.5 -41t-37.5 -107t37.5 -107t97.5 -41q59 0 96.5 41t37.5 107
t-37.5 107t-96.5 41z" />
    <glyph glyph-name="uni1E5A" unicode="&#x1e5a;" horiz-adv-x="724" 
d="M537 231l149 -231h-179l-111 200h-15h-146v-200h-158v700h304q137 0 212 -63.5t75 -179.5q0 -164 -131 -226zM235 569v-237h146q66 0 101.5 30.5t35.5 89.5q0 58 -35.5 87.5t-101.5 29.5h-146zM360 -50q33 0 54 -21.5t21 -55.5q0 -33 -21 -55t-54 -22t-54 22t-21 55
q0 34 21 55.5t54 21.5z" />
    <glyph glyph-name="uni1E5B" unicode="&#x1e5b;" horiz-adv-x="416" 
d="M228 441q57 101 178 103v-145q-81 7 -129.5 -32t-48.5 -108v-259h-154v538h154v-97zM150 -50q33 0 54 -21.5t21 -55.5q0 -33 -21 -55t-54 -22t-54 22t-21 55q0 34 21 55.5t54 21.5z" />
    <glyph glyph-name="uni1E5E" unicode="&#x1e5e;" horiz-adv-x="724" 
d="M537 231l149 -231h-179l-111 200h-15h-146v-200h-158v700h304q137 0 212 -63.5t75 -179.5q0 -164 -131 -226zM235 569v-237h146q66 0 101.5 30.5t35.5 89.5q0 58 -35.5 87.5t-101.5 29.5h-146zM224 -171v108h271v-108h-271z" />
    <glyph glyph-name="uni1E5F" unicode="&#x1e5f;" horiz-adv-x="416" 
d="M228 441q57 101 178 103v-145q-81 7 -129.5 -32t-48.5 -108v-259h-154v538h154v-97zM14 -171v108h271v-108h-271z" />
    <glyph glyph-name="uni1E60" unicode="&#x1e60;" horiz-adv-x="637" 
d="M333 929q33 0 54 -21.5t21 -55.5q0 -33 -21 -55t-54 -22t-54 22t-21 55q0 34 21 55.5t54 21.5zM538 500q-55 33 -115 52.5t-103 19.5q-41 0 -65 -14.5t-24 -42.5q0 -30 27.5 -50.5t69 -31t90 -27t89.5 -37t68.5 -62.5t27.5 -101q0 -100 -77 -155.5t-197 -55.5
q-85 0 -167 30t-142 81l63 129q53 -47 122.5 -76t125.5 -29q49 0 76.5 17.5t27.5 49.5q0 30 -27.5 51t-69 31t-90 26t-90 35.5t-69 60.5t-27.5 99q0 95 74.5 151t196.5 56q150 0 266 -76z" />
    <glyph glyph-name="uni1E61" unicode="&#x1e61;" horiz-adv-x="499" 
d="M258 767q33 0 54 -21.5t21 -55.5q0 -33 -21 -55t-54 -22t-54 22t-21 55q0 34 21 55.5t54 21.5zM413 380q-93 52 -164 52q-62 0 -62 -40q0 -22 29 -36t71 -25.5t83.5 -28t70.5 -52t29 -88.5q0 -80 -62 -124t-157 -44q-140 0 -233 75l50 104q87 -67 187 -67q68 0 68 42
q0 23 -28.5 38t-69.5 26t-82.5 27t-70 51t-28.5 87q0 80 60 124t152 44q115 0 210 -60z" />
    <glyph glyph-name="uni1E62" unicode="&#x1e62;" horiz-adv-x="637" 
d="M538 500q-55 33 -115 52.5t-103 19.5q-41 0 -65 -14.5t-24 -42.5q0 -30 27.5 -50.5t69 -31t90 -27t89.5 -37t68.5 -62.5t27.5 -101q0 -100 -77 -155.5t-197 -55.5q-85 0 -167 30t-142 81l63 129q53 -47 122.5 -76t125.5 -29q49 0 76.5 17.5t27.5 49.5q0 30 -27.5 51
t-69 31t-90 26t-90 35.5t-69 60.5t-27.5 99q0 95 74.5 151t196.5 56q150 0 266 -76zM326 -50q33 0 54 -21.5t21 -55.5q0 -33 -21 -55t-54 -22t-54 22t-21 55q0 34 21 55.5t54 21.5z" />
    <glyph glyph-name="uni1E63" unicode="&#x1e63;" horiz-adv-x="499" 
d="M413 380q-93 52 -164 52q-62 0 -62 -40q0 -22 29 -36t71 -25.5t83.5 -28t70.5 -52t29 -88.5q0 -80 -62 -124t-157 -44q-140 0 -233 75l50 104q87 -67 187 -67q68 0 68 42q0 23 -28.5 38t-69.5 26t-82.5 27t-70 51t-28.5 87q0 80 60 124t152 44q115 0 210 -60zM248 -50
q33 0 54 -21.5t21 -55.5q0 -33 -21 -55t-54 -22t-54 22t-21 55q0 34 21 55.5t54 21.5z" />
    <glyph glyph-name="uni1E64" unicode="&#x1e64;" horiz-adv-x="637" 
d="M333 1131q33 0 54 -21.5t21 -55.5q0 -33 -21 -55t-54 -22t-54 22t-21 55q0 34 21 55.5t54 21.5zM365 927l143 -53l-127 -110h-122zM538 500q-55 33 -115 52.5t-103 19.5q-41 0 -65 -14.5t-24 -42.5q0 -30 27.5 -50.5t69 -31t90 -27t89.5 -37t68.5 -62.5t27.5 -101
q0 -100 -77 -155.5t-197 -55.5q-85 0 -167 30t-142 81l63 129q53 -47 122.5 -76t125.5 -29q49 0 76.5 17.5t27.5 49.5q0 30 -27.5 51t-69 31t-90 26t-90 35.5t-69 60.5t-27.5 99q0 95 74.5 151t196.5 56q150 0 266 -76z" />
    <glyph glyph-name="uni1E65" unicode="&#x1e65;" horiz-adv-x="499" 
d="M258 969q33 0 54 -21.5t21 -55.5q0 -33 -21 -55t-54 -22t-54 22t-21 55q0 34 21 55.5t54 21.5zM290 765l143 -53l-127 -110h-122zM413 380q-93 52 -164 52q-62 0 -62 -40q0 -22 29 -36t71 -25.5t83.5 -28t70.5 -52t29 -88.5q0 -80 -62 -124t-157 -44q-140 0 -233 75
l50 104q87 -67 187 -67q68 0 68 42q0 23 -28.5 38t-69.5 26t-82.5 27t-70 51t-28.5 87q0 80 60 124t152 44q115 0 210 -60z" />
    <glyph glyph-name="uni1E66" unicode="&#x1e66;" horiz-adv-x="637" 
d="M333 1128q33 0 54 -21.5t21 -55.5q0 -33 -21 -55t-54 -22t-54 22t-21 55q0 34 21 55.5t54 21.5zM147 922h124l62 -92l62 92h124l-117 -160h-138zM538 500q-55 33 -115 52.5t-103 19.5q-41 0 -65 -14.5t-24 -42.5q0 -30 27.5 -50.5t69 -31t90 -27t89.5 -37t68.5 -62.5
t27.5 -101q0 -100 -77 -155.5t-197 -55.5q-85 0 -167 30t-142 81l63 129q53 -47 122.5 -76t125.5 -29q49 0 76.5 17.5t27.5 49.5q0 30 -27.5 51t-69 31t-90 26t-90 35.5t-69 60.5t-27.5 99q0 95 74.5 151t196.5 56q150 0 266 -76z" />
    <glyph glyph-name="uni1E67" unicode="&#x1e67;" horiz-adv-x="499" 
d="M258 966q33 0 54 -21.5t21 -55.5q0 -33 -21 -55t-54 -22t-54 22t-21 55q0 34 21 55.5t54 21.5zM72 760h124l62 -92l62 92h124l-117 -160h-138zM413 380q-93 52 -164 52q-62 0 -62 -40q0 -22 29 -36t71 -25.5t83.5 -28t70.5 -52t29 -88.5q0 -80 -62 -124t-157 -44
q-140 0 -233 75l50 104q87 -67 187 -67q68 0 68 42q0 23 -28.5 38t-69.5 26t-82.5 27t-70 51t-28.5 87q0 80 60 124t152 44q115 0 210 -60z" />
    <glyph glyph-name="uni1E68" unicode="&#x1e68;" horiz-adv-x="637" 
d="M333 929q33 0 54 -21.5t21 -55.5q0 -33 -21 -55t-54 -22t-54 22t-21 55q0 34 21 55.5t54 21.5zM538 500q-55 33 -115 52.5t-103 19.5q-41 0 -65 -14.5t-24 -42.5q0 -30 27.5 -50.5t69 -31t90 -27t89.5 -37t68.5 -62.5t27.5 -101q0 -100 -77 -155.5t-197 -55.5
q-85 0 -167 30t-142 81l63 129q53 -47 122.5 -76t125.5 -29q49 0 76.5 17.5t27.5 49.5q0 30 -27.5 51t-69 31t-90 26t-90 35.5t-69 60.5t-27.5 99q0 95 74.5 151t196.5 56q150 0 266 -76zM326 -50q33 0 54 -21.5t21 -55.5q0 -33 -21 -55t-54 -22t-54 22t-21 55q0 34 21 55.5
t54 21.5z" />
    <glyph glyph-name="uni1E69" unicode="&#x1e69;" horiz-adv-x="499" 
d="M258 767q33 0 54 -21.5t21 -55.5q0 -33 -21 -55t-54 -22t-54 22t-21 55q0 34 21 55.5t54 21.5zM413 380q-93 52 -164 52q-62 0 -62 -40q0 -22 29 -36t71 -25.5t83.5 -28t70.5 -52t29 -88.5q0 -80 -62 -124t-157 -44q-140 0 -233 75l50 104q87 -67 187 -67q68 0 68 42
q0 23 -28.5 38t-69.5 26t-82.5 27t-70 51t-28.5 87q0 80 60 124t152 44q115 0 210 -60zM248 -50q33 0 54 -21.5t21 -55.5q0 -33 -21 -55t-54 -22t-54 22t-21 55q0 34 21 55.5t54 21.5z" />
    <glyph glyph-name="uni1E6C" unicode="&#x1e6c;" horiz-adv-x="674" 
d="M646 629l-47 -127q-85 44 -186 59v-561h-158v561q-101 -14 -187 -59l-47 128q139 77 312 77q172 0 313 -78zM334 -50q33 0 54 -21.5t21 -55.5q0 -33 -21 -55t-54 -22t-54 22t-21 55q0 34 21 55.5t54 21.5z" />
    <glyph glyph-name="uni1E6D" unicode="&#x1e6d;" horiz-adv-x="390" 
d="M371 30q-64 -37 -137 -37q-76 0 -124 47t-48 131v491h153v-148h147v-107h-147v-210q0 -74 55 -74q32 0 69 20zM224 -50q33 0 54 -21.5t21 -55.5q0 -33 -21 -55t-54 -22t-54 22t-21 55q0 34 21 55.5t54 21.5z" />
    <glyph glyph-name="uni1E6E" unicode="&#x1e6e;" horiz-adv-x="674" 
d="M333 707q172 0 313 -78l-47 -127q-85 44 -186 59v-561h-158v561q-101 -14 -187 -59l-47 128q139 77 312 77zM198 -171v108h271v-108h-271z" />
    <glyph glyph-name="uni1E6F" unicode="&#x1e6f;" horiz-adv-x="390" 
d="M234 -7q-76 0 -124 47t-48 131v491h153v-148h147v-107h-147v-210q0 -74 55 -74q32 0 69 20l32 -113q-64 -37 -137 -37zM88 -171v108h271v-108h-271z" />
    <glyph glyph-name="uni1E78" unicode="&#x1e78;" 
d="M528 1084l-127 -110h-122l106 163zM309 829q-33 0 -33 -45h-95q0 151 100 151q33 0 69.5 -25t47.5 -25q33 0 33 44h95q0 -149 -100 -149q-34 0 -69.5 24.5t-47.5 24.5zM531 700h158v-700h-158v115q-76 -113 -226 -115q-108 0 -174.5 70.5t-66.5 185.5v444h160v-406
q0 -65 38.5 -105.5t101.5 -40.5q74 1 120.5 50.5t46.5 124.5v377z" />
    <glyph glyph-name="uni1E79" unicode="&#x1e79;" horiz-adv-x="660" 
d="M497 922l-127 -110h-122l106 163zM278 667q-33 0 -33 -45h-95q0 151 100 151q32 0 69 -25t48 -25q33 0 33 44h95q0 -149 -100 -149q-34 0 -69.5 24.5t-47.5 24.5zM432 538h153v-538h-153v95q-55 -101 -180 -101q-89 0 -141.5 55.5t-52.5 150.5v338h154v-294q0 -51 27 -80
t74 -29q55 1 87 39t32 98v266z" />
    <glyph glyph-name="uni1E7A" unicode="&#x1e7a;" 
d="M259 972q-31 0 -51.5 20.5t-20.5 52.5q0 33 20 53.5t52 20.5q31 0 51 -20.5t20 -53.5q0 -32 -20 -52.5t-51 -20.5zM447 972q-31 0 -51.5 20.5t-20.5 52.5q0 33 20 53.5t52 20.5q31 0 51 -20.5t20 -53.5q0 -32 -20 -52.5t-51 -20.5zM217 784v108h271v-108h-271zM531 700
h158v-700h-158v115q-76 -113 -226 -115q-108 0 -174.5 70.5t-66.5 185.5v444h160v-406q0 -65 38.5 -105.5t101.5 -40.5q74 1 120.5 50.5t46.5 124.5v377z" />
    <glyph glyph-name="uni1E7B" unicode="&#x1e7b;" horiz-adv-x="660" 
d="M228 810q-31 0 -51.5 20.5t-20.5 52.5q0 33 20 53.5t52 20.5q31 0 51 -20.5t20 -53.5q0 -32 -20 -52.5t-51 -20.5zM416 810q-31 0 -51.5 20.5t-20.5 52.5q0 33 20 53.5t52 20.5q31 0 51 -20.5t20 -53.5q0 -32 -20 -52.5t-51 -20.5zM186 622v108h271v-108h-271zM432 538
h153v-538h-153v95q-55 -101 -180 -101q-89 0 -141.5 55.5t-52.5 150.5v338h154v-294q0 -51 27 -80t74 -29q55 1 87 39t32 98v266z" />
    <glyph glyph-name="Wgrave" unicode="&#x1e80;" horiz-adv-x="1170" 
d="M558 928l107 -163h-123l-127 110zM1106 270q0 -122 -76 -199.5t-196 -77.5q-81 0 -148.5 36t-99.5 94q-31 -58 -98 -94t-149 -36q-121 0 -198 77.5t-77 199.5v430h158v-430q0 -61 40 -100t102 -39q63 0 102.5 38.5t40.5 100.5v430h158v-430q0 -61 40.5 -100t104.5 -39
q62 0 100 38.5t38 100.5v430h158v-430z" />
    <glyph glyph-name="wgrave" unicode="&#x1e81;" horiz-adv-x="976" 
d="M462 766l107 -163h-123l-127 110zM920 229q0 -106 -62.5 -171t-165.5 -65q-62 0 -118.5 30.5t-84.5 79.5q-27 -49 -83 -79.5t-119 -30.5q-103 0 -166.5 65t-63.5 171v309h153v-302q0 -46 28 -74.5t74 -28.5t73 28t27 75v302h152v-302q0 -46 29 -74.5t76 -28.5
q44 0 71 28.5t27 74.5v302h153v-309z" />
    <glyph glyph-name="Wacute" unicode="&#x1e82;" horiz-adv-x="1170" 
d="M611 927l143 -53l-127 -110h-122zM1106 270q0 -122 -76 -199.5t-196 -77.5q-81 0 -148.5 36t-99.5 94q-31 -58 -98 -94t-149 -36q-121 0 -198 77.5t-77 199.5v430h158v-430q0 -61 40 -100t102 -39q63 0 102.5 38.5t40.5 100.5v430h158v-430q0 -61 40.5 -100t104.5 -39
q62 0 100 38.5t38 100.5v430h158v-430z" />
    <glyph glyph-name="wacute" unicode="&#x1e83;" horiz-adv-x="976" 
d="M515 765l143 -53l-127 -110h-122zM920 229q0 -106 -62.5 -171t-165.5 -65q-62 0 -118.5 30.5t-84.5 79.5q-27 -49 -83 -79.5t-119 -30.5q-103 0 -166.5 65t-63.5 171v309h153v-302q0 -46 28 -74.5t74 -28.5t73 28t27 75v302h152v-302q0 -46 29 -74.5t76 -28.5
q44 0 71 28.5t27 74.5v302h153v-309z" />
    <glyph glyph-name="Wdieresis" unicode="&#x1e84;" horiz-adv-x="1170" 
d="M492 925q31 0 51 -20.5t20 -53.5q0 -32 -20 -52.5t-51 -20.5t-51.5 20.5t-20.5 52.5q0 33 20 53.5t52 20.5zM680 925q31 0 51 -20.5t20 -53.5q0 -32 -20 -52.5t-51 -20.5t-51.5 20.5t-20.5 52.5q0 33 20 53.5t52 20.5zM1106 270q0 -122 -76 -199.5t-196 -77.5
q-81 0 -148.5 36t-99.5 94q-31 -58 -98 -94t-149 -36q-121 0 -198 77.5t-77 199.5v430h158v-430q0 -61 40 -100t102 -39q63 0 102.5 38.5t40.5 100.5v430h158v-430q0 -61 40.5 -100t104.5 -39q62 0 100 38.5t38 100.5v430h158v-430z" />
    <glyph glyph-name="wdieresis" unicode="&#x1e85;" horiz-adv-x="976" 
d="M396 763q31 0 51 -20.5t20 -53.5q0 -32 -20 -52.5t-51 -20.5t-51.5 20.5t-20.5 52.5q0 33 20 53.5t52 20.5zM584 763q31 0 51 -20.5t20 -53.5q0 -32 -20 -52.5t-51 -20.5t-51.5 20.5t-20.5 52.5q0 33 20 53.5t52 20.5zM920 229q0 -106 -62.5 -171t-165.5 -65
q-62 0 -118.5 30.5t-84.5 79.5q-27 -49 -83 -79.5t-119 -30.5q-103 0 -166.5 65t-63.5 171v309h153v-302q0 -46 28 -74.5t74 -28.5t73 28t27 75v302h152v-302q0 -46 29 -74.5t76 -28.5q44 0 71 28.5t27 74.5v302h153v-309z" />
    <glyph glyph-name="uni1E8E" unicode="&#x1e8e;" horiz-adv-x="741" 
d="M371 775q-33 0 -54 22t-21 55q0 34 21 55.5t54 21.5t54 -21.5t21 -55.5q0 -33 -21 -55t-54 -22zM520 700h157v-519q0 -129 -86 -208.5t-226 -79.5q-83 0 -163 29t-130 77l67 110q39 -35 96 -56.5t110 -21.5q77 0 126 43t49 111v78q-70 -107 -203 -109q-113 0 -183 74
t-70 192v280h158v-265q0 -62 39.5 -100.5t103.5 -38.5q68 1 111.5 48t43.5 122v234z" />
    <glyph glyph-name="uni1E8F" unicode="&#x1e8f;" horiz-adv-x="661" 
d="M327 613q-33 0 -54 22t-21 55q0 34 21 55.5t54 21.5t54 -21.5t21 -55.5q0 -33 -21 -55t-54 -22zM441 538h153v-482q0 -115 -77 -186t-202 -70q-60 1 -126 21.5t-110 53.5l38 109q86 -57 181 -59q65 0 104 36.5t39 97.5v78q-55 -91 -175 -93q-96 0 -152 56t-56 151v287
h154v-242q0 -51 28.5 -80.5t77.5 -29.5q58 1 90.5 39t32.5 104v209z" />
    <glyph glyph-name="uni1E92" unicode="&#x1e92;" horiz-adv-x="672" 
d="M244 132h397l-1 -132h-609v107l165 194h-103v111h197l133 156h-379v132h591v-106l-163 -193h95v-111h-189zM336 -50q33 0 54 -21.5t21 -55.5q0 -33 -21 -55t-54 -22t-54 22t-21 55q0 34 21 55.5t54 21.5z" />
    <glyph glyph-name="uni1E93" unicode="&#x1e93;" horiz-adv-x="548" 
d="M230 121h287v-122l-479 1v97l113 130h-77v95h159l82 94l-268 1v121l460 -1v-97l-109 -126h73v-95h-156zM277 -50q33 0 54 -21.5t21 -55.5q0 -33 -21 -55t-54 -22t-54 22t-21 55q0 34 21 55.5t54 21.5z" />
    <glyph glyph-name="uni1E97" unicode="&#x1e97;" horiz-adv-x="390" 
d="M116 813q0 -32 -20 -52.5t-51 -20.5t-51.5 20.5t-20.5 52.5q0 33 20 53.5t52 20.5q31 0 51 -20.5t20 -53.5zM233 740q-31 0 -51.5 20.5t-20.5 52.5q0 33 20 53.5t52 20.5q31 0 51 -20.5t20 -53.5q0 -32 -20 -52.5t-51 -20.5zM339 143l32 -113q-64 -37 -137 -37
q-76 0 -124 47t-48 131v491h153v-148h147v-107h-147v-210q0 -74 55 -74q32 0 69 20z" />
    <glyph glyph-name="uni1E9E" unicode="&#x1e9e;" horiz-adv-x="698" 
d="M523 398q71 -20 110 -69.5t39 -122.5q0 -95 -67.5 -150.5t-190.5 -55.5h-81v129h67q51 0 80.5 23t29.5 63q0 41 -29 64t-81 23h-35v108l121 141q-43 19 -100 19q-79 0 -122.5 -45t-43.5 -125v-400h-158v392q0 148 83 230.5t231 82.5q138 0 242 -75v-121z" />
    <glyph glyph-name="uni1EA0" unicode="&#x1ea0;" horiz-adv-x="764" 
d="M64 406q0 138 85.5 219.5t230.5 81.5q148 0 234 -81.5t86 -219.5v-406h-158v173h-320v-173h-158v406zM542 406q-1 75 -43.5 119t-116.5 44t-117 -44t-43 -119v-105h320v105zM383 -55q32 0 53 -21.5t21 -53.5t-21 -53.5t-53 -21.5t-52.5 21.5t-20.5 53.5q-1 32 20 53.5
t53 21.5z" />
    <glyph glyph-name="uni1EA1" unicode="&#x1ea1;" horiz-adv-x="679" 
d="M451 538h153v-538h-153v77q-60 -83 -169 -83q-115 0 -184.5 76t-69.5 201q0 122 68.5 197t180.5 76q113 0 174 -84v78zM318 118q54 0 90.5 36t42.5 95v36q-6 59 -42.5 95t-90.5 36q-60 0 -97.5 -41.5t-38.5 -107.5q1 -66 38.5 -107.5t97.5 -41.5zM333 -55q32 0 53 -21.5
t21 -53.5t-21 -53.5t-53 -21.5t-52.5 21.5t-20.5 53.5q-1 32 20 53.5t53 21.5z" />
    <glyph glyph-name="uni1EA2" unicode="&#x1ea2;" horiz-adv-x="764" 
d="M266 862q7 41 39 64t79 23q51 0 81 -28t30 -72q0 -55 -62 -107l-66 22q54 46 54 78q0 16 -10.5 27t-29.5 11q-41 0 -46 -42zM64 406q0 138 85.5 219.5t230.5 81.5q148 0 234 -81.5t86 -219.5v-406h-158v173h-320v-173h-158v406zM542 406q-1 75 -43.5 119t-116.5 44
t-117 -44t-43 -119v-105h320v105z" />
    <glyph glyph-name="uni1EA3" unicode="&#x1ea3;" horiz-adv-x="679" 
d="M339 718q-41 0 -46 -42l-69 24q7 41 39 64t79 23q51 0 81 -28t30 -72q0 -55 -62 -107l-66 22q54 46 54 78q0 16 -10.5 27t-29.5 11zM451 538h153v-538h-153v77q-60 -83 -169 -83q-115 0 -184.5 76t-69.5 201q0 122 68.5 197t180.5 76q113 0 174 -84v78zM318 118
q54 0 90.5 36t42.5 95v36q-6 59 -42.5 95t-90.5 36q-60 0 -97.5 -41.5t-38.5 -107.5q1 -66 38.5 -107.5t97.5 -41.5z" />
    <glyph glyph-name="uni1EA4" unicode="&#x1ea4;" horiz-adv-x="764" 
d="M597 1006l115 -47l-116 -96h-96zM325 900h114l98 -132h-100l-55 78l-55 -78h-100zM64 406q0 138 85.5 219.5t230.5 81.5q148 0 234 -81.5t86 -219.5v-406h-158v173h-320v-173h-158v406zM542 406q-1 75 -43.5 119t-116.5 44t-117 -44t-43 -119v-105h320v105z" />
    <glyph glyph-name="uni1EA5" unicode="&#x1ea5;" horiz-adv-x="679" 
d="M670 797l-116 -96h-96l97 143zM340 684l-55 -78h-100l98 132h114l98 -132h-100zM451 460v78h153v-538h-153v77q-60 -83 -169 -83q-115 0 -184.5 76t-69.5 201q0 122 68.5 197t180.5 76q113 0 174 -84zM318 118q54 0 90.5 36t42.5 95v36q-6 59 -42.5 95t-90.5 36
q-60 0 -97.5 -41.5t-38.5 -107.5q1 -66 38.5 -107.5t97.5 -41.5z" />
    <glyph glyph-name="uni1EA6" unicode="&#x1ea6;" horiz-adv-x="764" 
d="M533 1006l97 -143h-97l-115 96zM325 900h114l98 -132h-100l-55 78l-55 -78h-100zM64 406q0 138 85.5 219.5t230.5 81.5q148 0 234 -81.5t86 -219.5v-406h-158v173h-320v-173h-158v406zM542 406q-1 75 -43.5 119t-116.5 44t-117 -44t-43 -119v-105h320v105z" />
    <glyph glyph-name="uni1EA7" unicode="&#x1ea7;" horiz-adv-x="679" 
d="M588 701h-97l-115 96l115 47zM340 684l-55 -78h-100l98 132h114l98 -132h-100zM451 538h153v-538h-153v77q-60 -83 -169 -83q-115 0 -184.5 76t-69.5 201q0 122 68.5 197t180.5 76q113 0 174 -84v78zM318 118q54 0 90.5 36t42.5 95v36q-6 59 -42.5 95t-90.5 36
q-60 0 -97.5 -41.5t-38.5 -107.5q1 -66 38.5 -107.5t97.5 -41.5z" />
    <glyph glyph-name="uni1EA8" unicode="&#x1ea8;" horiz-adv-x="764" 
d="M405 965q7 39 36.5 60.5t73.5 21.5q47 0 75.5 -26t28.5 -66q0 -54 -62 -106l-61 20q54 44 54 79q0 16 -10 26t-27 10q-39 0 -44 -41zM325 900h114l98 -132h-100l-55 78l-55 -78h-100zM64 406q0 138 85.5 219.5t230.5 81.5q148 0 234 -81.5t86 -219.5v-406h-158v173h-320
v-173h-158v406zM542 406q-1 75 -43.5 119t-116.5 44t-117 -44t-43 -119v-105h320v105z" />
    <glyph glyph-name="uni1EA9" unicode="&#x1ea9;" horiz-adv-x="679" 
d="M471 822q-39 0 -44 -41l-64 22q7 39 36.5 60.5t73.5 21.5q47 0 75.5 -26t28.5 -66q0 -54 -62 -106l-61 20q54 44 54 79q0 16 -10 26t-27 10zM340 684l-55 -78h-100l98 132h114l98 -132h-100zM451 538h153v-538h-153v77q-60 -83 -169 -83q-115 0 -184.5 76t-69.5 201
q0 122 68.5 197t180.5 76q113 0 174 -84v78zM318 118q54 0 90.5 36t42.5 95v36q-6 59 -42.5 95t-90.5 36q-60 0 -97.5 -41.5t-38.5 -107.5q1 -66 38.5 -107.5t97.5 -41.5z" />
    <glyph glyph-name="uni1EAA" unicode="&#x1eaa;" horiz-adv-x="764" 
d="M530 1050q0 -126 -87 -126q-30 0 -62 22t-43 22q-30 0 -30 -40h-80q0 127 87 127q28 0 61 -22.5t44 -22.5q30 0 30 40h80zM325 900h114l98 -132h-100l-55 78l-55 -78h-100zM64 406q0 138 85.5 219.5t230.5 81.5q148 0 234 -81.5t86 -219.5v-406h-158v173h-320v-173h-158
v406zM542 406q-1 75 -43.5 119t-116.5 44t-117 -44t-43 -119v-105h320v105z" />
    <glyph glyph-name="uni1EAB" unicode="&#x1eab;" horiz-adv-x="679" 
d="M296 806q-30 0 -30 -40h-80q0 127 87 127q28 0 61 -22.5t44 -22.5q30 0 30 40h80q0 -126 -87 -126q-30 0 -62 22t-43 22zM340 684l-55 -78h-100l98 132h114l98 -132h-100zM451 538h153v-538h-153v77q-60 -83 -169 -83q-115 0 -184.5 76t-69.5 201q0 122 68.5 197
t180.5 76q113 0 174 -84v78zM318 118q54 0 90.5 36t42.5 95v36q-6 59 -42.5 95t-90.5 36q-60 0 -97.5 -41.5t-38.5 -107.5q1 -66 38.5 -107.5t97.5 -41.5z" />
    <glyph glyph-name="uni1EAC" unicode="&#x1eac;" horiz-adv-x="764" 
d="M439 896l98 -132h-100l-55 78l-55 -78h-100l98 132h114zM64 406q0 138 85.5 219.5t230.5 81.5q148 0 234 -81.5t86 -219.5v-406h-158v173h-320v-173h-158v406zM542 406q-1 75 -43.5 119t-116.5 44t-117 -44t-43 -119v-105h320v105zM383 -55q32 0 53 -21.5t21 -53.5
t-21 -53.5t-53 -21.5t-52.5 21.5t-20.5 53.5q-1 32 20 53.5t53 21.5z" />
    <glyph glyph-name="uni1EAD" unicode="&#x1ead;" horiz-adv-x="679" 
d="M340 680l-55 -78h-100l98 132h114l98 -132h-100zM451 538h153v-538h-153v77q-60 -83 -169 -83q-115 0 -184.5 76t-69.5 201q0 122 68.5 197t180.5 76q113 0 174 -84v78zM318 118q54 0 90.5 36t42.5 95v36q-6 59 -42.5 95t-90.5 36q-60 0 -97.5 -41.5t-38.5 -107.5
q1 -66 38.5 -107.5t97.5 -41.5zM333 -55q32 0 53 -21.5t21 -53.5t-21 -53.5t-53 -21.5t-52.5 21.5t-20.5 53.5q-1 32 20 53.5t53 21.5z" />
    <glyph glyph-name="uni1EAE" unicode="&#x1eae;" horiz-adv-x="764" 
d="M430 1066l127 -48l-115 -96h-109zM330 896q2 -23 16 -38t36 -15t36 15t16 38h84q-3 -59 -40 -95t-96 -36t-96 36t-40 95h84zM64 406q0 138 85.5 219.5t230.5 81.5q148 0 234 -81.5t86 -219.5v-406h-158v173h-320v-173h-158v406zM542 406q-1 75 -43.5 119t-116.5 44
t-117 -44t-43 -119v-105h320v105z" />
    <glyph glyph-name="uni1EAF" unicode="&#x1eaf;" horiz-adv-x="679" 
d="M515 856l-115 -96h-109l97 144zM340 603q-59 0 -96 36t-40 95h84q2 -23 16 -38t36 -15t36 15t16 38h84q-3 -59 -40 -95t-96 -36zM451 538h153v-538h-153v77q-60 -83 -169 -83q-115 0 -184.5 76t-69.5 201q0 122 68.5 197t180.5 76q113 0 174 -84v78zM318 118
q54 0 90.5 36t42.5 95v36q-6 59 -42.5 95t-90.5 36q-60 0 -97.5 -41.5t-38.5 -107.5q1 -66 38.5 -107.5t97.5 -41.5z" />
    <glyph glyph-name="uni1EB0" unicode="&#x1eb0;" horiz-adv-x="764" 
d="M336 1066l96 -143h-108l-115 96zM330 896q2 -23 16 -38t36 -15t36 15t16 38h84q-3 -59 -40 -95t-96 -36t-96 36t-40 95h84zM64 406q0 138 85.5 219.5t230.5 81.5q148 0 234 -81.5t86 -219.5v-406h-158v173h-320v-173h-158v406zM542 406q-1 75 -43.5 119t-116.5 44
t-117 -44t-43 -119v-105h320v105z" />
    <glyph glyph-name="uni1EB1" unicode="&#x1eb1;" horiz-adv-x="679" 
d="M390 761h-108l-115 96l127 47zM340 681q22 0 36 15t16 38h84q-3 -59 -40 -95t-96 -36t-96 36t-40 95h84q2 -23 16 -38t36 -15zM451 538h153v-538h-153v77q-60 -83 -169 -83q-115 0 -184.5 76t-69.5 201q0 122 68.5 197t180.5 76q113 0 174 -84v78zM318 118q54 0 90.5 36
t42.5 95v36q-6 59 -42.5 95t-90.5 36q-60 0 -97.5 -41.5t-38.5 -107.5q1 -66 38.5 -107.5t97.5 -41.5z" />
    <glyph glyph-name="uni1EB2" unicode="&#x1eb2;" horiz-adv-x="764" 
d="M279 1022q7 39 36.5 60.5t73.5 21.5q47 0 75.5 -26t28.5 -66q0 -54 -62 -106l-61 20q54 44 54 79q0 16 -10 26t-27 10q-39 0 -44 -41zM330 896q2 -23 16 -38t36 -15t36 15t16 38h84q-3 -59 -40 -95t-96 -36t-96 36t-40 95h84zM64 406q0 138 85.5 219.5t230.5 81.5
q148 0 234 -81.5t86 -219.5v-406h-158v173h-320v-173h-158v406zM542 406q-1 75 -43.5 119t-116.5 44t-117 -44t-43 -119v-105h320v105z" />
    <glyph glyph-name="uni1EB3" unicode="&#x1eb3;" horiz-adv-x="679" 
d="M345 879q-39 0 -44 -41l-64 22q7 39 36.5 60.5t73.5 21.5q47 0 75.5 -26t28.5 -66q0 -54 -62 -106l-61 20q54 44 54 79q0 16 -10 26t-27 10zM340 603q-59 0 -96 36t-40 95h84q2 -23 16 -38t36 -15t36 15t16 38h84q-3 -59 -40 -95t-96 -36zM451 538h153v-538h-153v77
q-60 -83 -169 -83q-115 0 -184.5 76t-69.5 201q0 122 68.5 197t180.5 76q113 0 174 -84v78zM318 118q54 0 90.5 36t42.5 95v36q-6 59 -42.5 95t-90.5 36q-60 0 -97.5 -41.5t-38.5 -107.5q1 -66 38.5 -107.5t97.5 -41.5z" />
    <glyph glyph-name="uni1EB4" unicode="&#x1eb4;" horiz-adv-x="764" 
d="M532 1051q0 -126 -87 -126q-30 0 -62 22.5t-43 22.5q-30 0 -30 -40h-80q0 126 87 126q28 0 61 -22.5t44 -22.5q30 0 30 40h80zM330 896q2 -23 16 -38t36 -15t36 15t16 38h84q-3 -59 -40 -95t-96 -36t-96 36t-40 95h84zM64 406q0 138 85.5 219.5t230.5 81.5
q148 0 234 -81.5t86 -219.5v-406h-158v173h-320v-173h-158v406zM542 406q-1 75 -43.5 119t-116.5 44t-117 -44t-43 -119v-105h320v105z" />
    <glyph glyph-name="uni1EB5" unicode="&#x1eb5;" horiz-adv-x="679" 
d="M298 808q-30 0 -30 -40h-80q0 126 87 126q28 0 61 -22.5t44 -22.5q30 0 30 40h80q0 -126 -87 -126q-30 0 -62 22.5t-43 22.5zM340 681q22 0 36 15t16 38h84q-3 -59 -40 -95t-96 -36t-96 36t-40 95h84q2 -23 16 -38t36 -15zM451 538h153v-538h-153v77q-60 -83 -169 -83
q-115 0 -184.5 76t-69.5 201q0 122 68.5 197t180.5 76q113 0 174 -84v78zM318 118q54 0 90.5 36t42.5 95v36q-6 59 -42.5 95t-90.5 36q-60 0 -97.5 -41.5t-38.5 -107.5q1 -66 38.5 -107.5t97.5 -41.5z" />
    <glyph glyph-name="uni1EB6" unicode="&#x1eb6;" horiz-adv-x="764" 
d="M518 892q-3 -59 -40 -95t-96 -36t-96 36t-40 95h84q2 -23 16 -38.5t36 -15.5t36 15.5t16 38.5h84zM64 406q0 138 85.5 219.5t230.5 81.5q148 0 234 -81.5t86 -219.5v-406h-158v173h-320v-173h-158v406zM542 406q-1 75 -43.5 119t-116.5 44t-117 -44t-43 -119v-105h320
v105zM383 -55q32 0 53 -21.5t21 -53.5t-21 -53.5t-53 -21.5t-52.5 21.5t-20.5 53.5q-1 32 20 53.5t53 21.5z" />
    <glyph glyph-name="uni1EB7" unicode="&#x1eb7;" horiz-adv-x="679" 
d="M340 599q-59 0 -96 36t-40 95h84q2 -23 16 -38.5t36 -15.5t36 15.5t16 38.5h84q-3 -59 -40 -95t-96 -36zM451 538h153v-538h-153v77q-60 -83 -169 -83q-115 0 -184.5 76t-69.5 201q0 122 68.5 197t180.5 76q113 0 174 -84v78zM318 118q54 0 90.5 36t42.5 95v36
q-6 59 -42.5 95t-90.5 36q-60 0 -97.5 -41.5t-38.5 -107.5q1 -66 38.5 -107.5t97.5 -41.5zM333 -55q32 0 53 -21.5t21 -53.5t-21 -53.5t-53 -21.5t-52.5 21.5t-20.5 53.5q-1 32 20 53.5t53 21.5z" />
    <glyph glyph-name="uni1EB8" unicode="&#x1eb8;" horiz-adv-x="597" 
d="M318 296q-54 0 -88.5 -23.5t-34.5 -59.5q0 -39 38.5 -62t96.5 -23q48 0 103.5 16.5t87.5 36.5l60 -120q-47 -30 -120.5 -49t-145.5 -19q-124 0 -203.5 55t-79.5 143q0 61 40 110.5t106 68.5q-48 17 -78.5 59t-30.5 95q0 82 72.5 132.5t188.5 50.5q60 0 123 -13.5
t102 -35.5l-51 -120q-78 35 -159 35q-57 0 -92 -19t-35 -55q0 -32 28 -53.5t72 -21.5h156v-128h-156zM323 -55q32 0 53 -21.5t21 -53.5t-21 -53.5t-53 -21.5t-52.5 21.5t-20.5 53.5q-1 32 20 53.5t53 21.5z" />
    <glyph glyph-name="uni1EB9" unicode="&#x1eb9;" horiz-adv-x="590" 
d="M325 114q81 0 143 70l88 -80q-93 -110 -242 -110q-128 0 -207 75.5t-79 198.5q0 122 75 198t201 77q117 1 189 -66t76 -182l-372 -98q37 -83 128 -83zM312 429q-58 0 -92 -36t-38 -104l236 64q-25 76 -106 76zM308 -55q32 0 53 -21.5t21 -53.5t-21 -53.5t-53 -21.5
t-52.5 21.5t-20.5 53.5q-1 32 20 53.5t53 21.5z" />
    <glyph glyph-name="uni1EBA" unicode="&#x1eba;" horiz-adv-x="597" 
d="M214 862q7 41 39 64t79 23q51 0 81 -28t30 -72q0 -55 -62 -107l-66 22q54 46 54 78q0 16 -10.5 27t-29.5 11q-41 0 -46 -42zM318 296q-54 0 -88.5 -23.5t-34.5 -59.5q0 -39 38.5 -62t96.5 -23q48 0 103.5 16.5t87.5 36.5l60 -120q-47 -30 -120.5 -49t-145.5 -19
q-124 0 -203.5 55t-79.5 143q0 61 40 110.5t106 68.5q-48 17 -78.5 59t-30.5 95q0 82 72.5 132.5t188.5 50.5q60 0 123 -13.5t102 -35.5l-51 -120q-78 35 -159 35q-57 0 -92 -19t-35 -55q0 -32 28 -53.5t72 -21.5h156v-128h-156z" />
    <glyph glyph-name="uni1EBB" unicode="&#x1ebb;" horiz-adv-x="590" 
d="M303 718q-41 0 -46 -42l-69 24q7 41 39 64t79 23q51 0 81 -28t30 -72q0 -55 -62 -107l-66 22q54 46 54 78q0 16 -10.5 27t-29.5 11zM325 114q81 0 143 70l88 -80q-93 -110 -242 -110q-128 0 -207 75.5t-79 198.5q0 122 75 198t201 77q117 1 189 -66t76 -182l-372 -98
q37 -83 128 -83zM312 429q-58 0 -92 -36t-38 -104l236 64q-25 76 -106 76z" />
    <glyph glyph-name="uni1EBC" unicode="&#x1ebc;" horiz-adv-x="597" 
d="M503 929q0 -149 -100 -149q-34 0 -69.5 24.5t-47.5 24.5q-33 0 -33 -45h-95q0 151 100 151q32 0 69 -25t48 -25q33 0 33 44h95zM318 296q-54 0 -88.5 -23.5t-34.5 -59.5q0 -39 38.5 -62t96.5 -23q48 0 103.5 16.5t87.5 36.5l60 -120q-47 -30 -120.5 -49t-145.5 -19
q-124 0 -203.5 55t-79.5 143q0 61 40 110.5t106 68.5q-48 17 -78.5 59t-30.5 95q0 82 72.5 132.5t188.5 50.5q60 0 123 -13.5t102 -35.5l-51 -120q-78 35 -159 35q-57 0 -92 -19t-35 -55q0 -32 28 -53.5t72 -21.5h156v-128h-156z" />
    <glyph glyph-name="uni1EBD" unicode="&#x1ebd;" horiz-adv-x="590" 
d="M260 667q-33 0 -33 -45h-95q0 151 100 151q32 0 69 -25t48 -25q33 0 33 44h95q0 -149 -100 -149q-34 0 -69.5 24.5t-47.5 24.5zM325 114q81 0 143 70l88 -80q-93 -110 -242 -110q-128 0 -207 75.5t-79 198.5q0 122 75 198t201 77q117 1 189 -66t76 -182l-372 -98
q37 -83 128 -83zM312 429q-58 0 -92 -36t-38 -104l236 64q-25 76 -106 76z" />
    <glyph glyph-name="uni1EBE" unicode="&#x1ebe;" horiz-adv-x="597" 
d="M545 1006l115 -47l-116 -96h-96zM273 900h114l98 -132h-100l-55 78l-55 -78h-100zM318 296q-54 0 -88.5 -23.5t-34.5 -59.5q0 -39 38.5 -62t96.5 -23q48 0 103.5 16.5t87.5 36.5l60 -120q-47 -30 -120.5 -49t-145.5 -19q-124 0 -203.5 55t-79.5 143q0 61 40 110.5
t106 68.5q-48 17 -78.5 59t-30.5 95q0 82 72.5 132.5t188.5 50.5q60 0 123 -13.5t102 -35.5l-51 -120q-78 35 -159 35q-57 0 -92 -19t-35 -55q0 -32 28 -53.5t72 -21.5h156v-128h-156z" />
    <glyph glyph-name="uni1EBF" unicode="&#x1ebf;" horiz-adv-x="590" 
d="M634 797l-116 -96h-96l97 143zM304 684l-55 -78h-100l98 132h114l98 -132h-100zM304 543q117 1 189 -66t76 -182l-372 -98q37 -83 128 -83q81 0 143 70l88 -80q-93 -110 -242 -110q-128 0 -207 75.5t-79 198.5q0 122 75 198t201 77zM182 289l236 64q-25 76 -106 76
q-58 0 -92 -36t-38 -104z" />
    <glyph glyph-name="uni1EC0" unicode="&#x1ec0;" horiz-adv-x="597" 
d="M481 1006l97 -143h-97l-115 96zM273 900h114l98 -132h-100l-55 78l-55 -78h-100zM318 296q-54 0 -88.5 -23.5t-34.5 -59.5q0 -39 38.5 -62t96.5 -23q48 0 103.5 16.5t87.5 36.5l60 -120q-47 -30 -120.5 -49t-145.5 -19q-124 0 -203.5 55t-79.5 143q0 61 40 110.5
t106 68.5q-48 17 -78.5 59t-30.5 95q0 82 72.5 132.5t188.5 50.5q60 0 123 -13.5t102 -35.5l-51 -120q-78 35 -159 35q-57 0 -92 -19t-35 -55q0 -32 28 -53.5t72 -21.5h156v-128h-156z" />
    <glyph glyph-name="uni1EC1" unicode="&#x1ec1;" horiz-adv-x="590" 
d="M552 701h-97l-115 96l115 47zM304 684l-55 -78h-100l98 132h114l98 -132h-100zM325 114q81 0 143 70l88 -80q-93 -110 -242 -110q-128 0 -207 75.5t-79 198.5q0 122 75 198t201 77q117 1 189 -66t76 -182l-372 -98q37 -83 128 -83zM312 429q-58 0 -92 -36t-38 -104
l236 64q-25 76 -106 76z" />
    <glyph glyph-name="uni1EC2" unicode="&#x1ec2;" horiz-adv-x="597" 
d="M353 965q7 39 36.5 60.5t73.5 21.5q47 0 75.5 -26t28.5 -66q0 -54 -62 -106l-61 20q54 44 54 79q0 16 -10 26t-27 10q-39 0 -44 -41zM273 900h114l98 -132h-100l-55 78l-55 -78h-100zM318 296q-54 0 -88.5 -23.5t-34.5 -59.5q0 -39 38.5 -62t96.5 -23q48 0 103.5 16.5
t87.5 36.5l60 -120q-47 -30 -120.5 -49t-145.5 -19q-124 0 -203.5 55t-79.5 143q0 61 40 110.5t106 68.5q-48 17 -78.5 59t-30.5 95q0 82 72.5 132.5t188.5 50.5q60 0 123 -13.5t102 -35.5l-51 -120q-78 35 -159 35q-57 0 -92 -19t-35 -55q0 -32 28 -53.5t72 -21.5h156v-128
h-156z" />
    <glyph glyph-name="uni1EC3" unicode="&#x1ec3;" horiz-adv-x="590" 
d="M435 822q-39 0 -44 -41l-64 22q7 39 36.5 60.5t73.5 21.5q47 0 75.5 -26t28.5 -66q0 -54 -62 -106l-61 20q54 44 54 79q0 16 -10 26t-27 10zM304 684l-55 -78h-100l98 132h114l98 -132h-100zM325 114q81 0 143 70l88 -80q-93 -110 -242 -110q-128 0 -207 75.5t-79 198.5
q0 122 75 198t201 77q117 1 189 -66t76 -182l-372 -98q37 -83 128 -83zM312 429q-58 0 -92 -36t-38 -104l236 64q-25 76 -106 76z" />
    <glyph glyph-name="uni1EC4" unicode="&#x1ec4;" horiz-adv-x="597" 
d="M478 1050q0 -126 -87 -126q-30 0 -62 22t-43 22q-30 0 -30 -40h-80q0 127 87 127q28 0 61 -22.5t44 -22.5q30 0 30 40h80zM273 900h114l98 -132h-100l-55 78l-55 -78h-100zM318 296q-54 0 -88.5 -23.5t-34.5 -59.5q0 -39 38.5 -62t96.5 -23q48 0 103.5 16.5t87.5 36.5
l60 -120q-47 -30 -120.5 -49t-145.5 -19q-124 0 -203.5 55t-79.5 143q0 61 40 110.5t106 68.5q-48 17 -78.5 59t-30.5 95q0 82 72.5 132.5t188.5 50.5q60 0 123 -13.5t102 -35.5l-51 -120q-78 35 -159 35q-57 0 -92 -19t-35 -55q0 -32 28 -53.5t72 -21.5h156v-128h-156z" />
    <glyph glyph-name="uni1EC5" unicode="&#x1ec5;" horiz-adv-x="590" 
d="M260 806q-30 0 -30 -40h-80q0 127 87 127q28 0 61 -22.5t44 -22.5q30 0 30 40h80q0 -126 -87 -126q-30 0 -62 22t-43 22zM304 684l-55 -78h-100l98 132h114l98 -132h-100zM325 114q81 0 143 70l88 -80q-93 -110 -242 -110q-128 0 -207 75.5t-79 198.5q0 122 75 198
t201 77q117 1 189 -66t76 -182l-372 -98q37 -83 128 -83zM312 429q-58 0 -92 -36t-38 -104l236 64q-25 76 -106 76z" />
    <glyph glyph-name="uni1EC6" unicode="&#x1ec6;" horiz-adv-x="597" 
d="M387 896l98 -132h-100l-55 78l-55 -78h-100l98 132h114zM318 296q-54 0 -88.5 -23.5t-34.5 -59.5q0 -39 38.5 -62t96.5 -23q48 0 103.5 16.5t87.5 36.5l60 -120q-47 -30 -120.5 -49t-145.5 -19q-124 0 -203.5 55t-79.5 143q0 61 40 110.5t106 68.5q-48 17 -78.5 59
t-30.5 95q0 82 72.5 132.5t188.5 50.5q60 0 123 -13.5t102 -35.5l-51 -120q-78 35 -159 35q-57 0 -92 -19t-35 -55q0 -32 28 -53.5t72 -21.5h156v-128h-156zM323 -55q32 0 53 -21.5t21 -53.5t-21 -53.5t-53 -21.5t-52.5 21.5t-20.5 53.5q-1 32 20 53.5t53 21.5z" />
    <glyph glyph-name="uni1EC7" unicode="&#x1ec7;" horiz-adv-x="590" 
d="M304 680l-55 -78h-100l98 132h114l98 -132h-100zM325 114q81 0 143 70l88 -80q-93 -110 -242 -110q-128 0 -207 75.5t-79 198.5q0 122 75 198t201 77q117 1 189 -66t76 -182l-372 -98q37 -83 128 -83zM312 429q-58 0 -92 -36t-38 -104l236 64q-25 76 -106 76zM308 -55
q32 0 53 -21.5t21 -53.5t-21 -53.5t-53 -21.5t-52.5 21.5t-20.5 53.5q-1 32 20 53.5t53 21.5z" />
    <glyph glyph-name="uni1EC8" unicode="&#x1ec8;" horiz-adv-x="498" 
d="M248 880q-41 0 -46 -42l-69 24q7 41 39 64t79 23q51 0 81 -28t30 -72q0 -55 -62 -107l-66 22q54 46 54 78q0 16 -10.5 27t-29.5 11zM451 569h-123v-437h123v-132h-404v132h123v437h-123v131h404v-131z" />
    <glyph glyph-name="uni1EC9" unicode="&#x1ec9;" horiz-adv-x="302" 
d="M35 700q7 41 39 64t79 23q51 0 81 -28t30 -72q0 -55 -62 -107l-66 22q54 46 54 78q0 16 -10.5 27t-29.5 11q-41 0 -46 -42zM74 538h154v-538h-154v538z" />
    <glyph glyph-name="uni1ECA" unicode="&#x1eca;" horiz-adv-x="498" 
d="M451 569h-123v-437h123v-132h-404v132h123v437h-123v131h404v-131zM249 -55q32 0 53 -21.5t21 -53.5t-21 -53.5t-53 -21.5t-52.5 21.5t-20.5 53.5q-1 32 20 53.5t53 21.5z" />
    <glyph glyph-name="uni1ECB" unicode="&#x1ecb;" horiz-adv-x="302" 
d="M151 768q33 0 54 -21.5t21 -55.5q0 -33 -21 -55t-54 -22t-54 22t-21 55q0 34 21 55.5t54 21.5zM74 538h154v-538h-154v538zM151 -55q32 0 53 -21.5t21 -53.5t-21 -53.5t-53 -21.5t-52.5 21.5t-20.5 53.5q-1 32 20 53.5t53 21.5z" />
    <glyph glyph-name="uni1ECC" unicode="&#x1ecc;" horiz-adv-x="806" 
d="M403 705q161 0 268.5 -101.5t107.5 -253.5t-108 -254.5t-268 -102.5t-268 102.5t-108 254.5q0 153 107.5 254t268.5 101zM405 567q-89 0 -152.5 -63t-63.5 -154q0 -92 63.5 -155.5t152.5 -63.5q88 0 150 63.5t62 155.5t-62 154.5t-150 62.5zM405 -55q32 0 53 -21.5
t21 -53.5t-21 -53.5t-53 -21.5t-52.5 21.5t-20.5 53.5q-1 32 20 53.5t53 21.5z" />
    <glyph glyph-name="uni1ECD" unicode="&#x1ecd;" horiz-adv-x="633" 
d="M317 543q129 0 208.5 -75t79.5 -199q0 -123 -79.5 -199t-208.5 -76q-130 0 -209.5 76t-79.5 199q0 124 79.5 199t209.5 75zM317 415q-60 0 -97.5 -41t-37.5 -107t37.5 -107t97.5 -41q59 0 96.5 41t37.5 107t-37.5 107t-96.5 41zM317 -55q32 0 53 -21.5t21 -53.5
t-21 -53.5t-53 -21.5t-52.5 21.5t-20.5 53.5q-1 32 20 53.5t53 21.5z" />
    <glyph glyph-name="uni1ECE" unicode="&#x1ece;" horiz-adv-x="806" 
d="M280 862q7 41 39 64t79 23q51 0 81 -28t30 -72q0 -55 -62 -107l-66 22q54 46 54 78q0 16 -10.5 27t-29.5 11q-41 0 -46 -42zM403 705q161 0 268.5 -101.5t107.5 -253.5t-108 -254.5t-268 -102.5t-268 102.5t-108 254.5q0 153 107.5 254t268.5 101zM405 567
q-89 0 -152.5 -63t-63.5 -154q0 -92 63.5 -155.5t152.5 -63.5q88 0 150 63.5t62 155.5t-62 154.5t-150 62.5z" />
    <glyph glyph-name="uni1ECF" unicode="&#x1ecf;" horiz-adv-x="633" 
d="M201 699q7 41 39 64t79 23q51 0 81 -28t30 -72q0 -55 -62 -107l-66 22q54 46 54 78q0 16 -10.5 27t-29.5 11q-41 0 -46 -42zM317 543q129 0 208.5 -75t79.5 -199q0 -123 -79.5 -199t-208.5 -76q-130 0 -209.5 76t-79.5 199q0 124 79.5 199t209.5 75zM317 415
q-60 0 -97.5 -41t-37.5 -107t37.5 -107t97.5 -41q59 0 96.5 41t37.5 107t-37.5 107t-96.5 41z" />
    <glyph glyph-name="uni1ED0" unicode="&#x1ed0;" horiz-adv-x="806" 
d="M611 1006l115 -47l-116 -96h-96zM339 900h114l98 -132h-100l-55 78l-55 -78h-100zM403 705q161 0 268.5 -101.5t107.5 -253.5t-108 -254.5t-268 -102.5t-268 102.5t-108 254.5q0 153 107.5 254t268.5 101zM405 567q-89 0 -152.5 -63t-63.5 -154q0 -92 63.5 -155.5
t152.5 -63.5q88 0 150 63.5t62 155.5t-62 154.5t-150 62.5z" />
    <glyph glyph-name="uni1ED1" unicode="&#x1ed1;" horiz-adv-x="633" 
d="M532 843l115 -47l-116 -96h-96zM260 737h114l98 -132h-100l-55 78l-55 -78h-100zM317 543q129 0 208.5 -75t79.5 -199q0 -123 -79.5 -199t-208.5 -76q-130 0 -209.5 76t-79.5 199q0 124 79.5 199t209.5 75zM317 415q-60 0 -97.5 -41t-37.5 -107t37.5 -107t97.5 -41
q59 0 96.5 41t37.5 107t-37.5 107t-96.5 41z" />
    <glyph glyph-name="uni1ED2" unicode="&#x1ed2;" horiz-adv-x="806" 
d="M547 1006l97 -143h-97l-115 96zM339 900h114l98 -132h-100l-55 78l-55 -78h-100zM403 705q161 0 268.5 -101.5t107.5 -253.5t-108 -254.5t-268 -102.5t-268 102.5t-108 254.5q0 153 107.5 254t268.5 101zM405 567q-89 0 -152.5 -63t-63.5 -154q0 -92 63.5 -155.5
t152.5 -63.5q88 0 150 63.5t62 155.5t-62 154.5t-150 62.5z" />
    <glyph glyph-name="uni1ED3" unicode="&#x1ed3;" horiz-adv-x="633" 
d="M468 843l97 -143h-97l-115 96zM260 737h114l98 -132h-100l-55 78l-55 -78h-100zM317 543q129 0 208.5 -75t79.5 -199q0 -123 -79.5 -199t-208.5 -76q-130 0 -209.5 76t-79.5 199q0 124 79.5 199t209.5 75zM317 415q-60 0 -97.5 -41t-37.5 -107t37.5 -107t97.5 -41
q59 0 96.5 41t37.5 107t-37.5 107t-96.5 41z" />
    <glyph glyph-name="uni1ED4" unicode="&#x1ed4;" horiz-adv-x="806" 
d="M419 965q7 39 36.5 60.5t73.5 21.5q47 0 75.5 -26t28.5 -66q0 -54 -62 -106l-61 20q54 44 54 79q0 16 -10 26t-27 10q-39 0 -44 -41zM339 900h114l98 -132h-100l-55 78l-55 -78h-100zM403 705q161 0 268.5 -101.5t107.5 -253.5t-108 -254.5t-268 -102.5t-268 102.5
t-108 254.5q0 153 107.5 254t268.5 101zM405 567q-89 0 -152.5 -63t-63.5 -154q0 -92 63.5 -155.5t152.5 -63.5q88 0 150 63.5t62 155.5t-62 154.5t-150 62.5z" />
    <glyph glyph-name="uni1ED5" unicode="&#x1ed5;" horiz-adv-x="633" 
d="M340 802q7 39 36.5 60.5t73.5 21.5q47 0 75.5 -26t28.5 -66q0 -54 -62 -106l-61 20q54 44 54 79q0 16 -10 26t-27 10q-39 0 -44 -41zM260 737h114l98 -132h-100l-55 78l-55 -78h-100zM317 543q129 0 208.5 -75t79.5 -199q0 -123 -79.5 -199t-208.5 -76q-130 0 -209.5 76
t-79.5 199q0 124 79.5 199t209.5 75zM317 415q-60 0 -97.5 -41t-37.5 -107t37.5 -107t97.5 -41q59 0 96.5 41t37.5 107t-37.5 107t-96.5 41z" />
    <glyph glyph-name="uni1ED6" unicode="&#x1ed6;" horiz-adv-x="806" 
d="M544 1050q0 -126 -87 -126q-30 0 -62 22t-43 22q-30 0 -30 -40h-80q0 127 87 127q28 0 61 -22.5t44 -22.5q30 0 30 40h80zM339 900h114l98 -132h-100l-55 78l-55 -78h-100zM403 705q161 0 268.5 -101.5t107.5 -253.5t-108 -254.5t-268 -102.5t-268 102.5t-108 254.5
q0 153 107.5 254t268.5 101zM405 567q-89 0 -152.5 -63t-63.5 -154q0 -92 63.5 -155.5t152.5 -63.5q88 0 150 63.5t62 155.5t-62 154.5t-150 62.5z" />
    <glyph glyph-name="uni1ED7" unicode="&#x1ed7;" horiz-adv-x="633" 
d="M465 887q0 -126 -87 -126q-30 0 -62 22t-43 22q-30 0 -30 -40h-80q0 127 87 127q28 0 61 -22.5t44 -22.5q30 0 30 40h80zM260 737h114l98 -132h-100l-55 78l-55 -78h-100zM317 543q129 0 208.5 -75t79.5 -199q0 -123 -79.5 -199t-208.5 -76q-130 0 -209.5 76t-79.5 199
q0 124 79.5 199t209.5 75zM317 415q-60 0 -97.5 -41t-37.5 -107t37.5 -107t97.5 -41q59 0 96.5 41t37.5 107t-37.5 107t-96.5 41z" />
    <glyph glyph-name="uni1ED8" unicode="&#x1ed8;" horiz-adv-x="806" 
d="M453 896l98 -132h-100l-55 78l-55 -78h-100l98 132h114zM403 705q161 0 268.5 -101.5t107.5 -253.5t-108 -254.5t-268 -102.5t-268 102.5t-108 254.5q0 153 107.5 254t268.5 101zM405 567q-89 0 -152.5 -63t-63.5 -154q0 -92 63.5 -155.5t152.5 -63.5q88 0 150 63.5
t62 155.5t-62 154.5t-150 62.5zM405 -55q32 0 53 -21.5t21 -53.5t-21 -53.5t-53 -21.5t-52.5 21.5t-20.5 53.5q-1 32 20 53.5t53 21.5z" />
    <glyph glyph-name="uni1ED9" unicode="&#x1ed9;" horiz-adv-x="633" 
d="M374 733l98 -132h-100l-55 78l-55 -78h-100l98 132h114zM317 543q129 0 208.5 -75t79.5 -199q0 -123 -79.5 -199t-208.5 -76q-130 0 -209.5 76t-79.5 199q0 124 79.5 199t209.5 75zM317 415q-60 0 -97.5 -41t-37.5 -107t37.5 -107t97.5 -41q59 0 96.5 41t37.5 107
t-37.5 107t-96.5 41zM317 -55q32 0 53 -21.5t21 -53.5t-21 -53.5t-53 -21.5t-52.5 21.5t-20.5 53.5q-1 32 20 53.5t53 21.5z" />
    <glyph glyph-name="uni1EDA" unicode="&#x1eda;" horiz-adv-x="806" 
d="M571 874l-127 -110h-122l106 163zM620 644q74 -48 116.5 -125t42.5 -169q0 -152 -108 -254.5t-268 -102.5t-268 102.5t-108 254.5q0 153 107.5 254t268.5 101q45 0 87 -9q38 5 62 32t24 65h110q0 -91 -66 -149zM405 131q88 0 150 63.5t62 155.5t-62 154.5t-150 62.5
q-89 0 -152.5 -63t-63.5 -154q0 -92 63.5 -155.5t152.5 -63.5z" />
    <glyph glyph-name="uni1EDB" unicode="&#x1edb;" horiz-adv-x="633" 
d="M492 711l-127 -110h-122l106 163zM531 462q74 -76 74 -193q0 -123 -79.5 -199t-208.5 -76q-130 0 -209.5 76t-79.5 199q0 124 79.5 199t209.5 75q64 0 115 -19q27 12 43 35.5t16 54.5h110q0 -95 -70 -152zM317 119q59 0 96.5 41t37.5 107t-37.5 107t-96.5 41
q-60 0 -97.5 -41t-37.5 -107t37.5 -107t97.5 -41z" />
    <glyph glyph-name="uni1EDC" unicode="&#x1edc;" horiz-adv-x="806" 
d="M470 764h-123l-127 110l143 53zM620 644q74 -48 116.5 -125t42.5 -169q0 -152 -108 -254.5t-268 -102.5t-268 102.5t-108 254.5q0 153 107.5 254t268.5 101q45 0 87 -9q38 5 62 32t24 65h110q0 -91 -66 -149zM405 131q88 0 150 63.5t62 155.5t-62 154.5t-150 62.5
q-89 0 -152.5 -63t-63.5 -154q0 -92 63.5 -155.5t152.5 -63.5z" />
    <glyph glyph-name="uni1EDD" unicode="&#x1edd;" horiz-adv-x="633" 
d="M391 601h-123l-127 110l143 53zM531 462q74 -76 74 -193q0 -123 -79.5 -199t-208.5 -76q-130 0 -209.5 76t-79.5 199q0 124 79.5 199t209.5 75q64 0 115 -19q27 12 43 35.5t16 54.5h110q0 -95 -70 -152zM317 119q59 0 96.5 41t37.5 107t-37.5 107t-96.5 41
q-60 0 -97.5 -41t-37.5 -107t37.5 -107t97.5 -41z" />
    <glyph glyph-name="uni1EDE" unicode="&#x1ede;" horiz-adv-x="806" 
d="M395 880q-41 0 -46 -42l-69 24q7 41 39 64t79 23q51 0 81 -28t30 -72q0 -55 -62 -107l-66 22q54 46 54 78q0 16 -10.5 27t-29.5 11zM620 644q74 -48 116.5 -125t42.5 -169q0 -152 -108 -254.5t-268 -102.5t-268 102.5t-108 254.5q0 153 107.5 254t268.5 101q45 0 87 -9
q38 5 62 32t24 65h110q0 -91 -66 -149zM405 131q88 0 150 63.5t62 155.5t-62 154.5t-150 62.5q-89 0 -152.5 -63t-63.5 -154q0 -92 63.5 -155.5t152.5 -63.5z" />
    <glyph glyph-name="uni1EDF" unicode="&#x1edf;" horiz-adv-x="633" 
d="M316 717q-41 0 -46 -42l-69 24q7 41 39 64t79 23q51 0 81 -28t30 -72q0 -55 -62 -107l-66 22q54 46 54 78q0 16 -10.5 27t-29.5 11zM531 462q74 -76 74 -193q0 -123 -79.5 -199t-208.5 -76q-130 0 -209.5 76t-79.5 199q0 124 79.5 199t209.5 75q64 0 115 -19
q27 12 43 35.5t16 54.5h110q0 -95 -70 -152zM317 119q59 0 96.5 41t37.5 107t-37.5 107t-96.5 41q-60 0 -97.5 -41t-37.5 -107t37.5 -107t97.5 -41z" />
    <glyph glyph-name="uni1EE0" unicode="&#x1ee0;" horiz-adv-x="806" 
d="M352 829q-33 0 -33 -45h-95q0 151 100 151q32 0 69 -25t48 -25q33 0 33 44h95q0 -149 -100 -149q-34 0 -69.5 24.5t-47.5 24.5zM620 644q74 -48 116.5 -125t42.5 -169q0 -152 -108 -254.5t-268 -102.5t-268 102.5t-108 254.5q0 153 107.5 254t268.5 101q45 0 87 -9
q38 5 62 32t24 65h110q0 -91 -66 -149zM405 131q88 0 150 63.5t62 155.5t-62 154.5t-150 62.5q-89 0 -152.5 -63t-63.5 -154q0 -92 63.5 -155.5t152.5 -63.5z" />
    <glyph glyph-name="uni1EE1" unicode="&#x1ee1;" horiz-adv-x="633" 
d="M273 666q-33 0 -33 -45h-95q0 151 100 151q33 0 69 -25t48 -25q33 0 33 44h95q0 -149 -100 -149q-34 0 -69.5 24.5t-47.5 24.5zM531 462q74 -76 74 -193q0 -123 -79.5 -199t-208.5 -76q-130 0 -209.5 76t-79.5 199q0 124 79.5 199t209.5 75q64 0 115 -19q27 12 43 35.5
t16 54.5h110q0 -95 -70 -152zM317 119q59 0 96.5 41t37.5 107t-37.5 107t-96.5 41q-60 0 -97.5 -41t-37.5 -107t37.5 -107t97.5 -41z" />
    <glyph glyph-name="uni1EE2" unicode="&#x1ee2;" horiz-adv-x="806" 
d="M620 644q74 -48 116.5 -125t42.5 -169q0 -152 -108 -254.5t-268 -102.5t-268 102.5t-108 254.5q0 153 107.5 254t268.5 101q45 0 87 -9q38 5 62 32t24 65h110q0 -91 -66 -149zM405 131q88 0 150 63.5t62 155.5t-62 154.5t-150 62.5q-89 0 -152.5 -63t-63.5 -154
q0 -92 63.5 -155.5t152.5 -63.5zM405 -55q32 0 53 -21.5t21 -53.5t-21 -53.5t-53 -21.5t-52.5 21.5t-20.5 53.5q-1 32 20 53.5t53 21.5z" />
    <glyph glyph-name="uni1EE3" unicode="&#x1ee3;" horiz-adv-x="633" 
d="M531 462q74 -76 74 -193q0 -123 -79.5 -199t-208.5 -76q-130 0 -209.5 76t-79.5 199q0 124 79.5 199t209.5 75q64 0 115 -19q27 12 43 35.5t16 54.5h110q0 -95 -70 -152zM317 119q59 0 96.5 41t37.5 107t-37.5 107t-96.5 41q-60 0 -97.5 -41t-37.5 -107t37.5 -107
t97.5 -41zM317 -55q32 0 53 -21.5t21 -53.5t-21 -53.5t-53 -21.5t-52.5 21.5t-20.5 53.5q-1 32 20 53.5t53 21.5z" />
    <glyph glyph-name="uni1EE4" unicode="&#x1ee4;" 
d="M531 700h158v-700h-158v115q-76 -113 -226 -115q-108 0 -174.5 70.5t-66.5 185.5v444h160v-406q0 -65 38.5 -105.5t101.5 -40.5q74 1 120.5 50.5t46.5 124.5v377zM362 -55q32 0 53 -21.5t21 -53.5t-21 -53.5t-53 -21.5t-52.5 21.5t-20.5 53.5q-1 32 20 53.5t53 21.5z" />
    <glyph glyph-name="uni1EE5" unicode="&#x1ee5;" horiz-adv-x="660" 
d="M432 538h153v-538h-153v95q-55 -101 -180 -101q-89 0 -141.5 55.5t-52.5 150.5v338h154v-294q0 -51 27 -80t74 -29q55 1 87 39t32 98v266zM329 -55q32 0 53 -21.5t21 -53.5t-21 -53.5t-53 -21.5t-52.5 21.5t-20.5 53.5q-1 32 20 53.5t53 21.5z" />
    <glyph glyph-name="uni1EE6" unicode="&#x1ee6;" 
d="M352 880q-41 0 -46 -42l-69 24q7 41 39 64t79 23q51 0 81 -28t30 -72q0 -55 -62 -107l-66 22q54 46 54 78q0 16 -10.5 27t-29.5 11zM531 700h158v-700h-158v115q-76 -113 -226 -115q-108 0 -174.5 70.5t-66.5 185.5v444h160v-406q0 -65 38.5 -105.5t101.5 -40.5
q74 1 120.5 50.5t46.5 124.5v377z" />
    <glyph glyph-name="uni1EE7" unicode="&#x1ee7;" horiz-adv-x="660" 
d="M321 718q-41 0 -46 -42l-69 24q7 41 39 64t79 23q51 0 81 -28t30 -72q0 -55 -62 -107l-66 22q54 46 54 78q0 16 -10.5 27t-29.5 11zM432 538h153v-538h-153v95q-55 -101 -180 -101q-89 0 -141.5 55.5t-52.5 150.5v338h154v-294q0 -51 27 -80t74 -29q55 1 87 39t32 98v266
z" />
    <glyph glyph-name="uni1EE8" unicode="&#x1ee8;" 
d="M555 874l-127 -110h-122l106 163zM750 793q0 -86 -61 -144v-649h-158v115q-76 -113 -226 -115q-108 0 -174.5 70.5t-66.5 185.5v444h160v-406q0 -65 38.5 -105.5t101.5 -40.5q74 1 120.5 50.5t46.5 124.5v377h40q31 10 50 35t19 58h110z" />
    <glyph glyph-name="uni1EE9" unicode="&#x1ee9;" horiz-adv-x="660" 
d="M500 712l-127 -110h-122l106 163zM710 614q0 -63 -34 -112.5t-91 -72.5v-429h-153v95q-55 -101 -180 -101q-89 0 -141.5 55.5t-52.5 150.5v338h154v-294q0 -51 27 -80t74 -29q55 1 87 39t32 98v266h132q36 29 36 76h110z" />
    <glyph glyph-name="uni1EEA" unicode="&#x1eea;" 
d="M454 764h-123l-127 110l143 53zM750 793q0 -86 -61 -144v-649h-158v115q-76 -113 -226 -115q-108 0 -174.5 70.5t-66.5 185.5v444h160v-406q0 -65 38.5 -105.5t101.5 -40.5q74 1 120.5 50.5t46.5 124.5v377h40q31 10 50 35t19 58h110z" />
    <glyph glyph-name="uni1EEB" unicode="&#x1eeb;" horiz-adv-x="660" 
d="M399 602h-123l-127 110l143 53zM710 614q0 -63 -34 -112.5t-91 -72.5v-429h-153v95q-55 -101 -180 -101q-89 0 -141.5 55.5t-52.5 150.5v338h154v-294q0 -51 27 -80t74 -29q55 1 87 39t32 98v266h132q36 29 36 76h110z" />
    <glyph glyph-name="uni1EEC" unicode="&#x1eec;" 
d="M379 880q-41 0 -46 -42l-69 24q7 41 39 64t79 23q51 0 81 -28t30 -72q0 -55 -62 -107l-66 22q54 46 54 78q0 16 -10.5 27t-29.5 11zM750 793q0 -86 -61 -144v-649h-158v115q-76 -113 -226 -115q-108 0 -174.5 70.5t-66.5 185.5v444h160v-406q0 -65 38.5 -105.5
t101.5 -40.5q74 1 120.5 50.5t46.5 124.5v377h40q31 10 50 35t19 58h110z" />
    <glyph glyph-name="uni1EED" unicode="&#x1eed;" horiz-adv-x="660" 
d="M324 718q-41 0 -46 -42l-69 24q7 41 39 64t79 23q51 0 81 -28t30 -72q0 -55 -62 -107l-66 22q54 46 54 78q0 16 -10.5 27t-29.5 11zM710 614q0 -63 -34 -112.5t-91 -72.5v-429h-153v95q-55 -101 -180 -101q-89 0 -141.5 55.5t-52.5 150.5v338h154v-294q0 -51 27 -80
t74 -29q55 1 87 39t32 98v266h132q36 29 36 76h110z" />
    <glyph glyph-name="uni1EEE" unicode="&#x1eee;" 
d="M336 829q-33 0 -33 -45h-95q0 151 100 151q32 0 69 -25t48 -25q33 0 33 44h95q0 -149 -100 -149q-34 0 -69.5 24.5t-47.5 24.5zM750 793q0 -86 -61 -144v-649h-158v115q-76 -113 -226 -115q-108 0 -174.5 70.5t-66.5 185.5v444h160v-406q0 -65 38.5 -105.5t101.5 -40.5
q74 1 120.5 50.5t46.5 124.5v377h40q31 10 50 35t19 58h110z" />
    <glyph glyph-name="uni1EEF" unicode="&#x1eef;" horiz-adv-x="660" 
d="M281 667q-33 0 -33 -45h-95q0 151 100 151q33 0 69 -25t48 -25q33 0 33 44h95q0 -149 -100 -149q-34 0 -69.5 24.5t-47.5 24.5zM710 614q0 -63 -34 -112.5t-91 -72.5v-429h-153v95q-55 -101 -180 -101q-89 0 -141.5 55.5t-52.5 150.5v338h154v-294q0 -51 27 -80t74 -29
q55 1 87 39t32 98v266h132q36 29 36 76h110z" />
    <glyph glyph-name="uni1EF0" unicode="&#x1ef0;" 
d="M750 793q0 -86 -61 -144v-649h-158v115q-76 -113 -226 -115q-108 0 -174.5 70.5t-66.5 185.5v444h160v-406q0 -65 38.5 -105.5t101.5 -40.5q74 1 120.5 50.5t46.5 124.5v377h40q31 10 50 35t19 58h110zM362 -55q32 0 53 -21.5t21 -53.5t-21 -53.5t-53 -21.5t-52.5 21.5
t-20.5 53.5q-1 32 20 53.5t53 21.5z" />
    <glyph glyph-name="uni1EF1" unicode="&#x1ef1;" horiz-adv-x="660" 
d="M710 614q0 -63 -34 -112.5t-91 -72.5v-429h-153v95q-55 -101 -180 -101q-89 0 -141.5 55.5t-52.5 150.5v338h154v-294q0 -51 27 -80t74 -29q55 1 87 39t32 98v266h132q36 29 36 76h110zM329 -55q32 0 53 -21.5t21 -53.5t-21 -53.5t-53 -21.5t-52.5 21.5t-20.5 53.5
q-1 32 20 53.5t53 21.5z" />
    <glyph glyph-name="Ygrave" unicode="&#x1ef2;" horiz-adv-x="741" 
d="M451 765h-123l-127 110l143 53zM520 700h157v-519q0 -129 -86 -208.5t-226 -79.5q-83 0 -163 29t-130 77l67 110q39 -35 96 -56.5t110 -21.5q77 0 126 43t49 111v78q-70 -107 -203 -109q-113 0 -183 74t-70 192v280h158v-265q0 -62 39.5 -100.5t103.5 -38.5
q68 1 111.5 48t43.5 122v234z" />
    <glyph glyph-name="ygrave" unicode="&#x1ef3;" horiz-adv-x="661" 
d="M407 603h-123l-127 110l143 53zM441 538h153v-482q0 -115 -77 -186t-202 -70q-60 1 -126 21.5t-110 53.5l38 109q86 -57 181 -59q65 0 104 36.5t39 97.5v78q-55 -91 -175 -93q-96 0 -152 56t-56 151v287h154v-242q0 -51 28.5 -80.5t77.5 -29.5q58 1 90.5 39t32.5 104v209
z" />
    <glyph glyph-name="uni1EF4" unicode="&#x1ef4;" horiz-adv-x="741" 
d="M520 700h157v-519q0 -129 -86 -208.5t-226 -79.5q-83 0 -163 29t-130 77l67 110q39 -35 96 -56.5t110 -21.5q77 0 126 43t49 111v78q-70 -107 -203 -109q-113 0 -183 74t-70 192v280h158v-265q0 -62 39.5 -100.5t103.5 -38.5q68 1 111.5 48t43.5 122v234zM380 -150
q32 0 53 -21.5t21 -53.5t-21 -53.5t-53 -21.5t-52.5 21.5t-20.5 53.5q-1 32 20 53.5t53 21.5z" />
    <glyph glyph-name="uni1EF5" unicode="&#x1ef5;" horiz-adv-x="661" 
d="M441 329v209h153v-482q0 -115 -77 -186t-202 -70q-60 1 -126 21.5t-110 53.5l38 109q86 -57 181 -59q65 0 104 36.5t39 97.5v78q-55 -91 -175 -93q-96 0 -152 56t-56 151v287h154v-242q0 -51 28.5 -80.5t77.5 -29.5q58 1 90.5 39t32.5 104zM678 -55q32 0 53 -21.5
t21 -53.5t-21 -53.5t-53 -21.5t-52.5 21.5t-20.5 53.5q-1 32 20 53.5t53 21.5z" />
    <glyph glyph-name="uni1EF6" unicode="&#x1ef6;" horiz-adv-x="741" 
d="M370 880q-41 0 -46 -42l-69 24q7 41 39 64t79 23q51 0 81 -28t30 -72q0 -55 -62 -107l-66 22q54 46 54 78q0 16 -10.5 27t-29.5 11zM520 700h157v-519q0 -129 -86 -208.5t-226 -79.5q-83 0 -163 29t-130 77l67 110q39 -35 96 -56.5t110 -21.5q77 0 126 43t49 111v78
q-70 -107 -203 -109q-113 0 -183 74t-70 192v280h158v-265q0 -62 39.5 -100.5t103.5 -38.5q68 1 111.5 48t43.5 122v234z" />
    <glyph glyph-name="uni1EF7" unicode="&#x1ef7;" horiz-adv-x="661" 
d="M326 718q-41 0 -46 -42l-69 24q7 41 39 64t79 23q51 0 81 -28t30 -72q0 -55 -62 -107l-66 22q54 46 54 78q0 16 -10.5 27t-29.5 11zM441 538h153v-482q0 -115 -77 -186t-202 -70q-60 1 -126 21.5t-110 53.5l38 109q86 -57 181 -59q65 0 104 36.5t39 97.5v78
q-55 -91 -175 -93q-96 0 -152 56t-56 151v287h154v-242q0 -51 28.5 -80.5t77.5 -29.5q58 1 90.5 39t32.5 104v209z" />
    <glyph glyph-name="uni1EF8" unicode="&#x1ef8;" horiz-adv-x="741" 
d="M327 829q-33 0 -33 -45h-95q0 151 100 151q33 0 69 -25t48 -25q33 0 33 44h95q0 -149 -100 -149q-34 0 -69.5 24.5t-47.5 24.5zM520 700h157v-519q0 -129 -86 -208.5t-226 -79.5q-83 0 -163 29t-130 77l67 110q39 -35 96 -56.5t110 -21.5q77 0 126 43t49 111v78
q-70 -107 -203 -109q-113 0 -183 74t-70 192v280h158v-265q0 -62 39.5 -100.5t103.5 -38.5q68 1 111.5 48t43.5 122v234z" />
    <glyph glyph-name="uni1EF9" unicode="&#x1ef9;" horiz-adv-x="661" 
d="M283 667q-33 0 -33 -45h-95q0 151 100 151q33 0 69 -25t48 -25q33 0 33 44h95q0 -149 -100 -149q-34 0 -69.5 24.5t-47.5 24.5zM441 538h153v-482q0 -115 -77 -186t-202 -70q-60 1 -126 21.5t-110 53.5l38 109q86 -57 181 -59q65 0 104 36.5t39 97.5v78q-55 -91 -175 -93
q-96 0 -152 56t-56 151v287h154v-242q0 -51 28.5 -80.5t77.5 -29.5q58 1 90.5 39t32.5 104v209z" />
    <glyph glyph-name="uni2007" unicode="&#x2007;" horiz-adv-x="617" 
 />
    <glyph glyph-name="uni2008" unicode="&#x2008;" horiz-adv-x="235" 
 />
    <glyph glyph-name="uni2009" unicode="&#x2009;" horiz-adv-x="200" 
 />
    <glyph glyph-name="uni200A" unicode="&#x200a;" horiz-adv-x="100" 
 />
    <glyph glyph-name="uni200B" unicode="&#x200b;" horiz-adv-x="0" 
 />
    <glyph glyph-name="uni2010" unicode="&#x2010;" horiz-adv-x="372" 
d="M57 357h258v-102h-258v102z" />
    <glyph glyph-name="figuredash" unicode="&#x2012;" horiz-adv-x="617" 
d="M0 357h617v-102h-617v102z" />
    <glyph glyph-name="endash" unicode="&#x2013;" horiz-adv-x="407" 
d="M0 357h407v-102h-407v102z" />
    <glyph glyph-name="emdash" unicode="&#x2014;" horiz-adv-x="662" 
d="M0 357h662v-102h-662v102z" />
    <glyph glyph-name="uni2015" unicode="&#x2015;" horiz-adv-x="662" 
d="M0 357h662v-102h-662v102z" />
    <glyph glyph-name="quoteleft" unicode="&#x2018;" horiz-adv-x="232" 
d="M151 603q31 -22 31 -62q0 -34 -22 -56t-55 -22q-31 0 -53 21t-22 57q0 33 21 62l67 101h75z" />
    <glyph glyph-name="quoteright" unicode="&#x2019;" horiz-adv-x="232" 
d="M118 701q31 0 53 -21t22 -57q0 -33 -21 -62l-67 -101h-75l42 101q-31 22 -31 62q0 34 22 56t55 22z" />
    <glyph glyph-name="quotesinglbase" unicode="&#x201a;" horiz-adv-x="232" 
d="M118 149q31 0 53 -21t22 -57q0 -33 -21 -62l-67 -101h-75l42 101q-31 22 -31 62q0 34 22 56t55 22z" />
    <glyph glyph-name="quotedblleft" unicode="&#x201c;" horiz-adv-x="405" 
d="M118 704h75l-42 -101q31 -22 31 -62q0 -34 -22 -56t-55 -22q-31 0 -53 21t-22 57q0 33 21 62zM324 603q31 -22 31 -62q0 -34 -22 -56t-55 -22q-31 0 -53 21t-22 57q0 33 21 62l67 101h75z" />
    <glyph glyph-name="quotedblright" unicode="&#x201d;" horiz-adv-x="405" 
d="M118 701q31 0 53 -21t22 -57q0 -33 -21 -62l-67 -101h-75l42 101q-31 22 -31 62q0 34 22 56t55 22zM291 701q31 0 53 -21t22 -57q0 -33 -21 -62l-67 -101h-75l42 101q-31 22 -31 62q0 34 22 56t55 22z" />
    <glyph glyph-name="quotedblbase" unicode="&#x201e;" horiz-adv-x="405" 
d="M118 149q31 0 53 -21t22 -57q0 -33 -21 -62l-67 -101h-75l42 101q-31 22 -31 62q0 34 22 56t55 22zM291 149q31 0 53 -21t22 -57q0 -33 -21 -62l-67 -101h-75l42 101q-31 22 -31 62q0 34 22 56t55 22z" />
    <glyph glyph-name="dagger" unicode="&#x2020;" horiz-adv-x="561" 
d="M204 699h149v-207h192v-131h-192v-549h-149v549h-187v131h187v207z" />
    <glyph glyph-name="daggerdbl" unicode="&#x2021;" horiz-adv-x="561" 
d="M545 361h-192v-196h192v-131h-192v-222h-149v222h-187v131h187v196h-187v131h187v207h149v-207h192v-131z" />
    <glyph glyph-name="bullet" unicode="&#x2022;" horiz-adv-x="312" 
d="M155 392q51 0 83.5 -33t32.5 -85q0 -53 -32.5 -86.5t-83.5 -33.5q-50 0 -82.5 34t-32.5 86t32.5 85t82.5 33z" />
    <glyph glyph-name="ellipsis" unicode="&#x2026;" horiz-adv-x="656" 
d="M115 146q32 0 53 -21.5t21 -55.5t-21 -56t-53 -22t-53.5 22t-21.5 56t21.5 55.5t53.5 21.5zM328 146q32 0 53 -21.5t21 -55.5t-21 -56t-53 -22t-53.5 22t-21.5 56t21.5 55.5t53.5 21.5zM541 146q32 0 53 -21.5t21 -55.5t-21 -56t-53 -22t-53.5 22t-21.5 56t21.5 55.5
t53.5 21.5z" />
    <glyph glyph-name="perthousand" unicode="&#x2030;" horiz-adv-x="1458" 
d="M225 703q89 0 140.5 -56.5t51.5 -154.5t-51.5 -154.5t-140.5 -56.5t-140 56.5t-51 154.5t51.5 154.5t139.5 56.5zM681 700h144l-504 -700h-146zM225 617q-43 0 -67.5 -33t-24.5 -92t24.5 -92t67.5 -33q44 0 68.5 33t24.5 92t-24.5 92t-68.5 33zM781 419q89 0 140.5 -56.5
t51.5 -154.5t-51.5 -154.5t-140.5 -56.5t-140 56.5t-51 154.5t51.5 154.5t139.5 56.5zM1232 419q89 0 140.5 -56.5t51.5 -154.5t-51.5 -154.5t-140.5 -56.5t-140 56.5t-51 154.5t51.5 154.5t139.5 56.5zM781 333q-43 0 -67.5 -33t-24.5 -92t24.5 -92t67.5 -33q44 0 68.5 33
t24.5 92t-24.5 92t-68.5 33zM1232 333q-43 0 -67.5 -33t-24.5 -92t24.5 -92t67.5 -33q44 0 68.5 33t24.5 92t-24.5 92t-68.5 33z" />
    <glyph glyph-name="minute" unicode="&#x2032;" horiz-adv-x="224" 
d="M57 700h124l-47 -242h-94z" />
    <glyph glyph-name="second" unicode="&#x2033;" horiz-adv-x="399" 
d="M57 700h124l-47 -242h-94zM233 700h124l-47 -242h-94z" />
    <glyph glyph-name="guilsinglleft" unicode="&#x2039;" horiz-adv-x="279" 
d="M128 446h126l-107 -181l107 -182h-126l-119 182z" />
    <glyph glyph-name="guilsinglright" unicode="&#x203a;" horiz-adv-x="287" 
d="M174 83h-126l107 181l-107 182h126l119 -182z" />
    <glyph glyph-name="fraction" unicode="&#x2044;" horiz-adv-x="105" 
d="M230 700h144l-504 -700h-146z" />
    <glyph glyph-name="uni2070" unicode="&#x2070;" horiz-adv-x="451" 
d="M225 774q89 0 140.5 -56.5t51.5 -154.5t-51.5 -154.5t-140.5 -56.5t-140 56.5t-51 154.5t51.5 154.5t139.5 56.5zM225 688q-43 0 -67.5 -33t-24.5 -92t24.5 -92t67.5 -33q44 0 68.5 33t24.5 92t-24.5 92t-68.5 33z" />
    <glyph glyph-name="uni2074" unicode="&#x2074;" horiz-adv-x="407" 
d="M162 776h104l-131 -248h95v92h102v-92h59v-78h-59v-90h-102v90h-205v73z" />
    <glyph glyph-name="uni2075" unicode="&#x2075;" horiz-adv-x="384" 
d="M153 618q15 3 39 3q75 0 119.5 -33t44.5 -89q0 -65 -47 -105t-125 -40q-92 0 -167 52l43 84q50 -54 111 -54q68 0 68 56q0 49 -68 49q-73 0 -118 -5v239h284v-84h-184v-73z" />
    <glyph glyph-name="uni2076" unicode="&#x2076;" horiz-adv-x="407" 
d="M243 633q63 0 101 -36.5t38 -97.5q0 -66 -44 -105t-118 -39q-87 0 -136.5 55.5t-49.5 151.5q0 99 56 159t149 60q76 0 134 -35l-41 -77q-38 27 -90 27q-50 0 -77 -26.5t-27 -76.5v-6q32 46 105 46zM216 443q30 0 47.5 15t17.5 42q0 26 -16.5 40t-46.5 14
q-32 0 -49.5 -15.5t-17.5 -40.5q0 -24 16.5 -39.5t48.5 -15.5z" />
    <glyph glyph-name="uni2077" unicode="&#x2077;" horiz-adv-x="384" 
d="M28 776h338v-75l-161 -341h-116l157 332h-122v-60h-96v144z" />
    <glyph glyph-name="uni2078" unicode="&#x2078;" horiz-adv-x="413" 
d="M206 780q71 0 113.5 -30t42.5 -82q0 -54 -55 -86q35 -14 56 -42t21 -62q0 -57 -48 -90t-129 -33q-82 0 -130 32.5t-48 88.5q0 35 22.5 64t60.5 42q-61 33 -61 90q0 49 42 78.5t113 29.5zM207 709q-64 0 -64 -47q0 -45 64 -45q63 0 63 45q0 47 -63 47zM206 539
q-73 0 -73 -52t74 -52t74 52t-75 52z" />
    <glyph glyph-name="uni2079" unicode="&#x2079;" horiz-adv-x="407" 
d="M187 783q87 0 136.5 -55.5t49.5 -151.5q0 -99 -56 -159t-149 -60q-76 0 -134 35l41 77q37 -27 90 -27q50 0 77 26.5t27 76.5v6q-32 -46 -105 -46q-63 0 -101 36.5t-38 97.5q0 66 44 105t118 39zM189 584q32 0 49.5 15.5t17.5 40.5q0 24 -16.5 39.5t-48.5 15.5
q-30 0 -47.5 -15t-17.5 -42q0 -26 16.5 -40t46.5 -14z" />
    <glyph glyph-name="uni2080" unicode="&#x2080;" horiz-adv-x="451" 
d="M225 312q89 0 140.5 -56.5t51.5 -154.5t-51.5 -154.5t-140.5 -56.5t-140 56.5t-51 154.5t51.5 154.5t139.5 56.5zM225 226q-43 0 -67.5 -33t-24.5 -92t24.5 -92t67.5 -33q44 0 68.5 33t24.5 92t-24.5 92t-68.5 33z" />
    <glyph glyph-name="uni2081" unicode="&#x2081;" horiz-adv-x="270" 
d="M12 316h189v-416h-108v329h-81v87z" />
    <glyph glyph-name="uni2082" unicode="&#x2082;" horiz-adv-x="387" 
d="M189 126q42 42 42 70q0 36 -50 36q-53 0 -118 -53l-42 78q87 63 177 63q64 0 105.5 -30t41.5 -79q0 -61 -82 -138l-90 -89h185v-84h-324v70z" />
    <glyph glyph-name="uni2083" unicode="&#x2083;" horiz-adv-x="362" 
d="M226 140q49 -7 78.5 -37t29.5 -77q0 -60 -45.5 -97.5t-120.5 -37.5q-97 0 -161 51l44 83q48 -53 108 -53q68 0 68 54q0 50 -68 50h-69v58l100 97h-162v79h286v-62l-109 -104z" />
    <glyph glyph-name="uni2084" unicode="&#x2084;" horiz-adv-x="407" 
d="M162 316h104l-131 -248h95v92h102v-92h59v-78h-59v-90h-102v90h-205v73z" />
    <glyph glyph-name="uni2085" unicode="&#x2085;" horiz-adv-x="384" 
d="M153 154q15 3 39 3q75 0 119.5 -33t44.5 -89q0 -65 -47 -105t-125 -40q-92 0 -167 52l43 84q50 -54 111 -54q68 0 68 56q0 49 -68 49q-73 0 -118 -5v239h284v-84h-184v-73z" />
    <glyph glyph-name="uni2086" unicode="&#x2086;" horiz-adv-x="407" 
d="M243 168q63 0 101 -36.5t38 -97.5q0 -66 -44 -105t-118 -39q-87 0 -136.5 55.5t-49.5 151.5q0 99 56 159t149 60q76 0 134 -35l-41 -77q-38 27 -90 27q-50 0 -77 -26.5t-27 -76.5v-6q32 46 105 46zM216 -22q30 0 47.5 15t17.5 42q0 26 -16.5 40t-46.5 14
q-32 0 -49.5 -15.5t-17.5 -40.5q0 -24 16.5 -39.5t48.5 -15.5z" />
    <glyph glyph-name="uni2087" unicode="&#x2087;" horiz-adv-x="384" 
d="M28 316h338v-75l-161 -341h-116l157 332h-122v-60h-96v144z" />
    <glyph glyph-name="uni2088" unicode="&#x2088;" horiz-adv-x="413" 
d="M206 315q71 0 113.5 -30t42.5 -82q0 -54 -55 -86q35 -14 56 -42t21 -62q0 -57 -48 -90t-129 -33q-82 0 -130 32.5t-48 88.5q0 35 22.5 64t60.5 42q-61 33 -61 90q0 49 42 78.5t113 29.5zM207 244q-64 0 -64 -47q0 -45 64 -45q63 0 63 45q0 47 -63 47zM206 74
q-73 0 -73 -52t74 -52t74 52t-75 52z" />
    <glyph glyph-name="uni2089" unicode="&#x2089;" horiz-adv-x="407" 
d="M187 316q87 0 136.5 -55.5t49.5 -151.5q0 -99 -56 -159t-149 -60q-76 0 -134 35l41 77q37 -27 90 -27q50 0 77 26.5t27 76.5v6q-32 -46 -105 -46q-63 0 -101 36.5t-38 97.5q0 66 44 105t118 39zM189 117q32 0 49.5 15.5t17.5 40.5q0 24 -16.5 39.5t-48.5 15.5
q-30 0 -47.5 -15t-17.5 -42q0 -26 16.5 -40t46.5 -14z" />
    <glyph glyph-name="colonmonetary" unicode="&#x20a1;" horiz-adv-x="694" 
d="M677 118q-72 -73 -167 -105l-28 -163h-105l25 143h-8q-26 0 -52 3l-26 -146h-105l31 173q-98 42 -156.5 129.5t-58.5 198.5q0 115 64.5 204t171.5 127l29 163h105l-25 -141q9 1 28 1q21 0 32 -1l26 141h105l-30 -165q85 -31 143 -91l-92 -112q-36 42 -85 66.5t-97 24.5
q-90 0 -151.5 -62t-61.5 -153t61.5 -153.5t151.5 -62.5q47 0 95.5 22t86.5 60z" />
    <glyph glyph-name="franc" unicode="&#x20a3;" horiz-adv-x="609" 
d="M594 569h-344v-173h315v-127h-315v-95h219v-69h-219v-105h-158v105h-77v69h77v526h503z" />
    <glyph glyph-name="lira" unicode="&#x20a4;" horiz-adv-x="557" 
d="M268 223v-98h265v-125h-502v125h78v98h-78v77h78v57h-78v77h78v42q0 110 60 170.5t170 60.5q124 0 208 -87l-60 -120q-66 69 -131 69q-88 0 -88 -96v-39h170v-77h-170v-57h170v-77h-170z" />
    <glyph glyph-name="uni20A6" unicode="&#x20a6;" horiz-adv-x="780" 
d="M760 409h-77v-118h77v-93h-77v-198h-144l-124 198h-176v-198h-142v198h-77v93h77v118h-77v93h77v198h143l125 -198h177v198h141v-198h77v-93zM239 291h118l-74 118h-44v-118zM542 291v118h-119l74 -118h45z" />
    <glyph glyph-name="peseta" unicode="&#x20a7;" horiz-adv-x="1542" 
d="M340 700q131 0 203.5 -64t72.5 -182q0 -121 -72.5 -187.5t-203.5 -66.5h-115v-200h-148v700h263zM941 123q32 0 71 20l32 -113q-63 -37 -137 -37q-72 0 -117 43t-45 123v251h-75v104h75v148h143v-148h140v-104h-140v-223q0 -64 53 -64zM328 320q72 0 110 33.5t38 98.5
q0 129 -148 129h-103v-261h103zM1241 392q0 -23 28 -39t68 -28t80 -28.5t68 -52t28 -88.5q0 -77 -59 -119.5t-150 -42.5q-132 0 -222 68l46 96q85 -58 178 -58q71 0 71 47q0 25 -27.5 41.5t-67 29t-79 29t-67 51.5t-27.5 87q0 77 56.5 118.5t144.5 41.5q110 0 199 -54
l-49 -100q-83 47 -152 47q-67 0 -67 -46z" />
    <glyph glyph-name="uni20A9" unicode="&#x20a9;" horiz-adv-x="1016" 
d="M1014 417h-88l-27 -92h105v-80h-128l-72 -245h-163l-62 245h-141l-63 -245h-163l-71 245h-129v80h105l-27 92h-88v80h65l-59 203h166l45 -203h167l50 203h155l50 -203h163l43 203h162l-59 -203h64v-80zM509 523l-7 -26h14zM458 325h101l-23 92h-4l-22 15l-22 -15h-6z
M237 417l21 -92h86l23 92h-130zM767 325l20 92h-127l23 -92h84zM299 139l26 106h-50zM728 139l22 106h-48z" />
    <glyph glyph-name="dong" unicode="&#x20ab;" horiz-adv-x="688" 
d="M672 684v-84h-67v-600h-153v79q-59 -85 -170 -85q-115 0 -184.5 76t-69.5 201q0 123 68.5 198t181.5 75q114 0 174 -85v141h-90v84h90v58h153v-58h67zM318 118q59 0 96.5 41.5t37.5 107.5t-37.5 107.5t-96.5 41.5q-60 0 -97.5 -41.5t-38.5 -107.5q1 -66 38.5 -107.5
t97.5 -41.5zM107 -153v102h440v-102h-440z" />
    <glyph glyph-name="Euro" unicode="&#x20ac;" horiz-adv-x="785" 
d="M676 219l92 -101q-55 -58 -130.5 -91.5t-152.5 -33.5q-125 0 -220 68t-130 178h-105v74h90q-2 24 -2 38q0 15 2 43h-90v75h108q37 106 132.5 171t220.5 65q76 0 150.5 -31.5t125.5 -84.5l-91 -112q-36 42 -85 66.5t-98 24.5q-57 0 -105 -26.5t-76 -72.5h231v-75h-259
q-4 -17 -4 -41q0 -21 3 -40h260v-74h-232q28 -47 76 -74.5t106 -27.5q99 0 183 82z" />
    <glyph glyph-name="uni20AD" unicode="&#x20ad;" horiz-adv-x="710" 
d="M707 0h-188l-271 314v-314h-158v306h-73v101h73v293h158v-303l260 303h182l-257 -293h201v-101h-197z" />
    <glyph glyph-name="uni20B1" unicode="&#x20b1;" 
d="M751 533v-76h-77v-16v-19h77v-76h-90q-25 -81 -94 -124.5t-174 -43.5h-138v-178h-158v346h-77v76h77v35h-77v76h77v167h296q106 0 175 -43t93 -124h90zM374 575h-119v-48h246q-38 48 -127 48zM255 461v-43h271q1 7 1 22q0 14 -1 21h-271zM374 304q88 0 127 48h-246v-48
h119z" />
    <glyph glyph-name="uni20B2" unicode="&#x20b2;" horiz-adv-x="728" 
d="M547 198v163h137v-361h-117v58q-49 -37 -109 -54v-154h-116v145q-136 14 -225.5 114t-89.5 241q0 135 88.5 232.5t226.5 117.5v145h116v-143q139 -18 233 -99l-90 -113q-39 36 -90 57t-102 21q-93 0 -156.5 -63t-63.5 -155q0 -93 61 -156t151 -63q87 0 146 67z" />
    <glyph glyph-name="uni20B5" unicode="&#x20b5;" horiz-adv-x="694" 
d="M677 118q-96 -99 -229 -121v-147h-116v148q-133 20 -219 118.5t-86 234.5q0 134 85.5 230.5t219.5 118.5v145h116v-143q137 -19 228 -113l-92 -112q-36 42 -85 66.5t-97 24.5q-90 0 -151.5 -62t-61.5 -153t61.5 -153.5t151.5 -62.5q47 0 95.5 22t86.5 60z" />
    <glyph glyph-name="uni20B9" unicode="&#x20b9;" horiz-adv-x="605" 
d="M581 577h-120q26 -33 37 -81h83v-90h-78q-12 -112 -104 -165l182 -241h-179l-151 201q-10 -1 -32 -1h-185v124h176q116 0 142 82l-318 -1v91h318q-26 81 -142 81h-176v123h547v-123z" />
    <glyph glyph-name="uni20BA" unicode="&#x20ba;" horiz-adv-x="711" 
d="M525 353l160 2q0 -157 -104 -256t-270 -99h-210v311l-73 -21v87l73 21v58l-73 -21v87l73 21v157h158v-112l330 94v-87l-330 -94v-58l330 94v-87l-330 -94v-223h62q90 0 147 61.5t57 158.5z" />
    <glyph glyph-name="uni20BC" unicode="&#x20bc;" horiz-adv-x="762" 
d="M446 605q128 -21 208 -114t80 -224v-267h-155v266q0 71 -36.5 124t-96.5 72v-462h-129v462q-61 -20 -97.5 -72.5t-36.5 -123.5v-266h-155v267q0 132 80.5 225t208.5 113v95h129v-95z" />
    <glyph glyph-name="uni20BD" unicode="&#x20bd;" horiz-adv-x="693" 
d="M391 222h-138v-62h232v-69h-232v-91h-158v91h-77v69h77v540h296q134 0 207.5 -61.5t73.5 -173.5q0 -116 -73.5 -179.5t-207.5 -63.5zM253 575v-228h131q137 0 137 116q0 112 -137 112h-131z" />
    </font>
</defs>
</svg>
